<svg width="144" height="144" viewBox="0 0 144 144" fill="none" xmlns="http://www.w3.org/2000/svg">
<g clip-path="url(#clip0_2693_8580)">
<path d="M55.2508 14.8985C55.4657 14.254 55.6649 13.6801 55.8485 13.1765C56.0363 12.6718 56.215 12.2287 56.3845 11.8474C56.5529 11.4619 56.7171 11.1321 56.8773 10.858C57.0416 10.5826 57.2099 10.3515 57.3821 10.1647C57.5572 9.97248 57.7413 9.81849 57.9344 9.70274C58.1275 9.58699 58.339 9.49534 58.5689 9.4278C59.1166 9.26693 59.442 9.36207 59.5451 9.71325C59.5586 9.75924 59.5704 9.81481 59.5805 9.87998C59.5905 9.94514 59.5916 10.0107 59.5837 10.0766C59.58 10.1412 59.5634 10.2006 59.5339 10.2547C59.5044 10.3088 59.4582 10.345 59.3955 10.3635C59.3495 10.377 59.2884 10.3699 59.2122 10.3424C59.1402 10.3136 59.0565 10.2837 58.9611 10.2527C58.8645 10.2175 58.7571 10.1922 58.6391 10.1769C58.5198 10.1575 58.3954 10.1668 58.2658 10.2048C58.1237 10.2466 57.9778 10.353 57.8283 10.5241C57.6829 10.694 57.5331 10.9106 57.3788 11.1739C57.2287 11.4359 57.078 11.7345 56.9267 12.0696C56.7783 12.3993 56.6306 12.747 56.4837 13.1126C57.5308 14.3581 58.4467 15.4356 59.2316 16.3449C60.0206 17.2531 60.7129 17.9943 61.3085 18.5687C61.9071 19.1376 62.4227 19.5402 62.8554 19.7764C63.2881 20.0126 63.6738 20.081 64.0124 19.9815C64.0709 19.9643 64.127 19.9388 64.1806 19.9049C64.2342 19.8709 64.281 19.8368 64.3208 19.8024C64.369 19.7655 64.4154 19.7224 64.4599 19.673L64.6634 19.8788C64.6046 19.9415 64.5211 20.0205 64.4129 20.1159C64.3089 20.2101 64.1785 20.3074 64.0218 20.4079C63.8706 20.5114 63.698 20.612 63.5042 20.7098C63.3104 20.8076 63.0965 20.8909 62.8624 20.9597C62.5405 21.0542 62.2268 21.0919 61.9214 21.0726C61.616 21.0533 61.2985 20.9695 60.9688 20.8211C60.6445 20.6756 60.3014 20.4585 59.9396 20.1697C59.5831 19.8839 59.1902 19.5202 58.7607 19.0786C58.3355 18.6359 57.8683 18.1123 57.3593 17.508C56.8503 16.9037 56.2846 16.207 55.6622 15.4179L55.5289 15.8454L56.6655 19.7146C56.76 20.0365 56.7431 20.2958 56.6147 20.4924C56.4904 20.6879 56.2548 20.8366 55.9078 20.9385C55.5567 21.0416 55.276 21.0446 55.0658 20.9474C54.8556 20.8502 54.7032 20.6407 54.6086 20.3188L52.3908 12.7685C52.3637 12.6765 52.3318 12.6065 52.2949 12.5582C52.2581 12.51 52.2165 12.4768 52.1703 12.4586C52.1228 12.4362 52.0707 12.4288 52.0139 12.4364C51.9601 12.4386 51.9018 12.4489 51.8391 12.4674C51.7471 12.4944 51.6364 12.5428 51.5071 12.6126C51.3819 12.6811 51.2526 12.7668 51.1193 12.8695C50.986 12.9723 50.8549 13.0902 50.726 13.2235C50.6001 13.3513 50.4924 13.4874 50.4031 13.6317C50.318 13.7748 50.2575 13.9242 50.2215 14.0801C50.1856 14.236 50.1903 14.3913 50.2357 14.546C50.275 14.6798 50.3231 14.7815 50.3798 14.8511C50.4408 14.9194 50.5004 14.9678 50.5587 14.9961C50.6157 15.0202 50.6691 15.0318 50.7188 15.0308C50.7714 15.0244 50.8081 15.0182 50.829 15.012C50.9336 14.9813 51.0143 14.9394 51.0714 14.8863C51.1273 14.8291 51.1768 14.7736 51.2201 14.72C51.2622 14.6623 51.3013 14.6099 51.3375 14.563C51.3766 14.5106 51.4275 14.4752 51.4902 14.4568C51.5404 14.442 51.5963 14.4392 51.658 14.4483C51.7227 14.4521 51.7854 14.4722 51.8461 14.5089C51.911 14.5443 51.9725 14.5989 52.0305 14.6727C52.0873 14.7423 52.1328 14.8357 52.1672 14.9527C52.2163 15.12 52.2253 15.274 52.194 15.4149C52.1669 15.5546 52.1134 15.6815 52.0334 15.7959C51.9564 15.9048 51.8572 15.9998 51.7357 16.0809C51.6171 16.1566 51.493 16.2135 51.3634 16.2515C51.1628 16.3105 50.9711 16.3304 50.7884 16.3114C50.6087 16.287 50.4445 16.2308 50.296 16.1427C50.1476 16.0546 50.0201 15.9377 49.9137 15.7918C49.8073 15.646 49.727 15.4811 49.673 15.2971C49.5883 15.0087 49.5631 14.7299 49.5977 14.4609C49.631 14.1877 49.7092 13.9286 49.8325 13.6835C49.96 13.4371 50.1241 13.2073 50.3248 12.9939C50.5285 12.7751 50.7583 12.5759 51.0144 12.3963C51.2704 12.2166 51.5463 12.0583 51.8422 11.9215C52.1368 11.7804 52.4388 11.6645 52.7482 11.5736C53.091 11.4729 53.3663 11.4284 53.5741 11.44C53.7848 11.4462 53.9476 11.4824 54.0624 11.5486C54.1814 11.6135 54.264 11.6937 54.3102 11.7892C54.3564 11.8846 54.3893 11.9657 54.4089 12.0326L55.2508 14.8985Z" fill="black"/>
<path d="M63.7477 15.9775C63.7665 16.1157 63.8064 16.2642 63.8676 16.423C63.9325 16.5768 64.0149 16.7305 64.115 16.884C64.215 17.0375 64.3314 17.1822 64.4642 17.3181C64.6007 17.449 64.7503 17.5628 64.9129 17.6594C65.0799 17.7555 65.2587 17.8257 65.4495 17.8702C65.6402 17.9146 65.8435 17.9221 66.0594 17.8928C66.2105 17.8723 66.3485 17.8359 66.4733 17.7838C66.5981 17.7316 66.7126 17.6677 66.8166 17.592C66.9207 17.5163 67.0192 17.4325 67.1123 17.3407C67.2047 17.2446 67.2966 17.1442 67.3879 17.0394L67.571 17.1729C67.4898 17.3202 67.3824 17.4843 67.2487 17.6652C67.115 17.8461 66.9477 18.0227 66.7469 18.1951C66.5455 18.3632 66.3044 18.5147 66.0237 18.6496C65.7424 18.7802 65.414 18.871 65.0384 18.922C64.6627 18.9731 64.2866 18.956 63.9101 18.8709C63.5373 18.7809 63.1942 18.6186 62.8809 18.3842C62.5676 18.1497 62.2992 17.841 62.0757 17.458C61.8564 17.0745 61.7098 16.6107 61.6359 16.0667C61.5825 15.6738 61.5832 15.3065 61.6379 14.9649C61.6926 14.6233 61.7862 14.3093 61.9188 14.023C62.0557 13.7362 62.2229 13.4782 62.4204 13.2491C62.6223 13.0194 62.8396 12.8227 63.0724 12.6592C63.3046 12.4913 63.5459 12.3574 63.7961 12.2574C64.0501 12.1525 64.298 12.0836 64.5398 12.0508C64.8593 12.0074 65.1425 12.0041 65.3893 12.0409C65.6362 12.0777 65.8453 12.1438 66.0165 12.2392C66.1921 12.3341 66.3293 12.454 66.4282 12.5988C66.5264 12.7394 66.587 12.8939 66.6099 13.0622C66.6375 13.2652 66.6041 13.4566 66.5099 13.6365C66.415 13.8121 66.2786 13.9735 66.1008 14.1208L63.7477 15.9775ZM64.8708 14.4859C64.9222 14.4437 64.9631 14.4052 64.9936 14.3703C65.0277 14.3305 65.0527 14.2875 65.0684 14.2414C65.0835 14.1909 65.091 14.1328 65.0908 14.0668C65.0944 13.996 65.0894 13.9109 65.0759 13.8116C65.0613 13.7037 65.0322 13.5867 64.9887 13.4607C64.9489 13.3298 64.893 13.2098 64.821 13.1009C64.7491 12.992 64.6646 12.9045 64.5677 12.8385C64.4708 12.7725 64.3619 12.7478 64.241 12.7642C64.0856 12.7853 63.9582 12.851 63.8588 12.9612C63.7632 13.0666 63.6887 13.1976 63.6352 13.3544C63.5861 13.5106 63.5529 13.6866 63.5355 13.8825C63.5219 14.0734 63.5172 14.2653 63.5214 14.4582C63.5256 14.6511 63.5376 14.8364 63.5574 15.014C63.5765 15.1873 63.5943 15.3344 63.6108 15.4553L64.8708 14.4859Z" fill="black"/>
<path d="M70.2179 12.1475C70.1178 12.1511 70.0224 12.1676 69.9319 12.197C69.8458 12.2263 69.769 12.2727 69.7015 12.3361C69.6339 12.3953 69.5821 12.4712 69.5462 12.5641C69.5101 12.6526 69.4943 12.7578 69.4987 12.8797C69.5048 13.0495 69.5719 13.2172 69.6999 13.3826C69.8321 13.5435 69.993 13.7122 70.1824 13.8885C70.3761 14.0603 70.5831 14.2403 70.8036 14.4286C71.0282 14.6123 71.2358 14.8098 71.4266 15.0209C71.6215 15.2276 71.7843 15.4506 71.915 15.6901C72.05 15.9294 72.1226 16.1884 72.1326 16.4671C72.1436 16.7719 72.1012 17.0481 72.0054 17.2957C71.9139 17.5388 71.7754 17.7487 71.5899 17.9254C71.4086 18.0976 71.1847 18.2365 70.9182 18.342C70.6515 18.4432 70.3528 18.504 70.0222 18.5247L69.9341 18.9856C70.2085 18.9758 70.447 18.9999 70.6496 19.058C70.8566 19.116 71.0296 19.1969 71.1685 19.3009C71.3074 19.405 71.4119 19.5233 71.4821 19.6559C71.5568 19.7928 71.5967 19.933 71.6019 20.0767C71.6114 20.3423 71.5649 20.5642 71.4623 20.7423C71.3641 20.9202 71.2318 21.0623 71.0656 21.1686C70.9039 21.279 70.7236 21.3575 70.5247 21.4039C70.326 21.4546 70.1352 21.4833 69.9523 21.4899C69.7737 21.4963 69.6055 21.4871 69.4477 21.4622C69.2898 21.4374 69.1447 21.4034 69.0124 21.3602C68.8844 21.3168 68.7693 21.2686 68.6671 21.2156C68.5649 21.1626 68.4802 21.1112 68.413 21.0613L68.5228 20.8415C68.7048 20.9309 68.8901 20.9918 69.0788 21.0242C69.2719 21.0609 69.4598 21.0716 69.6424 21.0563C69.9249 21.033 70.151 20.953 70.3204 20.8161C70.4943 20.679 70.576 20.4668 70.5657 20.1794C70.5594 20.0052 70.5215 19.8605 70.452 19.7453C70.3826 19.6344 70.2922 19.5461 70.1808 19.4804C70.074 19.4188 69.9525 19.3752 69.8164 19.3496C69.6803 19.324 69.5447 19.3114 69.4096 19.3119L69.5771 18.5145C69.3278 18.493 69.0971 18.4424 68.8849 18.3628C68.677 18.2787 68.4903 18.1808 68.325 18.069C68.164 17.9571 68.0225 17.8423 67.9006 17.7246C67.7828 17.6024 67.6895 17.4924 67.6206 17.3946L67.8433 17.2231C67.9022 17.2863 67.9767 17.3556 68.0666 17.4309C68.1563 17.5017 68.2546 17.568 68.3615 17.6295C68.4727 17.6909 68.5901 17.7412 68.7136 17.7804C68.8369 17.8152 68.9617 17.8303 69.088 17.8258C69.4015 17.8145 69.6557 17.7312 69.8507 17.576C70.0456 17.4164 70.1376 17.1885 70.127 16.8924C70.121 16.7269 70.0605 16.5591 69.9454 16.3888C69.8301 16.2142 69.6863 16.0362 69.5141 15.8549C69.3419 15.6736 69.1564 15.4863 68.9576 15.2929C68.7588 15.0995 68.5729 14.899 68.3997 14.6916C68.2266 14.4842 68.0815 14.2692 67.9645 14.0467C67.8475 13.8242 67.7846 13.591 67.7758 13.3472C67.766 13.0729 67.8118 12.8314 67.9133 12.6228C68.0191 12.4141 68.1611 12.2389 68.3391 12.0974C68.5215 11.9557 68.7291 11.8479 68.9619 11.7741C69.1989 11.6958 69.4436 11.6522 69.6962 11.6431C69.9879 11.6326 70.2545 11.6492 70.4959 11.6928C70.7372 11.7364 70.9448 11.8096 71.1185 11.9124C71.2965 12.0106 71.4341 12.1387 71.5313 12.2965C71.6329 12.4542 71.6875 12.6397 71.6952 12.853C71.7012 13.0185 71.6519 13.1642 71.5474 13.29C71.4429 13.4158 71.2927 13.4823 71.0968 13.4893C70.9095 13.4961 70.7644 13.4621 70.6615 13.3873C70.5627 13.308 70.5108 13.1987 70.5058 13.0593C70.5025 12.9679 70.5217 12.8952 70.5633 12.8414C70.6094 12.7875 70.6601 12.7442 70.7156 12.7117C70.771 12.6748 70.8201 12.6447 70.8628 12.6214C70.9098 12.5935 70.9326 12.56 70.9311 12.5208C70.9268 12.3989 70.858 12.3054 70.7249 12.2405C70.5916 12.1711 70.4226 12.1402 70.2179 12.1475Z" fill="black"/>
<path d="M76.8541 8.81895C76.7322 8.81331 76.6156 8.83408 76.5044 8.88128C76.3932 8.92847 76.2935 9.00892 76.2053 9.12261C76.1218 9.23215 76.0519 9.37504 75.9958 9.55128C75.9396 9.72753 75.9057 9.94187 75.894 10.1943L75.8197 11.8004L77.2495 11.8666L77.2278 12.3367L75.7979 12.2705L75.5598 17.4153C75.5324 18.0073 75.4288 18.5499 75.2489 19.0432C75.0734 19.5367 74.8206 19.9568 74.4905 20.3036C74.1602 20.6547 73.7552 20.9217 73.2757 21.1045C72.7961 21.2873 72.243 21.3642 71.6162 21.3352C71.3942 21.3249 71.1818 21.2955 70.9791 21.2468C70.7761 21.2025 70.5978 21.1441 70.4441 21.0716C70.2905 20.999 70.17 20.9149 70.0829 20.8193C69.9911 20.7278 69.9478 20.6277 69.9528 20.5189C69.9565 20.4405 69.9711 20.3605 69.9967 20.2788C70.022 20.2015 70.058 20.1312 70.1046 20.0679C70.1511 20.0046 70.208 19.9527 70.2753 19.9122C70.3381 19.8759 70.4108 19.8596 70.4935 19.8634C70.5414 19.8656 70.5838 19.8916 70.6208 19.9413C70.6534 19.9908 70.6876 20.0512 70.7236 20.1227C70.7595 20.1942 70.8017 20.2724 70.8501 20.3576C70.894 20.4468 70.9535 20.5281 71.0286 20.6014C71.1037 20.6746 71.1989 20.7379 71.3142 20.7912C71.4252 20.8444 71.5634 20.8748 71.7288 20.8824C71.9507 20.8927 72.1487 20.856 72.3227 20.7725C72.4965 20.6933 72.6479 20.5782 72.7771 20.4271C72.9062 20.2761 73.017 20.0958 73.1096 19.8864C73.2022 19.6769 73.2781 19.4514 73.3372 19.2099C73.3964 18.9684 73.4408 18.7152 73.4705 18.4505C73.5046 18.186 73.5277 17.921 73.54 17.6555L73.7935 12.1778L72.5922 12.1222L72.614 11.6521L73.8153 11.7077L73.8507 10.9438C73.8684 10.5608 73.9295 10.2299 74.034 9.9512C74.1431 9.66836 74.2784 9.43036 74.44 9.23719C74.606 9.04422 74.7898 8.88916 74.9915 8.772C75.1932 8.65484 75.3959 8.56389 75.5995 8.49917C75.8075 8.43464 76.0079 8.39375 76.2006 8.3765C76.3933 8.35925 76.5615 8.35395 76.7052 8.36059C77.0142 8.3749 77.2873 8.41153 77.5245 8.47049C77.7619 8.52509 77.9593 8.5953 78.1167 8.6811C78.2743 8.76255 78.3921 8.85524 78.4702 8.95918C78.5483 9.06312 78.5849 9.16732 78.5801 9.27178C78.5764 9.35013 78.5597 9.43005 78.5297 9.51154C78.5043 9.58888 78.4682 9.66136 78.4215 9.72899C78.375 9.79226 78.318 9.84415 78.2507 9.88466C78.188 9.92101 78.1174 9.93737 78.0391 9.93375C77.9912 9.93153 77.9489 9.9034 77.9121 9.84936C77.8754 9.79531 77.837 9.72811 77.7971 9.64775C77.7572 9.56738 77.7133 9.48029 77.6653 9.38647C77.6173 9.29265 77.5559 9.20475 77.4812 9.12278C77.4108 9.041 77.3246 8.97158 77.2226 8.91452C77.1205 8.85745 76.9977 8.82559 76.8541 8.81895Z" fill="black"/>
<path d="M79.2327 15.8383C79.2137 15.9765 79.2123 16.1302 79.2286 16.2996C79.2498 16.4653 79.2879 16.6354 79.343 16.8102C79.3981 16.9849 79.4714 17.1555 79.5628 17.3221C79.6592 17.4849 79.7727 17.6347 79.9034 17.7714C80.0384 17.9088 80.1919 18.0245 80.3636 18.1185C80.5354 18.2125 80.7292 18.2744 80.9451 18.3041C81.0961 18.3249 81.2388 18.327 81.3731 18.3103C81.5073 18.2935 81.6347 18.2627 81.7553 18.2177C81.8758 18.1728 81.9932 18.1185 82.1075 18.0551C82.2224 17.9874 82.3379 17.9153 82.454 17.8389L82.5945 18.0166C82.4767 18.1367 82.3292 18.266 82.1518 18.4043C81.9744 18.5426 81.7659 18.6678 81.5261 18.78C81.2869 18.8878 81.014 18.969 80.7074 19.0235C80.4014 19.0737 80.0607 19.073 79.6851 19.0213C79.3096 18.9696 78.9519 18.8522 78.612 18.669C78.2771 18.4821 77.9902 18.2337 77.7514 17.9237C77.5126 17.6137 77.337 17.2443 77.2245 16.8154C77.1163 16.387 77.0997 15.9009 77.1746 15.357C77.2287 14.9642 77.3279 14.6106 77.4724 14.2962C77.6168 13.9818 77.7914 13.7046 77.996 13.4644C78.2049 13.2249 78.4352 13.0213 78.687 12.8537C78.9432 12.6866 79.2053 12.5556 79.4735 12.4605C79.7423 12.3612 80.0106 12.297 80.2786 12.2679C80.5514 12.2351 80.8086 12.2353 81.0504 12.2686C81.3698 12.3126 81.6435 12.3855 81.8714 12.4872C82.0993 12.589 82.2829 12.7088 82.4222 12.8468C82.5659 12.9853 82.6659 13.1376 82.7222 13.3037C82.7791 13.4655 82.7959 13.6306 82.7728 13.7989C82.7448 14.0018 82.6613 14.1772 82.5222 14.3252C82.3836 14.4689 82.2089 14.5877 81.998 14.6819L79.2327 15.8383ZM80.7152 14.7031C80.776 14.6763 80.8258 14.6502 80.8645 14.6247C80.9081 14.5956 80.9437 14.5609 80.9712 14.5207C80.9993 14.4762 81.0221 14.4221 81.0397 14.3586C81.0622 14.2913 81.0802 14.208 81.0939 14.1087C81.1087 14.0008 81.1121 13.8803 81.1041 13.7473C81.1009 13.6105 81.0793 13.48 81.0392 13.3557C80.9992 13.2314 80.9413 13.1245 80.8657 13.0349C80.7901 12.9453 80.6918 12.8922 80.5709 12.8756C80.4155 12.8542 80.2752 12.8832 80.1499 12.9627C80.0295 13.0385 79.9225 13.1447 79.8289 13.2814C79.7396 13.4186 79.6603 13.5793 79.591 13.7632C79.5266 13.9435 79.4706 14.1271 79.4228 14.3141C79.3751 14.501 79.3369 14.6827 79.3082 14.8591C79.2801 15.0312 79.2577 15.1776 79.2411 15.2985L80.7152 14.7031Z" fill="black"/>
<path d="M87.3718 16.9155C87.3839 16.8691 87.4079 16.7763 87.4439 16.6371C87.4811 16.4937 87.5189 16.3302 87.5575 16.1467C87.5971 15.9589 87.6331 15.7589 87.6656 15.5468C87.698 15.3346 87.714 15.134 87.7135 14.9448C87.6461 14.7878 87.5622 14.6423 87.4619 14.5083C87.3669 14.3712 87.2224 14.2775 87.0283 14.2272C86.6993 14.142 86.4011 14.2943 86.1336 14.6841C85.8703 15.0751 85.6218 15.7219 85.388 16.6245C85.2853 17.021 85.2082 17.3882 85.1567 17.7259C85.1095 18.0648 85.0911 18.3616 85.1017 18.6164C85.1164 18.8722 85.1638 19.0803 85.2438 19.2406C85.3281 19.4019 85.4503 19.5033 85.6106 19.5449C86.2855 19.7196 86.8726 18.8432 87.3718 16.9155ZM88.0169 14.1119C88.046 13.6693 88.0358 13.2481 87.9864 12.8482C87.938 12.4441 87.847 12.0829 87.7134 11.7648C87.5839 11.4477 87.4102 11.1799 87.1923 10.9614C86.9785 10.744 86.724 10.5971 86.4287 10.5206C86.26 10.4769 86.1006 10.4581 85.9504 10.4642C85.8045 10.4715 85.6733 10.4915 85.5568 10.5243C85.4414 10.5529 85.3428 10.5859 85.2611 10.6233C85.1847 10.6575 85.1285 10.6835 85.0924 10.7011L84.9853 10.4371C85.1204 10.3325 85.2744 10.2419 85.4473 10.1651C85.6244 10.0895 85.8098 10.034 86.0035 9.99863C86.1972 9.96328 86.395 9.94698 86.5968 9.94974C86.8029 9.95359 87.0008 9.9801 87.1906 10.0293C87.8149 10.1909 88.3277 10.4701 88.7292 10.8666C89.1317 11.2589 89.4266 11.7449 89.6141 12.3246C89.8015 12.9042 89.8842 13.567 89.862 14.313C89.8399 15.0589 89.7174 15.8621 89.4945 16.7226C89.3143 17.4186 89.0842 18.0117 88.8042 18.5018C88.5284 18.993 88.2134 19.384 87.859 19.6748C87.5057 19.9614 87.1179 20.1468 86.6955 20.2309C86.2784 20.3119 85.8358 20.2918 85.3675 20.1706C85.0428 20.0864 84.7264 19.9437 84.4184 19.7425C84.1158 19.538 83.8612 19.2696 83.6548 18.937C83.4526 18.6056 83.3196 18.2066 83.2559 17.74C83.1933 17.2692 83.2418 16.7258 83.4012 16.11C83.5389 15.5785 83.7351 15.1252 83.9898 14.7501C84.2487 14.376 84.5413 14.0805 84.8676 13.8634C85.1949 13.6421 85.5443 13.5008 85.9158 13.4395C86.2884 13.3739 86.6602 13.3892 87.0314 13.4853C87.1749 13.5225 87.3002 13.5685 87.4076 13.6233C87.516 13.6739 87.608 13.7269 87.6836 13.7825C87.7593 13.8381 87.8232 13.8952 87.8756 13.9538C87.929 14.0081 87.9761 14.0608 88.0169 14.1119Z" fill="black"/>
<path d="M91.4814 21.3909C91.4621 21.4441 91.4281 21.5059 91.3794 21.5763C91.3363 21.6441 91.2673 21.7002 91.1724 21.7446C91.083 21.7863 90.9667 21.8067 90.8234 21.8057C90.6786 21.8088 90.4976 21.771 90.2806 21.6922C90.0635 21.6134 89.9031 21.5251 89.7996 21.4273C89.6945 21.3336 89.6239 21.2408 89.5877 21.1488C89.5515 21.0569 89.5386 20.9711 89.549 20.8914C89.5635 20.8133 89.5789 20.7516 89.5952 20.7066L91.316 15.9633C91.3591 15.8446 91.3676 15.7317 91.3414 15.6249C91.3209 15.5155 91.245 15.437 91.114 15.3895C91.0443 15.3642 90.9805 15.3549 90.9224 15.3617C90.8644 15.3684 90.7985 15.3839 90.7248 15.4082L90.6515 15.2078C90.7739 15.1641 90.9059 15.1262 91.0473 15.0941C91.1943 15.0594 91.3458 15.0379 91.5018 15.0296C91.6578 15.0212 91.8203 15.0269 91.9893 15.0465C92.1583 15.0661 92.3288 15.1071 92.5009 15.1695C92.7671 15.2661 92.9606 15.378 93.0813 15.5052C93.2035 15.6284 93.2801 15.7558 93.3111 15.8876C93.3436 16.0152 93.3444 16.1407 93.3136 16.2639C93.2869 16.3887 93.2572 16.4961 93.2245 16.5862L91.4814 21.3909ZM92.026 13.412C92.0676 13.2973 92.1316 13.1977 92.2179 13.1131C92.3098 13.026 92.4149 12.9598 92.5332 12.9147C92.6557 12.871 92.7845 12.8482 92.9196 12.8463C93.0588 12.8458 93.2001 12.8715 93.3435 12.9236C93.4828 12.9741 93.6036 13.0434 93.706 13.1316C93.8126 13.2212 93.8968 13.3213 93.9587 13.4318C94.0205 13.5423 94.0567 13.6597 94.0673 13.7841C94.0834 13.9058 94.0706 14.024 94.029 14.1387C93.9859 14.2575 93.9192 14.3584 93.8288 14.4415C93.7425 14.526 93.6401 14.5909 93.5218 14.636C93.4049 14.6771 93.2769 14.6978 93.1377 14.6983C93.0025 14.7003 92.8653 14.676 92.7261 14.6255C92.5827 14.5735 92.4577 14.5026 92.3512 14.413C92.2488 14.3248 92.1638 14.2268 92.0964 14.1189C92.0345 14.0084 91.9955 13.8923 91.9794 13.7706C91.9674 13.6503 91.9829 13.5308 92.026 13.412Z" fill="black"/>
<path d="M97.4396 21.1593C97.6757 20.6651 97.8404 20.2598 97.9339 19.9432C98.0332 19.6245 98.0821 19.3709 98.0806 19.1824C98.0811 18.9899 98.0474 18.8486 97.9797 18.7585C97.9139 18.6644 97.8339 18.5949 97.7398 18.5499C97.6261 18.4956 97.5091 18.4782 97.3889 18.4979C97.2746 18.5155 97.1653 18.5476 97.0612 18.5942C96.9609 18.6426 96.8686 18.6948 96.784 18.7508C96.7034 18.8086 96.6381 18.8496 96.588 18.8738L94.7106 22.8032C94.6862 22.8542 94.6484 22.9132 94.5971 22.9802C94.5477 23.0433 94.4757 23.0932 94.3811 23.1299C94.2923 23.1645 94.1768 23.1744 94.0346 23.1594C93.8945 23.1503 93.7205 23.0961 93.5127 22.9968C93.3048 22.8975 93.1523 22.7933 93.0551 22.6842C92.9599 22.5809 92.8969 22.481 92.866 22.3843C92.8351 22.2877 92.8287 22.2003 92.8467 22.1223C92.8648 22.0442 92.8841 21.9836 92.9047 21.9404L95.0744 17.3993C95.1287 17.2855 95.1481 17.1744 95.1325 17.0658C95.1228 16.9552 95.0552 16.8699 94.9297 16.8099C94.863 16.7781 94.8005 16.7627 94.7422 16.7637C94.6839 16.7648 94.617 16.7737 94.5415 16.7906L94.4882 16.5846C94.614 16.5532 94.7487 16.5284 94.8922 16.5103C95.0415 16.4901 95.194 16.4835 95.3497 16.4904C95.5053 16.4973 95.6661 16.5187 95.8319 16.5546C95.9978 16.5905 96.1631 16.6478 96.3278 16.7265C96.5827 16.8483 96.7602 16.9861 96.8601 17.1398C96.9619 17.2896 97.0181 17.4393 97.0285 17.5888C97.039 17.7382 97.0192 17.8805 96.9691 18.0155C96.9249 18.1485 96.8821 18.2582 96.8409 18.3444C97.0853 18.2059 97.339 18.0983 97.602 18.0217C97.7102 17.9867 97.8254 17.9574 97.9474 17.9338C98.0734 17.9121 98.1995 17.9002 98.3259 17.8979C98.458 17.8936 98.5884 17.9029 98.7171 17.9259C98.8497 17.9507 98.9768 17.9922 99.0984 18.0503C99.3651 18.1777 99.576 18.3411 99.7312 18.5404C99.8903 18.7417 99.9833 18.9957 100.01 19.3023C100.037 19.609 99.9932 19.9782 99.8785 20.4098C99.7656 20.8376 99.5696 21.3436 99.2904 21.9279C99.0188 22.4966 98.7317 22.9663 98.4293 23.3372C98.1268 23.7081 97.823 24.0013 97.5178 24.2167C97.2125 24.4321 96.912 24.5823 96.6161 24.6673C96.3183 24.7563 96.0382 24.8031 95.7759 24.8078C95.5135 24.8125 95.2749 24.7876 95.0601 24.7332C94.8474 24.6845 94.6694 24.6284 94.5264 24.5649L94.5769 24.2928C94.7077 24.3215 94.8361 24.3299 94.9623 24.3179C95.0923 24.3078 95.2257 24.2656 95.3624 24.1912C95.4991 24.1168 95.64 24.0084 95.7852 23.8658C95.9323 23.7193 96.0901 23.525 96.2588 23.2828C96.4314 23.0426 96.6127 22.7487 96.8029 22.4012C96.9988 22.0517 97.211 21.6377 97.4396 21.1593Z" fill="black"/>
<path d="M127.349 50.0904C128.011 50.2447 128.601 50.3899 129.12 50.5261C129.641 50.6664 130.099 50.8033 130.495 50.9368C130.894 51.0688 131.238 51.2018 131.526 51.336C131.816 51.4742 132.062 51.6204 132.264 51.7747C132.472 51.9314 132.643 52.1005 132.776 52.2822C132.909 52.4638 133.02 52.6661 133.109 52.889C133.32 53.4198 133.255 53.753 132.915 53.8884C132.87 53.9061 132.816 53.923 132.752 53.9391C132.688 53.9552 132.623 53.9624 132.557 53.9606C132.492 53.9629 132.431 53.9519 132.374 53.9275C132.318 53.9031 132.277 53.8605 132.253 53.7997C132.235 53.7551 132.237 53.6936 132.257 53.6151C132.279 53.5406 132.301 53.4544 132.323 53.3564C132.349 53.2569 132.364 53.1476 132.369 53.0285C132.377 52.9079 132.356 52.7847 132.306 52.6591C132.251 52.5213 132.132 52.3859 131.947 52.2527C131.765 52.1236 131.535 51.9944 131.258 51.8651C130.983 51.7399 130.671 51.6174 130.323 51.4978C129.981 51.3805 129.621 51.2656 129.243 51.1532C128.099 52.3124 127.11 53.3253 126.277 54.1919C125.445 55.0626 124.771 55.8214 124.254 56.4683C123.742 57.1177 123.389 57.6689 123.194 58.1221C122.999 58.5753 122.966 58.966 123.097 59.2942C123.119 59.3509 123.15 59.4044 123.189 59.4547C123.228 59.505 123.266 59.5484 123.304 59.5849C123.345 59.6295 123.393 59.6717 123.446 59.7115L123.26 59.9335C123.192 59.8807 123.105 59.8048 123 59.7058C122.897 59.6109 122.787 59.49 122.673 59.3432C122.556 59.2021 122.439 59.0395 122.324 58.8554C122.208 58.6714 122.105 58.4659 122.015 58.239C121.891 57.9269 121.824 57.6179 121.815 57.3117C121.806 57.0056 121.86 56.6813 121.977 56.339C122.092 56.0023 122.277 55.6402 122.531 55.2528C122.783 54.871 123.109 54.4456 123.509 53.9766C123.911 53.5117 124.389 52.9975 124.944 52.4341C125.499 51.8706 126.141 51.2422 126.869 50.5487L126.431 50.4555L122.68 51.9476C122.368 52.0718 122.108 52.079 121.9 51.9693C121.694 51.8636 121.524 51.6426 121.39 51.3062C121.255 50.9659 121.226 50.6864 121.303 50.4679C121.381 50.2494 121.575 50.078 121.887 49.9539L129.206 47.0423C129.295 47.0068 129.362 46.9685 129.406 46.9273C129.451 46.886 129.48 46.8415 129.494 46.7938C129.512 46.7444 129.514 46.6918 129.502 46.6359C129.494 46.5824 129.479 46.5253 129.455 46.4645C129.419 46.3754 129.361 46.2696 129.279 46.1471C129.199 46.0287 129.102 45.9079 128.987 45.7846C128.872 45.6613 128.742 45.5416 128.598 45.4255C128.458 45.3119 128.313 45.2172 128.161 45.1416C128.01 45.0701 127.856 45.0236 127.697 45.0023C127.538 44.9809 127.384 45.0001 127.234 45.0597C127.104 45.1113 127.007 45.1687 126.943 45.2317C126.881 45.2988 126.838 45.3627 126.815 45.4234C126.797 45.4825 126.79 45.5367 126.796 45.5861C126.807 45.638 126.817 45.6741 126.825 45.6943C126.865 45.7956 126.914 45.8722 126.972 45.9242C127.035 45.9745 127.095 46.0188 127.152 46.0569C127.214 46.0935 127.269 46.1276 127.319 46.1593C127.375 46.1934 127.415 46.2409 127.439 46.3016C127.459 46.3503 127.467 46.4058 127.463 46.4681C127.466 46.5329 127.451 46.5973 127.421 46.6612C127.391 46.7291 127.343 46.7955 127.274 46.8601C127.21 46.9232 127.122 46.9773 127.008 47.0224C126.846 47.0869 126.693 47.1101 126.55 47.092C126.408 47.078 126.277 47.0364 126.155 46.9674C126.04 46.9008 125.936 46.8107 125.844 46.6971C125.757 46.586 125.689 46.4676 125.639 46.342C125.562 46.1475 125.524 45.9583 125.526 45.7745C125.534 45.5931 125.574 45.4243 125.648 45.2682C125.722 45.112 125.827 44.9741 125.963 44.8545C126.098 44.7349 126.255 44.6396 126.433 44.5687C126.713 44.4575 126.988 44.4065 127.26 44.416C127.535 44.4238 127.8 44.4777 128.056 44.5778C128.313 44.6819 128.558 44.8241 128.789 45.0043C129.026 45.187 129.246 45.3975 129.449 45.636C129.652 45.8745 129.835 46.1348 129.999 46.4169C130.167 46.6975 130.31 46.9876 130.43 47.2875C130.562 47.6198 130.632 47.89 130.64 48.0982C130.653 48.3087 130.632 48.4743 130.577 48.5949C130.523 48.7195 130.451 48.8093 130.36 48.8642C130.269 48.9191 130.191 48.9594 130.126 48.9852L127.349 50.0904Z" fill="black"/>
<path d="M126.994 58.6283C126.858 58.6604 126.715 58.7145 126.563 58.7906C126.417 58.87 126.273 58.9667 126.13 59.0809C125.988 59.195 125.855 59.3246 125.733 59.4696C125.617 59.6178 125.518 59.7772 125.438 59.948C125.359 60.123 125.307 60.3073 125.282 60.5008C125.256 60.6944 125.268 60.8968 125.318 61.1081C125.353 61.2561 125.403 61.3894 125.467 61.5082C125.531 61.627 125.605 61.7343 125.69 61.8302C125.776 61.926 125.868 62.0156 125.969 62.099C126.073 62.1814 126.181 62.2628 126.294 62.3432L126.18 62.5378C126.026 62.4717 125.852 62.381 125.66 62.266C125.467 62.1509 125.276 62.0021 125.085 61.8196C124.899 61.6361 124.725 61.4117 124.564 61.1464C124.407 60.88 124.285 60.563 124.198 60.1953C124.111 59.8276 124.091 59.4528 124.139 59.0709C124.192 58.6922 124.32 58.3361 124.522 58.0025C124.724 57.6688 125.004 57.3725 125.362 57.1134C125.721 56.8586 126.167 56.6681 126.7 56.5418C127.085 56.4506 127.449 56.4155 127.793 56.4366C128.137 56.4576 128.458 56.52 128.755 56.6237C129.053 56.7316 129.325 56.8724 129.572 57.0461C129.819 57.224 130.035 57.4205 130.22 57.6356C130.409 57.8497 130.566 58.076 130.689 58.3146C130.818 58.5563 130.911 58.7956 130.967 59.0323C131.041 59.345 131.072 59.6257 131.059 59.8742C131.047 60.1226 131.001 60.3365 130.923 60.5157C130.846 60.6992 130.741 60.847 130.607 60.9591C130.477 61.0703 130.329 61.1454 130.165 61.1845C129.966 61.2316 129.773 61.2171 129.585 61.1411C129.402 61.064 129.228 60.9445 129.065 60.7823L126.994 58.6283ZM128.583 59.5975C128.63 59.6444 128.672 59.6813 128.71 59.7081C128.752 59.7381 128.797 59.7587 128.845 59.7698C128.896 59.7799 128.955 59.7816 129.02 59.7751C129.091 59.7717 129.175 59.7585 129.272 59.7355C129.378 59.7104 129.491 59.6702 129.612 59.6147C129.738 59.5625 129.851 59.4954 129.952 59.4134C130.053 59.3314 130.132 59.2391 130.188 59.1366C130.244 59.034 130.258 58.9235 130.23 58.8052C130.194 58.653 130.116 58.533 129.997 58.4452C129.883 58.3606 129.746 58.2994 129.585 58.2616C129.426 58.2281 129.248 58.2122 129.052 58.214C128.861 58.2191 128.67 58.2331 128.479 58.2561C128.288 58.279 128.105 58.3089 127.931 58.3458C127.761 58.3817 127.617 58.4136 127.499 58.4417L128.583 59.5975Z" fill="black"/>
<path d="M131.42 64.7213C131.407 64.6221 131.382 64.5289 131.344 64.4417C131.307 64.3589 131.253 64.2869 131.184 64.2258C131.119 64.1641 131.038 64.1198 130.943 64.0929C130.851 64.0654 130.745 64.0596 130.624 64.0755C130.456 64.0975 130.296 64.18 130.143 64.3229C129.996 64.4695 129.843 64.6453 129.686 64.8503C129.534 65.059 129.374 65.2818 129.208 65.5187C129.046 65.7593 128.87 65.9843 128.678 66.1938C128.491 66.4071 128.284 66.5899 128.059 66.7424C127.833 66.8993 127.583 66.9958 127.307 67.032C127.005 67.0717 126.726 67.0556 126.471 66.9838C126.221 66.9157 125.999 66.7979 125.806 66.6302C125.618 66.4662 125.459 66.2567 125.328 66.0017C125.203 65.7462 125.114 65.455 125.062 65.1283L124.596 65.0843C124.632 65.356 124.63 65.5954 124.591 65.8023C124.553 66.0136 124.489 66.1931 124.399 66.341C124.309 66.4889 124.201 66.604 124.076 66.6862C123.947 66.7734 123.811 66.8263 123.669 66.845C123.405 66.8795 123.181 66.8542 122.994 66.769C122.808 66.6882 122.654 66.5701 122.533 66.4149C122.408 66.2646 122.313 66.0928 122.248 65.8994C122.179 65.7067 122.132 65.5197 122.108 65.3385C122.085 65.1617 122.078 64.9936 122.088 64.8343C122.098 64.6751 122.118 64.5276 122.149 64.392C122.18 64.2607 122.217 64.1417 122.26 64.0351C122.303 63.9286 122.346 63.8395 122.389 63.768L122.618 63.8564C122.546 64.0458 122.503 64.2357 122.489 64.4263C122.471 64.6218 122.478 64.8095 122.51 64.9896C122.56 65.2683 122.661 65.4854 122.813 65.6409C122.965 65.8008 123.184 65.862 123.469 65.8247C123.641 65.802 123.782 65.7507 123.89 65.6707C123.993 65.5912 124.073 65.4931 124.127 65.3762C124.178 65.2641 124.21 65.1393 124.223 65.0016C124.236 64.8639 124.235 64.7279 124.222 64.5936L125.031 64.6849C125.028 64.4351 125.057 64.201 125.116 63.9826C125.18 63.7679 125.26 63.5732 125.355 63.3983C125.451 63.2277 125.552 63.0762 125.658 62.9439C125.768 62.8153 125.868 62.7122 125.959 62.6344L126.151 62.8396C126.093 62.9042 126.032 62.9847 125.965 63.0812C125.903 63.1771 125.847 63.2811 125.796 63.3931C125.745 63.5094 125.706 63.6308 125.679 63.7573C125.656 63.8832 125.653 64.0087 125.669 64.1338C125.71 64.4443 125.817 64.6892 125.989 64.8684C126.166 65.047 126.401 65.117 126.695 65.0785C126.859 65.057 127.02 64.981 127.178 64.8505C127.341 64.7194 127.504 64.5597 127.668 64.3715C127.832 64.1832 128.001 63.9811 128.174 63.7653C128.348 63.5494 128.53 63.3456 128.72 63.154C128.909 62.9623 129.109 62.7978 129.32 62.6605C129.53 62.5232 129.756 62.4387 129.997 62.407C130.269 62.3713 130.513 62.394 130.73 62.4753C130.948 62.5608 131.135 62.6854 131.293 62.849C131.451 63.0169 131.577 63.2131 131.673 63.4376C131.773 63.6657 131.839 63.9049 131.872 64.1551C131.91 64.4441 131.919 64.7107 131.898 64.9547C131.878 65.1988 131.824 65.412 131.739 65.5944C131.658 65.7805 131.543 65.9294 131.396 66.0409C131.249 66.1568 131.069 66.2286 130.858 66.2564C130.694 66.2779 130.545 66.2427 130.41 66.1507C130.275 66.0587 130.195 65.9156 130.169 65.7215C130.145 65.536 130.165 65.3886 130.229 65.2792C130.299 65.1735 130.403 65.1116 130.541 65.0935C130.631 65.0816 130.705 65.0938 130.763 65.1302C130.821 65.1708 130.869 65.2172 130.906 65.2693C130.948 65.3209 130.983 65.3668 131.01 65.4071C131.042 65.4511 131.077 65.4706 131.116 65.4655C131.237 65.4497 131.323 65.3725 131.375 65.234C131.432 65.095 131.447 64.9241 131.42 64.7213Z" fill="black"/>
<path d="M135.357 71.0594C135.352 70.9376 135.321 70.8233 135.264 70.7168C135.207 70.6103 135.118 70.5183 134.996 70.4407C134.88 70.3673 134.731 70.3106 134.551 70.2706C134.37 70.2306 134.154 70.2161 133.901 70.2272L132.295 70.2979L132.358 71.7279L131.888 71.7486L131.825 70.3186L126.679 70.5451C126.087 70.5711 125.538 70.5168 125.03 70.3821C124.523 70.2518 124.082 70.0379 123.706 69.7404C123.327 69.443 123.025 69.0638 122.799 68.6027C122.574 68.1416 122.448 67.5976 122.42 66.9707C122.41 66.7487 122.42 66.5346 122.451 66.3283C122.476 66.1221 122.519 65.9393 122.577 65.7797C122.635 65.6201 122.708 65.4926 122.796 65.3972C122.879 65.2976 122.974 65.2454 123.083 65.2406C123.162 65.2371 123.243 65.2445 123.326 65.2626C123.406 65.2809 123.479 65.3104 123.546 65.351C123.613 65.3917 123.67 65.4437 123.716 65.5071C123.758 65.5663 123.781 65.6373 123.785 65.72C123.787 65.7679 123.765 65.8125 123.719 65.8537C123.672 65.8907 123.615 65.9303 123.547 65.9725C123.479 66.0148 123.405 66.0638 123.325 66.1197C123.24 66.1714 123.164 66.238 123.098 66.3194C123.032 66.4008 122.977 66.5013 122.935 66.621C122.892 66.7363 122.874 66.8766 122.881 67.042C122.891 67.264 122.945 67.4579 123.044 67.6237C123.139 67.7896 123.267 67.9301 123.429 68.0451C123.591 68.16 123.781 68.2542 123.998 68.3275C124.215 68.4008 124.446 68.4561 124.692 68.4932C124.938 68.5304 125.194 68.5518 125.46 68.5576C125.727 68.5676 125.993 68.5668 126.258 68.5551L131.736 68.314L131.684 67.1126L132.154 67.0919L132.207 68.2933L132.971 68.2597C133.354 68.2429 133.689 68.2739 133.976 68.3529C134.267 68.436 134.516 68.5493 134.723 68.6929C134.93 68.8408 135.101 69.0099 135.236 69.2002C135.371 69.3906 135.48 69.5842 135.563 69.7812C135.646 69.9825 135.705 70.1784 135.739 70.3688C135.774 70.5592 135.794 70.7262 135.8 70.8698C135.814 71.1789 135.802 71.4542 135.765 71.6957C135.732 71.9371 135.68 72.14 135.608 72.3045C135.542 72.4688 135.46 72.5945 135.363 72.6817C135.267 72.7688 135.166 72.8146 135.062 72.8192C134.984 72.8227 134.902 72.8132 134.819 72.7907C134.739 72.7724 134.664 72.743 134.592 72.7025C134.525 72.6618 134.468 72.6098 134.422 72.5464C134.38 72.4872 134.357 72.4184 134.354 72.3401C134.352 72.2922 134.376 72.2475 134.427 72.206C134.477 72.1646 134.54 72.1203 134.617 72.0734C134.693 72.0264 134.776 71.9748 134.865 71.9185C134.954 71.8622 135.036 71.7932 135.111 71.7114C135.186 71.634 135.248 71.5418 135.295 71.4351C135.343 71.3283 135.364 71.2031 135.357 71.0594Z" fill="black"/>
<path d="M130.502 74.2379C130.363 74.2315 130.21 74.2441 130.042 74.2757C129.879 74.3119 129.713 74.3653 129.544 74.4361C129.375 74.5069 129.212 74.5954 129.055 74.7016C128.901 74.8123 128.762 74.939 128.638 75.0816C128.514 75.2286 128.412 75.3919 128.334 75.5715C128.256 75.7512 128.212 75.9498 128.202 76.1674C128.195 76.3198 128.206 76.462 128.235 76.5942C128.264 76.7264 128.306 76.8504 128.362 76.9664C128.418 77.0824 128.483 77.1944 128.556 77.3024C128.634 77.4107 128.716 77.5191 128.803 77.6278L128.639 77.7838C128.508 77.6775 128.366 77.5424 128.212 77.3783C128.059 77.2142 127.915 77.0179 127.781 76.7893C127.652 76.561 127.547 76.2966 127.464 75.9962C127.387 75.6961 127.356 75.3567 127.374 74.978C127.391 74.5993 127.475 74.2324 127.627 73.8773C127.782 73.5267 128.004 73.2184 128.291 72.9524C128.578 72.6864 128.93 72.4779 129.347 72.3268C129.763 72.1802 130.246 72.1194 130.794 72.1445C131.19 72.1626 131.552 72.2293 131.878 72.3445C132.204 72.4598 132.496 72.6083 132.754 72.7903C133.011 72.9765 133.235 73.1874 133.425 73.4229C133.615 73.6628 133.769 73.9119 133.888 74.1703C134.011 74.429 134.1 74.6904 134.153 74.9545C134.21 75.2232 134.234 75.4794 134.223 75.7232C134.208 76.0453 134.16 76.3244 134.079 76.5607C133.999 76.7969 133.896 76.9906 133.772 77.142C133.647 77.2976 133.504 77.4111 133.344 77.4822C133.188 77.5536 133.025 77.5854 132.855 77.5777C132.651 77.5683 132.468 77.5011 132.308 77.376C132.153 77.2511 132.018 77.0879 131.905 76.8865L130.502 74.2379ZM131.768 75.6109C131.8 75.669 131.83 75.7162 131.859 75.7524C131.892 75.7932 131.93 75.8255 131.973 75.8492C132.019 75.8732 132.075 75.891 132.14 75.9027C132.209 75.9189 132.294 75.9294 132.394 75.9339C132.503 75.9389 132.623 75.9313 132.755 75.9112C132.891 75.8956 133.019 75.8622 133.139 75.811C133.259 75.7598 133.36 75.6925 133.443 75.609C133.525 75.5255 133.569 75.4228 133.574 75.301C133.582 75.1443 133.54 75.0071 133.449 74.8896C133.363 74.7766 133.247 74.6797 133.103 74.5989C132.958 74.5225 132.791 74.4582 132.601 74.4059C132.416 74.3581 132.228 74.319 132.037 74.2885C131.847 74.258 131.663 74.2364 131.484 74.2239C131.31 74.2116 131.162 74.2026 131.041 74.1971L131.768 75.6109Z" fill="black"/>
<path d="M128.253 82.2675C128.301 82.2752 128.395 82.2906 128.537 82.3137C128.683 82.3375 128.85 82.3601 129.036 82.3816C129.227 82.4038 129.429 82.4213 129.643 82.434C129.857 82.4468 130.059 82.4443 130.247 82.4263C130.397 82.3448 130.534 82.2479 130.659 82.1357C130.786 82.0285 130.866 81.8759 130.899 81.6781C130.953 81.3426 130.774 81.0597 130.361 80.8292C129.948 80.603 129.281 80.415 128.36 80.2653C127.956 80.1995 127.583 80.1566 127.242 80.1364C126.901 80.1205 126.603 80.1296 126.351 80.1635C126.097 80.2017 125.894 80.2681 125.742 80.3625C125.589 80.4612 125.5 80.5923 125.473 80.7557C125.361 81.4439 126.288 81.9478 128.253 82.2675ZM131.104 82.6519C131.548 82.6401 131.966 82.5912 132.36 82.5052C132.758 82.4198 133.109 82.296 133.414 82.1336C133.717 81.9755 133.968 81.7779 134.166 81.5408C134.362 81.3079 134.485 81.041 134.534 80.7399C134.562 80.5679 134.566 80.4074 134.546 80.2585C134.526 80.1139 134.494 79.9851 134.45 79.872C134.411 79.7597 134.369 79.6646 134.325 79.5867C134.283 79.5138 134.252 79.4602 134.231 79.4259L134.485 79.2949C134.601 79.4198 134.706 79.5648 134.798 79.7299C134.889 79.8993 134.962 80.0789 135.015 80.2685C135.068 80.4581 135.102 80.6535 135.118 80.8548C135.133 81.0603 135.125 81.2598 135.094 81.4534C134.99 82.0899 134.759 82.6262 134.401 83.0624C134.048 83.4993 133.591 83.8378 133.031 84.0778C132.471 84.3178 131.819 84.4611 131.074 84.5077C130.329 84.5543 129.518 84.5062 128.641 84.3635C127.931 84.248 127.319 84.0735 126.806 83.8398C126.291 83.6104 125.873 83.3326 125.55 83.0065C125.233 82.6811 125.012 82.312 124.89 81.8991C124.771 81.4913 124.75 81.0487 124.828 80.5713C124.881 80.2401 124.994 79.912 125.167 79.5868C125.342 79.2666 125.586 78.9884 125.898 78.7523C126.21 78.5204 126.595 78.3513 127.054 78.2449C127.517 78.1393 128.062 78.1375 128.69 78.2397C129.232 78.3278 129.701 78.4814 130.098 78.7005C130.495 78.9239 130.816 79.1881 131.062 79.493C131.312 79.7986 131.485 80.1335 131.581 80.4978C131.68 80.8627 131.699 81.2344 131.638 81.6129C131.614 81.7591 131.579 81.8882 131.535 82.0001C131.494 82.1128 131.45 82.2093 131.402 82.2897C131.353 82.3701 131.302 82.4391 131.249 82.4966C131.2 82.5548 131.151 82.6066 131.104 82.6519Z" fill="black"/>
<path d="M124.209 86.7773C124.154 86.7631 124.089 86.7351 124.014 86.6933C123.943 86.6568 123.88 86.5933 123.827 86.503C123.777 86.4179 123.745 86.3039 123.733 86.1609C123.716 86.0168 123.736 85.8327 123.794 85.6087C123.851 85.3847 123.924 85.2164 124.012 85.1038C124.095 84.99 124.181 84.9107 124.269 84.8658C124.357 84.821 124.442 84.7999 124.522 84.8026C124.601 84.8095 124.664 84.819 124.711 84.8309L129.605 86.0924C129.728 86.124 129.841 86.1216 129.945 86.0853C130.052 86.0543 130.123 85.9712 130.158 85.836C130.177 85.7641 130.18 85.6996 130.167 85.6423C130.155 85.5851 130.133 85.5209 130.102 85.4497L130.295 85.3574C130.35 85.4753 130.401 85.6032 130.446 85.7412C130.495 85.8845 130.531 86.0335 130.554 86.1882C130.577 86.3429 130.587 86.5055 130.584 86.6759C130.58 86.8463 130.556 87.0203 130.51 87.1978C130.439 87.4725 130.346 87.6762 130.231 87.8087C130.12 87.9423 130 88.0309 129.872 88.0745C129.748 88.1191 129.623 88.1319 129.497 88.113C129.37 88.0983 129.26 88.079 129.167 88.055L124.209 86.7773ZM132.217 86.556C132.335 86.5865 132.441 86.6407 132.534 86.7186C132.629 86.8019 132.705 86.9004 132.762 87.0141C132.817 87.132 132.852 87.2582 132.867 87.3928C132.881 87.5315 132.869 87.6749 132.83 87.8228C132.793 87.9665 132.736 88.0937 132.658 88.2043C132.579 88.3191 132.487 88.4126 132.383 88.4849C132.278 88.5572 132.165 88.6045 132.042 88.6269C131.922 88.6546 131.803 88.6533 131.684 88.6228C131.562 88.5912 131.455 88.5343 131.363 88.4521C131.271 88.3742 131.196 88.2783 131.14 88.1647C131.088 88.0521 131.055 87.9264 131.041 87.7876C131.026 87.653 131.037 87.5139 131.074 87.3702C131.112 87.2223 131.171 87.0909 131.25 86.9761C131.328 86.8655 131.418 86.7714 131.519 86.6938C131.623 86.6215 131.735 86.5715 131.855 86.5438C131.974 86.5203 132.095 86.5244 132.217 86.556Z" fill="black"/>
<path d="M124.994 92.7036C125.509 92.8936 125.929 93.0205 126.254 93.0845C126.581 93.1541 126.839 93.1795 127.027 93.1606C127.219 93.1432 127.357 93.0966 127.441 93.0206C127.529 92.9462 127.591 92.8599 127.627 92.7618C127.67 92.6432 127.677 92.5249 127.646 92.4067C127.618 92.2942 127.576 92.1881 127.52 92.0884C127.462 91.9929 127.401 91.9055 127.338 91.8263C127.273 91.7512 127.226 91.6897 127.197 91.6419L123.1 90.1315C123.047 90.1119 122.985 90.0796 122.913 90.0346C122.846 89.9911 122.789 89.9239 122.744 89.8328C122.701 89.7474 122.68 89.633 122.682 89.4897C122.678 89.349 122.716 89.1703 122.796 88.9536C122.876 88.7369 122.966 88.575 123.066 88.4679C123.16 88.3633 123.254 88.2911 123.348 88.2513C123.441 88.2116 123.528 88.1971 123.608 88.2078C123.687 88.2186 123.75 88.2323 123.795 88.2489L128.529 89.9945C128.647 90.0382 128.76 90.0472 128.867 90.0217C128.977 90.0017 129.055 89.9263 129.104 89.7955C129.129 89.726 129.139 89.6622 129.132 89.604C129.126 89.5459 129.111 89.48 129.087 89.4062L129.288 89.3339C129.331 89.4566 129.368 89.5887 129.399 89.7303C129.433 89.8775 129.454 90.0291 129.462 90.1852C129.469 90.3412 129.463 90.5036 129.442 90.6726C129.422 90.8415 129.38 91.0118 129.316 91.1835C129.218 91.4492 129.097 91.6391 128.953 91.7531C128.813 91.8686 128.669 91.9385 128.52 91.9628C128.372 91.9871 128.228 91.9805 128.089 91.943C127.952 91.9111 127.839 91.8786 127.749 91.8454C127.91 92.0766 128.04 92.3199 128.141 92.5754C128.186 92.6802 128.226 92.7924 128.261 92.9121C128.294 93.0358 128.318 93.1606 128.332 93.2865C128.348 93.418 128.351 93.549 128.34 93.6797C128.328 93.8144 128.298 93.9451 128.251 94.0718C128.149 94.3498 128.005 94.5755 127.821 94.7489C127.634 94.9264 127.389 95.0427 127.086 95.098C126.782 95.1532 126.41 95.1435 125.968 95.0689C125.531 94.9959 125.007 94.847 124.398 94.6224C123.805 94.4039 123.31 94.1608 122.912 93.8932C122.513 93.6256 122.193 93.3494 121.949 93.0647C121.706 92.7799 121.528 92.4938 121.416 92.2062C121.3 91.9172 121.227 91.642 121.198 91.3805C121.169 91.119 121.172 90.8786 121.206 90.6591C121.235 90.4422 121.275 90.2594 121.325 90.1107L121.601 90.1359C121.584 90.2691 121.588 90.3982 121.612 90.523C121.634 90.6519 121.688 90.7811 121.775 90.9107C121.862 91.0402 121.983 91.1709 122.139 91.3026C122.299 91.4359 122.508 91.5755 122.765 91.7215C123.021 91.8715 123.331 92.0253 123.695 92.183C124.062 92.3462 124.495 92.5197 124.994 92.7036Z" fill="black"/>
<path d="M93.0656 127.653C92.9009 128.312 92.7464 128.899 92.602 129.416C92.4536 129.933 92.3095 130.389 92.1698 130.782C92.0316 131.179 91.8932 131.521 91.7546 131.806C91.6119 132.094 91.4619 132.337 91.3046 132.536C91.1447 132.741 90.973 132.909 90.7894 133.039C90.6058 133.17 90.402 133.277 90.1779 133.362C89.6443 133.565 89.3125 133.495 89.1827 133.153C89.1656 133.108 89.1496 133.053 89.1346 132.989C89.1195 132.925 89.1134 132.86 89.1162 132.794C89.115 132.729 89.127 132.668 89.1522 132.612C89.1775 132.556 89.2207 132.516 89.2818 132.493C89.3266 132.476 89.3881 132.478 89.4662 132.5C89.5402 132.523 89.626 132.546 89.7235 132.57C89.8226 132.598 89.9315 132.615 90.0504 132.621C90.1707 132.631 90.2941 132.612 90.4204 132.564C90.5589 132.512 90.6961 132.394 90.8321 132.212C90.964 132.032 91.0967 131.804 91.2303 131.53C91.3598 131.257 91.4871 130.948 91.6122 130.602C91.7348 130.262 91.8553 129.904 91.9737 129.528C90.8339 128.367 89.8378 127.363 88.9854 126.517C88.1288 125.672 87.3816 124.986 86.7436 124.459C86.103 123.938 85.558 123.576 85.1084 123.374C84.6588 123.172 84.269 123.133 83.9391 123.258C83.882 123.28 83.8281 123.31 83.7772 123.348C83.7264 123.386 83.6824 123.423 83.6453 123.461C83.6001 123.501 83.5572 123.548 83.5166 123.601L83.2978 123.411C83.3516 123.344 83.4288 123.259 83.5294 123.155C83.6259 123.053 83.7484 122.946 83.8969 122.834C84.0397 122.719 84.204 122.606 84.3897 122.493C84.5754 122.381 84.7823 122.281 85.0105 122.195C85.3242 122.076 85.634 122.014 85.94 122.01C86.2459 122.006 86.569 122.065 86.9091 122.187C87.2436 122.307 87.6024 122.498 87.9854 122.758C88.3627 123.015 88.7825 123.348 89.2446 123.755C89.7026 124.164 90.2087 124.65 90.7627 125.213C91.3167 125.776 91.9343 126.428 92.6154 127.166L92.7155 126.73L91.2847 122.96C91.1657 122.646 91.1627 122.386 91.2756 122.18C91.3844 121.976 91.6079 121.809 91.946 121.681C92.2882 121.551 92.5679 121.527 92.7849 121.607C93.002 121.688 93.17 121.885 93.2891 122.199L96.0809 129.556C96.1149 129.646 96.1522 129.714 96.1926 129.759C96.2331 129.804 96.2771 129.834 96.3246 129.849C96.3736 129.867 96.4261 129.871 96.4822 129.859C96.5357 129.852 96.593 129.838 96.6541 129.814C96.7438 129.78 96.8504 129.724 96.974 129.644C97.0935 129.566 97.2158 129.471 97.3408 129.358C97.4659 129.245 97.5875 129.118 97.7058 128.975C97.8215 128.838 97.9183 128.694 97.9963 128.543C98.0702 128.394 98.119 128.24 98.1429 128.082C98.1668 127.924 98.1501 127.769 98.0929 127.619C98.0434 127.488 97.9877 127.391 97.9257 127.325C97.8597 127.262 97.7966 127.218 97.7363 127.195C97.6776 127.175 97.6235 127.168 97.574 127.172C97.522 127.183 97.4859 127.192 97.4655 127.2C97.3637 127.238 97.2863 127.286 97.2335 127.343C97.1822 127.405 97.1371 127.464 97.098 127.521C97.0605 127.582 97.0256 127.637 96.9931 127.686C96.9581 127.742 96.9101 127.781 96.849 127.804C96.8001 127.823 96.7446 127.83 96.6823 127.825C96.6176 127.827 96.5535 127.811 96.4901 127.779C96.4227 127.749 96.3572 127.699 96.2937 127.63C96.2318 127.565 96.1791 127.476 96.1358 127.362C96.074 127.199 96.0533 127.046 96.0736 126.903C96.0899 126.761 96.1335 126.631 96.2044 126.511C96.2728 126.396 96.3645 126.294 96.4794 126.204C96.5918 126.119 96.7111 126.053 96.8374 126.005C97.0329 125.931 97.2225 125.896 97.4061 125.901C97.5872 125.911 97.7552 125.955 97.91 126.031C98.0648 126.108 98.2009 126.214 98.3182 126.352C98.4355 126.489 98.5282 126.647 98.5962 126.826C98.7029 127.107 98.7493 127.383 98.7356 127.654C98.7234 127.929 98.6653 128.194 98.5612 128.448C98.4531 128.703 98.3072 128.945 98.1234 129.173C97.9372 129.407 97.7233 129.623 97.4819 129.822C97.2404 130.021 96.9774 130.2 96.693 130.359C96.4101 130.522 96.1179 130.661 95.8164 130.775C95.4824 130.902 95.2113 130.968 95.0033 130.972C94.7927 130.982 94.6276 130.958 94.508 130.901C94.3844 130.846 94.2959 130.772 94.2425 130.681C94.1891 130.589 94.15 130.511 94.1253 130.445L93.0656 127.653Z" fill="black"/>
<path d="M84.5194 127.231C84.4901 127.095 84.4388 126.95 84.3656 126.796C84.2891 126.648 84.1951 126.501 84.0836 126.355C83.972 126.21 83.8449 126.075 83.702 125.95C83.5558 125.83 83.3979 125.728 83.2283 125.644C83.0545 125.561 82.8708 125.505 82.6772 125.475C82.4836 125.445 82.2803 125.453 82.0673 125.499C81.9183 125.531 81.7835 125.578 81.663 125.64C81.5426 125.701 81.4334 125.774 81.3355 125.857C81.2376 125.941 81.1458 126.032 81.06 126.131C80.9752 126.234 80.8913 126.341 80.8084 126.452L80.6156 126.333C80.6851 126.18 80.7796 126.008 80.899 125.818C81.0185 125.627 81.1717 125.438 81.3586 125.251C81.5465 125.068 81.7752 124.898 82.0447 124.742C82.3151 124.59 82.6356 124.474 83.0062 124.395C83.3768 124.315 83.7531 124.303 84.1351 124.359C84.5137 124.42 84.8682 124.555 85.1986 124.765C85.529 124.975 85.8204 125.262 86.0727 125.626C86.3208 125.992 86.5026 126.443 86.6181 126.98C86.7016 127.367 86.7292 127.734 86.7009 128.078C86.6726 128.423 86.6034 128.744 86.4932 129.039C86.3788 129.336 86.2319 129.606 86.0526 129.849C85.869 130.094 85.6674 130.307 85.4479 130.488C85.2293 130.673 84.999 130.825 84.7572 130.944C84.512 131.068 84.2702 131.156 84.0316 131.207C83.7164 131.275 83.4343 131.3 83.1854 131.282C82.9364 131.265 82.7229 131.215 82.5448 131.133C82.3624 131.052 82.2164 130.943 82.1067 130.806C81.9979 130.673 81.9257 130.524 81.8899 130.358C81.8468 130.158 81.8653 129.964 81.9455 129.778C82.0266 129.595 82.1501 129.424 82.3161 129.263L84.5194 127.231ZM83.5144 128.805C83.4664 128.851 83.4285 128.892 83.4009 128.929C83.3699 128.972 83.3483 129.016 83.3362 129.064C83.325 129.115 83.322 129.174 83.3272 129.239C83.3291 129.31 83.3406 129.395 83.3617 129.493C83.3846 129.599 83.4226 129.714 83.4757 129.836C83.5254 129.963 83.5903 130.079 83.6705 130.182C83.7506 130.285 83.8415 130.366 83.9432 130.424C84.0449 130.482 84.1554 130.499 84.2747 130.473C84.428 130.44 84.55 130.365 84.6406 130.247C84.7278 130.135 84.7921 129.998 84.8333 129.838C84.8703 129.678 84.8899 129.5 84.8921 129.304C84.891 129.112 84.8809 128.92 84.8619 128.728C84.8428 128.536 84.8166 128.353 84.7833 128.177C84.7509 128.006 84.7218 127.861 84.6961 127.741L83.5144 128.805Z" fill="black"/>
<path d="M78.3485 131.546C78.4481 131.535 78.5419 131.511 78.6299 131.475C78.7136 131.439 78.7867 131.387 78.8491 131.319C78.9121 131.255 78.958 131.175 78.9867 131.08C79.016 130.989 79.0238 130.883 79.0101 130.762C78.9912 130.593 78.9116 130.431 78.7714 130.275C78.6273 130.125 78.4541 129.969 78.2518 129.808C78.0457 129.651 77.8256 129.487 77.5915 129.316C77.3536 129.15 77.1316 128.969 76.9254 128.773C76.7154 128.581 76.5361 128.371 76.3876 128.143C76.2348 127.914 76.1429 127.661 76.1117 127.384C76.0777 127.081 76.099 126.803 76.1757 126.548C76.2485 126.299 76.3707 126.079 76.5422 125.889C76.7099 125.704 76.9227 125.548 77.1804 125.423C77.4387 125.302 77.7319 125.218 78.06 125.173L78.1128 124.706C77.84 124.737 77.6004 124.731 77.3939 124.688C77.1831 124.646 77.0045 124.579 76.8581 124.485C76.7117 124.392 76.5985 124.282 76.5185 124.155C76.4336 124.025 76.3832 123.888 76.3671 123.745C76.3375 123.481 76.367 123.256 76.4558 123.071C76.5403 122.886 76.6613 122.734 76.819 122.615C76.9719 122.493 77.1457 122.401 77.3405 122.34C77.5348 122.274 77.7229 122.231 77.9048 122.211C78.0823 122.191 78.2507 122.187 78.41 122.2C78.5693 122.213 78.7166 122.236 78.8518 122.269C78.9828 122.302 79.1012 122.342 79.2071 122.387C79.313 122.432 79.4014 122.477 79.4721 122.521L79.3793 122.749C79.1911 122.673 79.0017 122.627 78.8111 122.609C78.6157 122.587 78.4276 122.59 78.2467 122.619C77.9667 122.664 77.7474 122.761 77.5888 122.91C77.4259 123.06 77.3604 123.278 77.3925 123.564C77.412 123.737 77.4608 123.878 77.5389 123.988C77.6165 124.093 77.7133 124.175 77.8293 124.232C77.9405 124.285 78.065 124.319 78.2026 124.334C78.3402 124.35 78.4764 124.352 78.6111 124.341L78.5046 125.149C78.7548 125.152 78.9887 125.184 79.2062 125.248C79.42 125.316 79.6135 125.399 79.7869 125.498C79.9559 125.598 80.1056 125.701 80.2362 125.809C80.3629 125.922 80.4643 126.025 80.5404 126.117L80.3313 126.305C80.2677 126.247 80.1883 126.183 80.0929 126.115C79.998 126.051 79.895 125.992 79.7838 125.939C79.6682 125.886 79.5474 125.845 79.4213 125.815C79.2957 125.79 79.1701 125.785 79.0445 125.799C78.7328 125.834 78.4855 125.936 78.3029 126.106C78.1208 126.279 78.0462 126.514 78.0793 126.808C78.0978 126.973 78.1709 127.135 78.2986 127.296C78.4268 127.462 78.5836 127.628 78.7691 127.796C78.9545 127.964 79.1537 128.137 79.3666 128.314C79.5795 128.492 79.7801 128.678 79.9685 128.872C80.1569 129.065 80.3179 129.269 80.4514 129.482C80.585 129.695 80.6653 129.922 80.6926 130.165C80.7232 130.438 80.6959 130.682 80.6105 130.897C80.5208 131.114 80.3925 131.299 80.2257 131.454C80.0546 131.609 79.8558 131.732 79.6293 131.823C79.3989 131.919 79.1581 131.981 78.907 132.01C78.6169 132.042 78.3498 132.046 78.1059 132.021C77.8619 131.996 77.6494 131.938 77.4683 131.849C77.2834 131.765 77.1365 131.647 77.0276 131.497C76.9143 131.348 76.8458 131.167 76.822 130.955C76.8035 130.79 76.8416 130.641 76.9362 130.508C77.0308 130.374 77.1756 130.297 77.3704 130.275C77.5566 130.254 77.7039 130.277 77.8122 130.344C77.9167 130.415 77.9768 130.52 77.9923 130.659C78.0025 130.75 77.9889 130.824 77.9514 130.881C77.9097 130.938 77.8623 130.985 77.8094 131.021C77.757 131.062 77.7104 131.096 77.6695 131.123C77.6248 131.154 77.6047 131.189 77.609 131.228C77.6226 131.349 77.6983 131.437 77.836 131.492C77.9742 131.551 78.145 131.569 78.3485 131.546Z" fill="black"/>
<path d="M71.9885 135.363C72.1104 135.359 72.2251 135.33 72.3325 135.274C72.4398 135.219 72.5332 135.131 72.6125 135.011C72.6876 134.895 72.7465 134.748 72.7892 134.568C72.8319 134.388 72.8496 134.172 72.8422 133.919L72.7953 132.312L71.3646 132.353L71.3509 131.883L72.7816 131.841L72.6315 126.693C72.6143 126.101 72.6767 125.552 72.8189 125.047C72.9567 124.541 73.1772 124.103 73.4802 123.733C73.7832 123.358 74.1668 123.061 74.6313 122.842C75.0957 122.624 75.6415 122.506 76.2687 122.487C76.4908 122.481 76.7048 122.494 76.9106 122.528C77.1163 122.556 77.2985 122.601 77.4572 122.662C77.6159 122.723 77.7424 122.798 77.8365 122.886C77.9348 122.971 77.9856 123.067 77.9888 123.176C77.9911 123.255 77.9825 123.335 77.9632 123.419C77.9437 123.498 77.9131 123.571 77.8715 123.637C77.8298 123.704 77.777 123.76 77.7129 123.805C77.6531 123.846 77.5818 123.868 77.499 123.87C77.4511 123.872 77.4069 123.849 77.3663 123.802C77.33 123.756 77.2913 123.698 77.2501 123.629C77.2088 123.561 77.1609 123.486 77.1062 123.405C77.0557 123.319 76.9903 123.242 76.9099 123.175C76.8294 123.108 76.7297 123.052 76.6107 123.007C76.4961 122.962 76.356 122.943 76.1905 122.947C75.9684 122.954 75.7737 123.005 75.6065 123.102C75.4392 123.194 75.2969 123.32 75.1795 123.48C75.0621 123.641 74.9651 123.829 74.8886 124.045C74.8121 124.26 74.7534 124.491 74.7126 124.736C74.6718 124.982 74.6466 125.237 74.6369 125.504C74.6229 125.77 74.6197 126.036 74.6275 126.302L74.7873 131.783L75.9894 131.748L76.0031 132.218L74.801 132.253L74.8233 133.018C74.8345 133.401 74.7984 133.735 74.7152 134.021C74.6278 134.311 74.5108 134.559 74.3642 134.764C74.2132 134.969 74.0416 135.137 73.8493 135.269C73.657 135.401 73.4617 135.507 73.2635 135.587C73.061 135.667 72.8643 135.723 72.6734 135.755C72.4825 135.786 72.3152 135.804 72.1715 135.809C71.8622 135.818 71.5872 135.802 71.3462 135.761C71.1054 135.724 70.9033 135.669 70.7398 135.595C70.5765 135.526 70.452 135.442 70.3664 135.345C70.2807 135.247 70.2363 135.146 70.2333 135.041C70.231 134.963 70.2417 134.882 70.2654 134.798C70.2849 134.719 70.3154 134.644 70.3569 134.573C70.3986 134.507 70.4515 134.451 70.5155 134.405C70.5753 134.364 70.6445 134.343 70.7229 134.34C70.7708 134.339 70.8151 134.364 70.8558 134.415C70.8965 134.466 70.9398 134.53 70.9857 134.607C71.0315 134.684 71.0819 134.768 71.1368 134.858C71.1917 134.948 71.2595 135.031 71.3402 135.107C71.4166 135.183 71.5078 135.246 71.6138 135.295C71.7199 135.344 71.8448 135.367 71.9885 135.363Z" fill="black"/>
<path d="M69.0782 128.545C69.0867 128.406 69.0764 128.252 69.0473 128.084C69.0136 127.921 68.9626 127.754 68.8944 127.584C68.8261 127.414 68.7401 127.249 68.6363 127.09C68.5278 126.935 68.4032 126.795 68.2625 126.668C68.1174 126.542 67.9557 126.438 67.7772 126.357C67.5988 126.276 67.4008 126.229 67.1834 126.216C67.0312 126.207 66.8888 126.216 66.7562 126.243C66.6236 126.27 66.4989 126.31 66.3821 126.364C66.2653 126.418 66.1523 126.481 66.0432 126.553C65.9338 126.629 65.8241 126.71 65.7142 126.795L65.5606 126.628C65.6688 126.5 65.8061 126.359 65.9725 126.208C66.1389 126.057 66.3373 125.916 66.5678 125.786C66.7981 125.66 67.064 125.559 67.3656 125.481C67.6669 125.408 68.0068 125.382 68.3851 125.405C68.7635 125.428 69.1291 125.518 69.4819 125.675C69.8301 125.836 70.135 126.062 70.3967 126.353C70.6584 126.644 70.8616 126.999 71.0064 127.418C71.1468 127.837 71.2003 128.32 71.167 128.868C71.1429 129.264 71.0708 129.624 70.9507 129.949C70.8306 130.273 70.6776 130.563 70.4919 130.818C70.3018 131.072 70.0875 131.293 69.8492 131.479C69.6065 131.665 69.3551 131.816 69.0949 131.931C68.8345 132.051 68.5718 132.135 68.3068 132.184C68.0373 132.238 67.7808 132.257 67.5372 132.242C67.2154 132.223 66.937 132.171 66.702 132.087C66.467 132.003 66.2748 131.897 66.1254 131.77C65.9716 131.643 65.8603 131.499 65.7915 131.337C65.7225 131.18 65.6932 131.017 65.7035 130.847C65.7159 130.643 65.7859 130.462 65.9133 130.304C66.0406 130.15 66.2057 130.018 66.4088 129.908L69.0782 128.545ZM67.6864 129.789C67.6277 129.821 67.5801 129.851 67.5434 129.879C67.5022 129.911 67.4693 129.949 67.4449 129.991C67.4203 130.037 67.4016 130.093 67.389 130.158C67.3717 130.226 67.36 130.311 67.3539 130.411C67.3473 130.52 67.3531 130.64 67.3712 130.772C67.3848 130.908 67.4163 131.037 67.4657 131.158C67.5151 131.278 67.5809 131.381 67.6631 131.464C67.7453 131.548 67.8473 131.593 67.9691 131.601C68.1257 131.61 68.2634 131.571 68.3823 131.482C68.4966 131.397 68.5952 131.283 68.6781 131.14C68.7567 130.996 68.8236 130.83 68.8787 130.641C68.9292 130.456 68.9712 130.269 69.0045 130.079C69.0379 129.889 69.0622 129.705 69.0774 129.527C69.0923 129.353 69.1035 129.205 69.1109 129.084L67.6864 129.789Z" fill="black"/>
<path d="M60.8961 128.011C60.8875 128.058 60.8702 128.152 60.8443 128.293C60.8177 128.438 60.7917 128.603 60.7666 128.789C60.7406 128.978 60.7191 129.179 60.702 129.393C60.6849 129.606 60.6834 129.806 60.6974 129.994C60.7756 130.145 60.8693 130.284 60.9786 130.41C61.0828 130.54 61.2331 130.622 61.4296 130.658C61.7626 130.72 62.0482 130.547 62.2862 130.14C62.5199 129.733 62.7207 129.073 62.8885 128.159C62.9622 127.757 63.0126 127.387 63.0396 127.048C63.0624 126.708 63.0594 126.411 63.0307 126.159C62.9978 125.906 62.9358 125.702 62.8449 125.549C62.7496 125.394 62.6208 125.302 62.4586 125.272C61.7754 125.147 61.2545 126.06 60.8961 128.011ZM60.4553 130.844C60.458 131.286 60.4982 131.704 60.576 132.097C60.6529 132.496 60.7692 132.848 60.9247 133.155C61.076 133.461 61.2678 133.714 61.5 133.916C61.728 134.117 61.9914 134.244 62.2903 134.299C62.4612 134.331 62.6209 134.338 62.7697 134.321C62.9142 134.304 63.0432 134.274 63.1566 134.233C63.2693 134.197 63.3649 134.157 63.4434 134.114C63.5169 134.074 63.5709 134.045 63.6055 134.024L63.7309 134.279C63.6041 134.393 63.4575 134.494 63.2911 134.583C63.1205 134.67 62.9402 134.739 62.7502 134.788C62.5602 134.837 62.3649 134.867 62.1641 134.879C61.959 134.89 61.7604 134.877 61.5683 134.842C60.9363 134.726 60.4067 134.485 59.9794 134.12C59.5513 133.759 59.2234 133.297 58.9957 132.734C58.768 132.171 58.6385 131.519 58.6072 130.776C58.5759 130.033 58.6403 129.226 58.8003 128.355C58.9297 127.65 59.116 127.044 59.3592 126.537C59.5982 126.029 59.8834 125.618 60.2148 125.304C60.5454 124.994 60.9176 124.782 61.3314 124.668C61.7401 124.558 62.1815 124.546 62.6554 124.633C62.9842 124.694 63.3089 124.813 63.6293 124.991C63.9447 125.172 64.2168 125.421 64.4458 125.737C64.6704 126.052 64.8311 126.439 64.9277 126.898C65.0236 127.361 65.0143 127.905 64.8997 128.528C64.8009 129.066 64.6384 129.531 64.412 129.922C64.1814 130.312 63.9118 130.627 63.603 130.866C63.2935 131.109 62.9563 131.274 62.5915 131.362C62.2259 131.454 61.8553 131.465 61.4795 131.396C61.3343 131.369 61.2064 131.333 61.0958 131.286C60.9845 131.243 60.8892 131.197 60.8101 131.147C60.731 131.097 60.6633 131.045 60.6071 130.991C60.5501 130.941 60.4995 130.892 60.4553 130.844Z" fill="black"/>
<path d="M56.4365 123.948C56.4517 123.894 56.4809 123.83 56.524 123.756C56.5618 123.685 56.6263 123.624 56.7175 123.572C56.8033 123.524 56.9177 123.494 57.0607 123.484C57.2049 123.47 57.3882 123.494 57.6107 123.556C57.8332 123.618 57.9998 123.693 58.1106 123.783C58.2226 123.868 58.3001 123.955 58.3433 124.044C58.3864 124.133 58.4059 124.218 58.4017 124.298C58.3932 124.377 58.3826 124.44 58.3698 124.486L57.0188 129.347C56.985 129.469 56.9852 129.582 57.0195 129.687C57.0484 129.794 57.13 129.867 57.2644 129.904C57.3358 129.924 57.4001 129.928 57.4575 129.917C57.5149 129.906 57.5794 129.885 57.651 129.855L57.7395 130.049C57.6208 130.102 57.4921 130.15 57.3536 130.193C57.2097 130.239 57.0603 130.272 56.9054 130.293C56.7505 130.313 56.5881 130.32 56.418 130.313C56.248 130.307 56.0748 130.279 55.8985 130.23C55.6256 130.154 55.4241 130.057 55.294 129.94C55.1627 129.826 55.0765 129.705 55.0355 129.576C54.9933 129.451 54.9828 129.326 55.004 129.201C55.0211 129.075 55.0424 128.965 55.0681 128.873L56.4365 123.948ZM56.5071 131.946C56.4744 132.063 56.4183 132.167 56.3388 132.258C56.2539 132.352 56.1541 132.426 56.0396 132.48C55.9209 132.533 55.7942 132.566 55.6597 132.578C55.5209 132.59 55.378 132.575 55.2311 132.534C55.0883 132.494 54.9625 132.434 54.8536 132.354C54.7405 132.273 54.6488 132.18 54.5786 132.074C54.5084 131.969 54.4633 131.855 54.4433 131.732C54.4179 131.611 54.4215 131.493 54.4542 131.375C54.488 131.253 54.5468 131.148 54.6305 131.058C54.7101 130.967 54.8071 130.894 54.9216 130.84C55.035 130.79 55.1611 130.76 55.2998 130.749C55.4344 130.736 55.5731 130.75 55.7158 130.79C55.8627 130.83 55.9928 130.891 56.1059 130.973C56.2148 131.053 56.307 131.144 56.3826 131.246C56.4528 131.352 56.5006 131.464 56.526 131.585C56.5472 131.703 56.5409 131.824 56.5071 131.946Z" fill="black"/>
<path d="M50.4889 124.673C50.2911 125.185 50.1577 125.603 50.0887 125.926C50.0141 126.253 49.9848 126.51 50.0008 126.698C50.0153 126.891 50.0598 127.029 50.1344 127.114C50.2075 127.203 50.2928 127.266 50.3904 127.304C50.5082 127.35 50.6265 127.358 50.7451 127.329C50.8581 127.303 50.9648 127.262 51.0653 127.208C51.1617 127.151 51.25 127.092 51.3302 127.03C51.4063 126.966 51.4685 126.92 51.5167 126.891L53.0899 122.819C53.1103 122.766 53.1435 122.704 53.1896 122.633C53.2341 122.566 53.3023 122.511 53.394 122.467C53.4801 122.425 53.5948 122.406 53.738 122.41C53.8788 122.409 54.0569 122.45 54.2723 122.533C54.4877 122.616 54.6483 122.708 54.7538 122.81C54.8569 122.906 54.9277 123.001 54.966 123.095C55.0044 123.189 55.0175 123.276 55.0055 123.355C54.9935 123.435 54.9789 123.497 54.9616 123.542L53.1435 128.248C53.098 128.366 53.0872 128.479 53.1111 128.586C53.1294 128.696 53.2036 128.776 53.3337 128.826C53.4028 128.853 53.4664 128.864 53.5246 128.858C53.5828 128.853 53.649 128.838 53.7232 128.816L53.7923 129.018C53.669 129.059 53.5363 129.094 53.3943 129.123C53.2465 129.155 53.0946 129.173 52.9385 129.178C52.7824 129.183 52.6201 129.174 52.4515 129.151C52.2829 129.128 52.1132 129.084 51.9425 129.018C51.6783 128.916 51.4903 128.792 51.3786 128.646C51.2652 128.504 51.1975 128.359 51.1755 128.21C51.1535 128.061 51.1623 127.918 51.202 127.779C51.2359 127.642 51.2702 127.53 51.3047 127.44C51.0711 127.597 50.8259 127.725 50.5689 127.822C50.4634 127.865 50.3506 127.903 50.2304 127.936C50.1061 127.967 49.981 127.989 49.8549 128.001C49.7232 128.016 49.5921 128.016 49.4617 128.003C49.3272 127.989 49.1969 127.957 49.0709 127.909C48.7945 127.802 48.571 127.655 48.4005 127.467C48.2259 127.279 48.1133 127.032 48.0628 126.727C48.0122 126.423 48.0276 126.051 48.109 125.61C48.1887 125.174 48.3456 124.653 48.5795 124.047C48.8072 123.458 49.0578 122.966 49.3315 122.572C49.6052 122.178 49.8863 121.862 50.1747 121.623C50.4632 121.384 50.752 121.21 51.0412 121.103C51.332 120.991 51.6084 120.922 51.8702 120.897C52.1321 120.872 52.3725 120.879 52.5914 120.917C52.8079 120.949 52.99 120.991 53.1379 121.044L53.1084 121.319C52.9755 121.301 52.8465 121.302 52.7213 121.324C52.5921 121.344 52.462 121.397 52.3311 121.482C52.2002 121.567 52.0677 121.686 51.9336 121.84C51.7979 121.997 51.6552 122.204 51.5053 122.459C51.3513 122.712 51.1927 123.02 51.0295 123.382C50.8607 123.747 50.6805 124.177 50.4889 124.673Z" fill="black"/>
<path d="M14.9777 89.1982C14.3298 88.9877 13.7527 88.7923 13.2463 88.612C12.7387 88.4276 12.293 88.2518 11.9093 88.0847C11.5214 87.9189 11.1894 87.7567 10.9133 87.5982C10.6359 87.4355 10.4029 87.2685 10.2142 87.0973C10.0201 86.9231 9.86429 86.7397 9.74673 86.5469C9.62917 86.3542 9.53564 86.1428 9.46614 85.9128C9.30061 85.3648 9.39353 85.0377 9.7449 84.9316C9.79091 84.9177 9.84655 84.9054 9.91182 84.8949C9.9771 84.8843 10.0428 84.8827 10.1089 84.8901C10.1738 84.8933 10.2335 84.9095 10.288 84.9387C10.3424 84.9679 10.3791 85.0139 10.3981 85.0766C10.412 85.1226 10.4054 85.184 10.3784 85.2606C10.35 85.3331 10.3207 85.4173 10.2903 85.5132C10.2558 85.6103 10.2313 85.7181 10.2169 85.8366C10.1982 85.9564 10.2085 86.0811 10.2477 86.2107C10.2907 86.353 10.3985 86.4984 10.5712 86.6471C10.7427 86.7916 10.961 86.9401 11.2263 87.0928C11.4902 87.2413 11.7908 87.3902 12.128 87.5394C12.4598 87.6856 12.8095 87.831 13.1773 87.9756C14.4183 86.916 15.4918 85.9891 16.3977 85.1951C17.3023 84.3969 18.0403 83.697 18.6117 83.0953C19.1777 82.4906 19.5774 81.9705 19.811 81.5347C20.0445 81.099 20.1101 80.7117 20.0078 80.3729C19.9901 80.3144 19.964 80.2583 19.9296 80.2048C19.8952 80.1513 19.8606 80.1047 19.8258 80.065C19.7884 80.0169 19.7448 79.9708 19.6949 79.9265L19.8998 79.7208C19.9631 79.7793 20.043 79.8624 20.1395 79.9702C20.2347 80.0739 20.3333 80.2038 20.4353 80.3602C20.5402 80.5111 20.6425 80.6833 20.742 80.8769C20.8416 81.0705 20.9268 81.2844 20.9975 81.5187C21.0948 81.8408 21.135 82.155 21.118 82.4614C21.101 82.7678 21.0194 83.0869 20.8731 83.4187C20.7297 83.745 20.5146 84.0907 20.2278 84.4558C19.9439 84.8154 19.5822 85.2123 19.1427 85.6463C18.702 86.0761 18.1805 86.5486 17.5784 87.0637C16.9763 87.5789 16.2819 88.1515 15.4955 88.7816L15.9251 88.912L19.7965 87.7426C20.1186 87.6453 20.3787 87.6602 20.5769 87.7875C20.7739 87.9106 20.9248 88.1458 21.0297 88.4929C21.1358 88.8443 21.141 89.1258 21.0451 89.3373C20.9492 89.5489 20.7403 89.7033 20.4182 89.8006L12.8637 92.0827C12.7717 92.1105 12.7016 92.143 12.6536 92.1804C12.6055 92.2177 12.5725 92.2596 12.5546 92.3061C12.5325 92.3539 12.5255 92.4062 12.5336 92.4631C12.5362 92.5171 12.547 92.5755 12.5659 92.6382C12.5937 92.7302 12.6431 92.8409 12.7141 92.97C12.7838 93.0951 12.8707 93.224 12.9747 93.3569C13.0788 93.4898 13.1981 93.6204 13.3327 93.7486C13.4619 93.8739 13.5991 93.9808 13.7445 94.0693C13.8887 94.1535 14.0391 94.2131 14.1957 94.2479C14.3523 94.2828 14.5079 94.2769 14.6627 94.2301C14.7966 94.1897 14.8982 94.1407 14.9675 94.0832C15.0357 94.0216 15.0837 93.9614 15.1116 93.9028C15.1353 93.8454 15.1465 93.7918 15.1452 93.742C15.1384 93.6893 15.1318 93.6525 15.1255 93.6315C15.0939 93.527 15.0513 93.4463 14.9976 93.3895C14.9398 93.3339 14.8838 93.2846 14.8297 93.2416C14.7715 93.1999 14.7186 93.161 14.6713 93.1251C14.6185 93.0863 14.5826 93.0355 14.5636 92.9728C14.5485 92.9226 14.5452 92.8665 14.5539 92.8046C14.5571 92.7397 14.5769 92.6766 14.6132 92.6155C14.6482 92.5501 14.7025 92.4881 14.776 92.4293C14.8454 92.3719 14.9387 92.3254 15.0558 92.29C15.2231 92.2395 15.3775 92.2294 15.5191 92.2597C15.6593 92.2858 15.7871 92.3385 15.9023 92.4178C16.0121 92.4941 16.1082 92.5929 16.1904 92.7142C16.2672 92.8325 16.3252 92.9565 16.3644 93.0861C16.4251 93.2869 16.4466 93.479 16.4289 93.6623C16.4058 93.8428 16.3507 94.0078 16.2635 94.1574C16.1763 94.3069 16.06 94.4357 15.9145 94.5435C15.7691 94.6513 15.6043 94.7331 15.4203 94.7887C15.1317 94.8759 14.8523 94.9032 14.5823 94.8706C14.3081 94.8393 14.0476 94.7628 13.8009 94.6411C13.5529 94.5152 13.3211 94.3524 13.1056 94.1527C12.8846 93.9502 12.6831 93.7212 12.501 93.4658C12.3188 93.2104 12.158 92.9349 12.0185 92.6393C11.8748 92.3449 11.7562 92.0429 11.6627 91.7334C11.559 91.3904 11.5123 91.1147 11.5223 90.9062C11.527 90.6948 11.562 90.5313 11.6275 90.4157C11.6917 90.2959 11.7715 90.2124 11.8668 90.1654C11.9622 90.1183 12.0433 90.0847 12.1102 90.0644L14.9777 89.1982Z" fill="black"/>
<path d="M16.0441 80.7052C16.1821 80.6853 16.3303 80.6441 16.4885 80.5817C16.6419 80.5156 16.7949 80.4319 16.9476 80.3306C17.1003 80.2294 17.2441 80.1118 17.3789 79.978C17.5087 79.8404 17.6213 79.6899 17.7166 79.5265C17.8113 79.3588 17.8801 79.1793 17.923 78.9883C17.9659 78.7972 17.9718 78.5938 17.9407 78.3782C17.919 78.2273 17.8815 78.0896 17.8284 77.9652C17.7752 77.8408 17.7104 77.7268 17.6339 77.6234C17.5573 77.52 17.4728 77.4221 17.3802 77.3298C17.2834 77.2381 17.1822 77.147 17.0767 77.0566L17.2087 76.8725C17.3567 76.9524 17.5216 77.0585 17.7036 77.1907C17.8855 77.323 18.0635 77.4889 18.2375 77.6883C18.4072 77.8884 18.5606 78.1282 18.6978 78.4078C18.8306 78.688 18.9241 79.0157 18.9781 79.3909C19.0322 79.7661 19.0182 80.1423 18.9361 80.5196C18.849 80.8931 18.6895 81.2374 18.4576 81.5526C18.2257 81.8678 17.9191 82.1387 17.538 82.3653C17.1562 82.5876 16.6936 82.7379 16.1502 82.8162C15.7577 82.8727 15.3905 82.875 15.0484 82.8231C14.7064 82.7711 14.3917 82.68 14.1044 82.5497C13.8164 82.4151 13.5571 82.25 13.3264 82.0543C13.0951 81.8543 12.8967 81.6386 12.7313 81.4071C12.5615 81.1762 12.4257 80.936 12.3237 80.6866C12.2168 80.4335 12.1459 80.1861 12.1111 79.9446C12.0651 79.6255 12.0595 79.3424 12.0944 79.0952C12.1292 78.8481 12.1936 78.6385 12.2877 78.4664C12.3812 78.2901 12.4999 78.1519 12.644 78.0519C12.7837 77.9525 12.9377 77.8907 13.1059 77.8665C13.3086 77.8373 13.5003 77.8691 13.681 77.9619C13.8573 78.0554 14.0199 78.1904 14.1686 78.3671L16.0441 80.7052ZM14.5435 79.5941C14.5009 79.543 14.462 79.5024 14.4269 79.4723C14.3868 79.4384 14.3436 79.4138 14.2974 79.3985C14.2468 79.3837 14.1886 79.3767 14.1227 79.3774C14.0518 79.3744 13.9668 79.3801 13.8676 79.3944C13.7598 79.4099 13.643 79.4399 13.5174 79.4845C13.3868 79.5253 13.2673 79.5821 13.1589 79.655C13.0506 79.7278 12.9638 79.813 12.8986 79.9104C12.8334 80.0078 12.8095 80.1169 12.8269 80.2377C12.8493 80.393 12.916 80.5198 13.027 80.6183C13.1331 80.713 13.2648 80.7865 13.422 80.8387C13.5785 80.8866 13.7548 80.9184 13.9508 80.9342C14.1418 80.9463 14.3338 80.9494 14.5267 80.9437C14.7195 80.9379 14.9047 80.9244 15.0821 80.9032C15.2553 80.8827 15.4022 80.8637 15.523 80.8463L14.5435 79.5941Z" fill="black"/>
<path d="M12.1627 74.2662C12.1672 74.3664 12.1844 74.4616 12.2146 74.5518C12.2445 74.6377 12.2915 74.7142 12.3555 74.7811C12.4152 74.8483 12.4916 74.8995 12.5847 74.9346C12.6735 74.97 12.7788 74.985 12.9007 74.9796C13.0705 74.9721 13.2376 74.9037 13.402 74.7743C13.5618 74.6408 13.7291 74.4786 13.9039 74.2878C14.0742 74.0927 14.2525 73.8842 14.439 73.6623C14.621 73.4362 14.8168 73.227 15.0264 73.0346C15.2314 72.838 15.4532 72.6734 15.6916 72.5408C15.9298 72.4038 16.1882 72.3292 16.4668 72.317C16.7715 72.3035 17.0481 72.3437 17.2964 72.4375C17.5403 72.527 17.7513 72.6639 17.9295 72.8479C18.1031 73.0278 18.2438 73.2506 18.3514 73.5163C18.4547 73.7822 18.518 74.0803 18.5413 74.4108L19.0029 74.4951C18.9909 74.2209 19.0131 73.9822 19.0695 73.7791C19.1258 73.5716 19.2054 73.398 19.3083 73.2583C19.4112 73.1186 19.5287 73.0131 19.6607 72.9418C19.797 72.8661 19.9369 72.825 20.0806 72.8187C20.3461 72.807 20.5683 72.8517 20.7472 72.9529C20.926 73.0497 21.0691 73.1808 21.1767 73.3462C21.2885 73.507 21.3683 73.6866 21.4163 73.8852C21.4687 74.0835 21.4989 74.2741 21.5069 74.4569C21.5148 74.6354 21.5069 74.8036 21.4833 74.9617C21.4598 75.1197 21.4269 75.2651 21.3848 75.3978C21.3424 75.5262 21.2952 75.6416 21.243 75.7442C21.1908 75.8469 21.14 75.932 21.0907 75.9996L20.87 75.8915C20.9579 75.7088 21.0174 75.523 21.0483 75.3341C21.0834 75.1407 21.0926 74.9527 21.0758 74.7703C21.0503 74.4879 20.9684 74.2625 20.8302 74.0941C20.6917 73.9214 20.4789 73.8414 20.1916 73.854C20.0174 73.8617 19.873 73.9007 19.7584 73.9712C19.6481 74.0415 19.5605 74.1326 19.4956 74.2445C19.4349 74.3518 19.3923 74.4736 19.3678 74.6099C19.3433 74.7462 19.3318 74.8819 19.3334 75.017L18.5347 74.8559C18.5151 75.1054 18.4664 75.3365 18.3885 75.5493C18.3061 75.7579 18.2097 75.9453 18.0993 76.1116C17.9886 76.2735 17.875 76.4159 17.7582 76.5388C17.637 76.6575 17.5277 76.7517 17.4305 76.8214L17.2572 76.6001C17.32 76.5406 17.3887 76.4656 17.4632 76.3751C17.5334 76.2848 17.5988 76.1859 17.6595 76.0786C17.72 75.9669 17.7693 75.8491 17.8075 75.7253C17.8413 75.6017 17.8554 75.4768 17.8499 75.3506C17.8361 75.0372 17.7508 74.7836 17.594 74.5898C17.4328 74.3963 17.2042 74.3061 16.9082 74.3191C16.7428 74.3264 16.5754 74.3883 16.4061 74.5047C16.2324 74.6214 16.0556 74.7666 15.8757 74.9402C15.6958 75.1139 15.5099 75.3009 15.3181 75.5012C15.1263 75.7016 14.9274 75.8892 14.7214 76.064C14.5154 76.2388 14.3016 76.3856 14.08 76.5044C13.8584 76.6232 13.6257 76.6879 13.382 76.6986C13.1077 76.7107 12.8659 76.6668 12.6565 76.567C12.447 76.4628 12.2707 76.3223 12.1277 76.1454C11.9845 75.9642 11.8751 75.7575 11.7995 75.5253C11.7193 75.2889 11.6736 75.0445 11.6625 74.792C11.6497 74.5004 11.6641 74.2337 11.7058 73.992C11.7475 73.7502 11.819 73.5421 11.9204 73.3675C12.0172 73.1888 12.1441 73.0502 12.3012 72.9517C12.458 72.8489 12.6431 72.7927 12.8564 72.7833C13.0218 72.7761 13.1678 72.8242 13.2945 72.9276C13.4212 73.0311 13.4888 73.1808 13.4975 73.3766C13.5057 73.5638 13.4728 73.7092 13.3989 73.8128C13.3204 73.9122 13.2115 73.9649 13.0722 73.9711C12.9808 73.9751 12.908 73.9565 12.8539 73.9153C12.7995 73.8697 12.7559 73.8193 12.7229 73.764C12.6856 73.709 12.6551 73.6601 12.6314 73.6176C12.6032 73.5708 12.5695 73.5483 12.5303 73.5501C12.4084 73.5554 12.3155 73.6249 12.2516 73.7586C12.1834 73.8924 12.1537 74.0617 12.1627 74.2662Z" fill="black"/>
<path d="M8.78395 67.6504C8.77926 67.7723 8.80096 67.8887 8.84902 67.9996C8.89709 68.1104 8.97831 68.2095 9.0927 68.2967C9.20289 68.3794 9.34633 68.4482 9.523 68.5029C9.69968 68.5577 9.91429 68.5899 10.1668 68.5996L11.7735 68.6613L11.8284 67.231L12.2987 67.2491L12.2437 68.6794L17.3902 68.8771C17.9824 68.8999 18.5258 68.9992 19.0205 69.1752C19.5154 69.3468 19.9375 69.5963 20.2868 69.9237C20.6405 70.2512 20.9106 70.6541 21.0972 71.1322C21.2838 71.6103 21.365 72.1628 21.341 72.7898C21.3324 73.0119 21.3046 73.2245 21.2576 73.4276C21.2149 73.6309 21.1579 73.8097 21.0865 73.9639C21.0152 74.1181 20.9321 74.2392 20.8371 74.3271C20.7464 74.4196 20.6466 74.4637 20.5377 74.4595C20.4593 74.4565 20.3792 74.4425 20.2973 74.4176C20.2198 74.3928 20.1492 74.3574 20.0855 74.3114C20.0219 74.2653 19.9696 74.2088 19.9285 74.1418C19.8917 74.0793 19.8749 74.0067 19.878 73.924C19.8799 73.8761 19.9055 73.8335 19.9549 73.7962C20.0041 73.7632 20.0643 73.7284 20.1355 73.6919C20.2067 73.6554 20.2846 73.6126 20.3694 73.5635C20.4583 73.519 20.5391 73.4589 20.6118 73.3832C20.6844 73.3075 20.747 73.2118 20.7994 73.096C20.8516 72.9847 20.8809 72.8463 20.8873 72.6808C20.8958 72.4587 20.8576 72.2611 20.7727 72.0877C20.6922 71.9146 20.5758 71.764 20.4238 71.6361C20.2717 71.5082 20.0906 71.3987 19.8804 71.3078C19.6703 71.2169 19.4442 71.1428 19.2022 71.0855C18.9602 71.0283 18.7067 70.9858 18.4418 70.9582C18.1771 70.9262 17.9119 70.9052 17.6463 70.8949L12.1667 70.6844L12.1205 71.8862L11.6503 71.8681L11.6964 70.6664L10.9323 70.637C10.5492 70.6223 10.2178 70.5638 9.93832 70.4615C9.65463 70.3547 9.41557 70.2212 9.22114 70.0611C9.02687 69.8967 8.87037 69.7141 8.75163 69.5133C8.63289 69.3125 8.54035 69.1105 8.47403 68.9074C8.40787 68.6999 8.36541 68.4999 8.34665 68.3073C8.32788 68.1147 8.32126 67.9466 8.32678 67.8029C8.33865 67.4938 8.37314 67.2204 8.43023 66.9827C8.48297 66.7449 8.55162 66.547 8.63619 66.3889C8.71639 66.2306 8.80816 66.1121 8.91148 66.0332C9.0148 65.9543 9.11871 65.9169 9.22321 65.9209C9.30158 65.9239 9.38163 65.9401 9.46336 65.9694C9.54089 65.9942 9.61366 66.0297 9.68165 66.0759C9.74529 66.1219 9.79762 66.1784 9.83865 66.2454C9.8755 66.3079 9.89242 66.3783 9.88941 66.4567C9.88757 66.5046 9.85977 66.5471 9.80601 66.5843C9.75226 66.6215 9.68536 66.6603 9.60531 66.7008C9.52527 66.7414 9.43852 66.786 9.34508 66.8347C9.25164 66.8835 9.16423 66.9455 9.08284 67.0209C9.00162 67.0919 8.93288 67.1787 8.87662 67.2811C8.82036 67.3836 8.78947 67.5067 8.78395 67.6504Z" fill="black"/>
<path d="M15.8106 65.2099C15.9486 65.2281 16.1021 65.2285 16.2712 65.2112C16.4364 65.189 16.6061 65.1499 16.7803 65.0937C16.9544 65.0376 17.1243 64.9634 17.29 64.8711C17.4519 64.7738 17.6008 64.6595 17.7365 64.5282C17.8728 64.3925 17.9874 64.2386 18.0802 64.0665C18.173 63.8944 18.2336 63.7005 18.2619 63.4848C18.2817 63.3338 18.2829 63.1913 18.2653 63.0574C18.2478 62.9235 18.2162 62.7964 18.1706 62.6764C18.1249 62.5563 18.07 62.4394 18.006 62.3256C17.9376 62.2113 17.865 62.0965 17.788 61.9811L17.9645 61.8397C18.0852 61.9565 18.2151 62.103 18.3544 62.2792C18.4936 62.4555 18.6199 62.663 18.7334 62.9016C18.8425 63.1398 18.9253 63.4117 18.9817 63.7175C19.0337 64.0228 19.0351 64.363 18.9859 64.7383C18.9366 65.1136 18.8216 65.4715 18.6408 65.812C18.4563 66.1476 18.2101 66.4356 17.9021 66.6759C17.5941 66.9163 17.2263 67.094 16.7987 67.209C16.3717 67.3197 15.8864 67.3393 15.3429 67.268C14.9503 67.2164 14.5966 67.1195 14.2818 66.9773C13.967 66.835 13.6891 66.6625 13.448 66.4597C13.2076 66.2526 13.0028 66.0238 12.8339 65.7735C12.6655 65.5188 12.533 65.2578 12.4364 64.9907C12.3355 64.7229 12.2697 64.4554 12.239 64.188C12.2046 63.9158 12.2032 63.659 12.2349 63.4174C12.2768 63.0982 12.3479 62.8245 12.448 62.5963C12.5482 62.3681 12.6667 62.184 12.8036 62.044C12.941 61.8997 13.0925 61.7989 13.258 61.7417C13.4192 61.6838 13.5839 61.666 13.7521 61.6881C13.9548 61.7147 14.1305 61.797 14.2792 61.935C14.4235 62.0724 14.5433 62.2461 14.6386 62.4561L15.8106 65.2099ZM14.6678 63.7369C14.6407 63.6763 14.6143 63.6267 14.5886 63.5882C14.5592 63.5449 14.5244 63.5096 14.4841 63.4824C14.4394 63.4546 14.3853 63.4321 14.3218 63.415C14.2544 63.393 14.1712 63.3755 14.072 63.3624C13.9641 63.3483 13.8438 63.3456 13.711 63.3545C13.5744 63.3585 13.4442 63.3809 13.3204 63.4217C13.1966 63.4625 13.0902 63.5209 13.0012 63.597C12.9122 63.6731 12.8598 63.7715 12.8439 63.8923C12.8235 64.0476 12.8534 64.1875 12.9336 64.3122C13.01 64.4319 13.1168 64.5381 13.2538 64.6307C13.3914 64.7189 13.5523 64.7971 13.7364 64.8652C13.9168 64.9284 14.1005 64.9832 14.2875 65.0297C14.4744 65.0762 14.6561 65.1132 14.8324 65.1407C15.0043 65.1677 15.1507 65.1891 15.2715 65.205L14.6678 63.7369Z" fill="black"/>
<path d="M16.7904 57.0869C16.7439 57.0754 16.6509 57.0524 16.5114 57.0179C16.3677 56.9824 16.2039 56.9463 16.0201 56.9098C15.832 56.8723 15.6318 56.8384 15.4195 56.8083C15.2072 56.7782 15.0065 56.7644 14.8175 56.767C14.6614 56.836 14.5169 56.9214 14.3841 57.0231C14.2481 57.1195 14.156 57.2649 14.1079 57.4594C14.0264 57.789 14.1818 58.0854 14.5742 58.3484C14.9677 58.6073 15.6167 58.8486 16.5211 59.0723C16.9184 59.1706 17.2861 59.2437 17.6241 59.2914C17.9632 59.335 18.26 59.3501 18.5145 59.3368C18.77 59.3193 18.9774 59.2697 19.1366 59.188C19.2969 59.102 19.3969 58.9788 19.4367 58.8182C19.604 58.1419 18.7219 57.5648 16.7904 57.0869ZM13.982 56.4728C13.5395 56.4485 13.1187 56.4633 12.7197 56.5171C12.3164 56.5698 11.9565 56.6646 11.64 56.8016C11.3246 56.9344 11.0589 57.1109 10.843 57.3311C10.6281 57.547 10.484 57.8029 10.4108 58.0988C10.369 58.2678 10.352 58.4273 10.3597 58.5773C10.3685 58.723 10.39 58.8539 10.424 58.9699C10.4539 59.085 10.4879 59.1831 10.5261 59.2643C10.5612 59.3403 10.5877 59.3962 10.6057 59.432L10.3431 59.542C10.2371 59.4081 10.1449 59.2552 10.0663 59.0833C9.98881 58.9071 9.93134 58.7224 9.89391 58.5293C9.85648 58.3361 9.83805 58.1387 9.83862 57.937C9.84023 57.7311 9.86457 57.533 9.91163 57.3428C10.0664 56.7173 10.3397 56.2018 10.7316 55.7964C11.1192 55.39 11.6016 55.0899 12.1787 54.8964C12.7559 54.7028 13.4173 54.613 14.1628 54.627C14.9084 54.641 15.7123 54.7547 16.5745 54.9681C17.2719 55.1406 17.867 55.3641 18.3598 55.6385C18.8536 55.9087 19.2477 56.2193 19.5421 56.5702C19.8323 56.9201 20.0217 57.3056 20.1104 57.7267C20.1959 58.1426 20.1806 58.5851 20.0645 59.0542C19.984 59.3797 19.8448 59.6974 19.6471 60.0072C19.4461 60.3119 19.1806 60.5691 18.8506 60.779C18.5216 60.9847 18.1244 61.1219 17.6588 61.1906C17.1891 61.2582 16.6457 61.2157 16.0286 61.0631C15.496 60.9313 15.041 60.7402 14.6634 60.4898C14.2868 60.2352 13.9883 59.946 13.7679 59.6223C13.5432 59.2976 13.3982 58.95 13.3329 58.5795C13.2634 58.208 13.2746 57.8363 13.3666 57.4643C13.4022 57.3206 13.4468 57.1948 13.5004 57.087C13.5497 56.9781 13.6018 56.8856 13.6565 56.8094C13.7112 56.7333 13.7676 56.6687 13.8255 56.6158C13.8793 56.5618 13.9314 56.5141 13.982 56.4728Z" fill="black"/>
<path d="M21.2342 52.9248C21.2876 52.9437 21.3496 52.9772 21.4204 53.0254C21.4886 53.068 21.5452 53.1365 21.5903 53.2311C21.6328 53.32 21.6541 53.4362 21.6543 53.5795C21.6585 53.7243 21.6221 53.9055 21.5451 54.1233C21.4681 54.341 21.3811 54.502 21.2841 54.6063C21.1912 54.7121 21.099 54.7835 21.0073 54.8204C20.9157 54.8573 20.83 54.8709 20.7503 54.8612C20.672 54.8474 20.6102 54.8325 20.565 54.8165L15.8081 53.1339C15.689 53.0917 15.5761 53.0841 15.4695 53.1111C15.3603 53.1326 15.2824 53.209 15.2359 53.3405C15.2112 53.4103 15.2024 53.4742 15.2096 53.5322C15.2168 53.5902 15.2329 53.656 15.2577 53.7295L15.0579 53.8044C15.0133 53.6823 14.9743 53.5507 14.9411 53.4095C14.9052 53.2628 14.8824 53.1115 14.8729 52.9555C14.8633 52.7996 14.8677 52.6371 14.8859 52.4679C14.9041 52.2988 14.9438 52.1279 15.0048 51.9554C15.0993 51.6884 15.2096 51.494 15.3359 51.3723C15.458 51.2491 15.5848 51.1715 15.7163 51.1394C15.8437 51.1059 15.9692 51.1041 16.0927 51.1339C16.2176 51.1596 16.3253 51.1884 16.4156 51.2204L21.2342 52.9248ZM13.2512 52.4443C13.1362 52.4036 13.036 52.3405 12.9508 52.2549C12.8629 52.1637 12.7959 52.0591 12.7498 51.9411C12.7051 51.819 12.6813 51.6904 12.6783 51.5553C12.6767 51.4161 12.7013 51.2746 12.7522 51.1308C12.8016 50.9912 12.8699 50.8697 12.9572 50.7666C13.046 50.6593 13.1454 50.5743 13.2554 50.5116C13.3655 50.4488 13.4826 50.4117 13.6068 50.4002C13.7284 50.3831 13.8467 50.3949 13.9617 50.4356C14.0809 50.4777 14.1823 50.5436 14.2661 50.6334C14.3514 50.719 14.4171 50.8208 14.4631 50.9388C14.5051 51.0553 14.5269 51.1832 14.5285 51.3224C14.5316 51.4575 14.5084 51.5949 14.459 51.7346C14.4081 51.8783 14.3383 52.0039 14.2495 52.1111C14.1622 52.2142 14.0648 52.3 13.9575 52.3683C13.8475 52.4311 13.7317 52.471 13.6101 52.4881C13.4899 52.501 13.3703 52.4865 13.2512 52.4443Z" fill="black"/>
<path d="M20.924 46.9356C20.4267 46.703 20.0189 46.5411 19.7008 46.45C19.3805 46.3531 19.1259 46.3062 18.9369 46.3091C18.7439 46.3103 18.6025 46.3452 18.5127 46.4138C18.4189 46.4805 18.3499 46.5613 18.3056 46.656C18.252 46.7705 18.2356 46.8879 18.2563 47.0082C18.2749 47.1227 18.3079 47.232 18.3555 47.336C18.4049 47.4361 18.458 47.5283 18.5147 47.6125C18.5734 47.6929 18.615 47.7581 18.6397 47.8081L22.5944 49.6581C22.6457 49.6821 22.7052 49.7195 22.7728 49.7704C22.8364 49.8194 22.887 49.8912 22.9246 49.9857C22.96 50.0745 22.9709 50.1902 22.957 50.3328C22.949 50.4734 22.8961 50.6483 22.7982 50.8574C22.7004 51.0666 22.5972 51.2204 22.4886 51.3187C22.3859 51.415 22.2862 51.479 22.1895 51.5107C22.0929 51.5425 22.0054 51.5497 21.927 51.5322C21.8485 51.5148 21.7876 51.4959 21.7442 51.4756L17.1738 49.3376C17.0594 49.284 16.9478 49.2655 16.839 49.282C16.7282 49.2927 16.6432 49.3612 16.5842 49.4875C16.5528 49.5546 16.5379 49.6173 16.5394 49.6758C16.5409 49.7342 16.5504 49.8012 16.568 49.8768L16.3619 49.9319C16.3293 49.806 16.3034 49.6712 16.284 49.5275C16.2626 49.3779 16.2547 49.2251 16.2604 49.069C16.2661 48.9129 16.2862 48.7516 16.3209 48.585C16.3555 48.4184 16.4116 48.2522 16.4891 48.0865C16.6091 47.8299 16.7458 47.6509 16.8991 47.5494C17.0484 47.4461 17.198 47.3886 17.3478 47.3769C17.4976 47.3652 17.6404 47.3839 17.7761 47.433C17.9098 47.4763 18.0201 47.5182 18.1069 47.5589C17.966 47.315 17.8561 47.0615 17.7771 46.7985C17.7412 46.6902 17.7109 46.5751 17.6862 46.4529C17.6635 46.3268 17.6504 46.2004 17.6471 46.0738C17.6417 45.9414 17.65 45.8106 17.672 45.6813C17.6958 45.5482 17.7363 45.4204 17.7935 45.2981C17.9191 45.0297 18.0812 44.8169 18.2798 44.6596C18.4803 44.4985 18.7341 44.4031 19.0413 44.3737C19.3485 44.3442 19.719 44.3852 20.1527 44.4967C20.5825 44.6064 21.0914 44.7987 21.6794 45.0738C22.2517 45.3415 22.725 45.6255 23.0993 45.9256C23.4736 46.2258 23.77 46.528 23.9885 46.8323C24.2069 47.1365 24.36 47.4366 24.4476 47.7325C24.5392 48.0303 24.5885 48.3107 24.5953 48.5737C24.6022 48.8367 24.5792 49.0761 24.5264 49.2919C24.4793 49.5056 24.4245 49.6844 24.362 49.8283L24.0888 49.7799C24.1166 49.6486 24.1239 49.5197 24.1109 49.3934C24.0997 49.2631 24.0562 49.1297 23.9806 48.9933C23.9049 48.8568 23.795 48.7164 23.6508 48.572C23.5028 48.4258 23.3067 48.2691 23.0626 48.102C22.8203 47.931 22.5242 47.7516 22.1743 47.5638C21.8222 47.3703 21.4055 47.1609 20.924 46.9356Z" fill="black"/>
</g>
<defs>
<clipPath id="clip0_2693_8580">
<rect width="132" height="132" fill="white" transform="translate(6 6)"/>
</clipPath>
</defs>
</svg>
