<svg width="132" height="132" viewBox="0 0 132 132" fill="none" xmlns="http://www.w3.org/2000/svg">
<g clip-path="url(#clip0_2316_150)">
<path d="M49.2508 8.89849C49.4657 8.25407 49.6649 7.68009 49.8485 7.17656C50.0363 6.6718 50.215 6.22876 50.3845 5.84743C50.5529 5.46193 50.7171 5.13212 50.8773 4.858C51.0416 4.58265 51.2099 4.35157 51.3821 4.16474C51.5572 3.97251 51.7413 3.81852 51.9344 3.70277C52.1275 3.58702 52.339 3.49537 52.5689 3.42783C53.1166 3.26696 53.442 3.36211 53.5451 3.71328C53.5586 3.75927 53.5704 3.81484 53.5805 3.88001C53.5905 3.94517 53.5916 4.01071 53.5837 4.0766C53.58 4.14127 53.5634 4.20065 53.5339 4.25474C53.5044 4.30882 53.4582 4.34508 53.3955 4.3635C53.3495 4.37701 53.2884 4.36998 53.2122 4.34241C53.1402 4.31362 53.0565 4.28371 52.9611 4.2527C52.8645 4.2175 52.7571 4.19226 52.6391 4.17698C52.5198 4.15751 52.3954 4.16681 52.2658 4.20488C52.1237 4.24663 51.9778 4.35306 51.8283 4.52415C51.6829 4.69401 51.5331 4.9106 51.3788 5.1739C51.2287 5.43597 51.078 5.73456 50.9267 6.06966C50.7783 6.39936 50.6306 6.747 50.4837 7.1126C51.5308 8.35817 52.4467 9.43563 53.2316 10.345C54.0206 11.2531 54.7129 11.9943 55.3085 12.5687C55.9071 13.1377 56.4227 13.5402 56.8554 13.7765C57.2881 14.0127 57.6738 14.081 58.0124 13.9816C58.0709 13.9644 58.127 13.9388 58.1806 13.9049C58.2342 13.871 58.281 13.8368 58.3208 13.8024C58.369 13.7655 58.4154 13.7224 58.4599 13.673L58.6634 13.8789C58.6046 13.9416 58.5211 14.0206 58.4129 14.1159C58.3089 14.2101 58.1785 14.3074 58.0218 14.4079C57.8706 14.5114 57.698 14.612 57.5042 14.7098C57.3104 14.8076 57.0965 14.8909 56.8624 14.9597C56.5405 15.0543 56.2268 15.0919 55.9214 15.0726C55.616 15.0533 55.2985 14.9695 54.9688 14.8211C54.6445 14.6757 54.3014 14.4586 53.9396 14.1698C53.5831 13.8839 53.1902 13.5202 52.7607 13.0787C52.3355 12.6359 51.8683 12.1124 51.3593 11.508C50.8503 10.9037 50.2846 10.207 49.6622 9.41796L49.5289 9.8454L50.6655 13.7146C50.76 14.0365 50.7431 14.2958 50.6147 14.4925C50.4904 14.6879 50.2548 14.8366 49.9078 14.9385C49.5567 15.0417 49.276 15.0447 49.0658 14.9475C48.8556 14.8503 48.7032 14.6407 48.6086 14.3188L46.3908 6.76855C46.3637 6.67658 46.3318 6.60648 46.2949 6.55828C46.2581 6.51007 46.2165 6.47686 46.1703 6.45865C46.1228 6.43625 46.0707 6.42886 46.0139 6.43646C45.9601 6.43866 45.9018 6.44896 45.8391 6.46738C45.7471 6.4944 45.6364 6.54281 45.5071 6.6126C45.3819 6.68116 45.2526 6.76681 45.1193 6.86955C44.986 6.97229 44.8549 7.09027 44.726 7.2235C44.6001 7.35133 44.4924 7.48739 44.4031 7.6317C44.318 7.77478 44.2575 7.92427 44.2215 8.08015C44.1856 8.23604 44.1903 8.39132 44.2357 8.54601C44.275 8.67979 44.3231 8.78148 44.3798 8.85109C44.4408 8.91947 44.5004 8.96781 44.5587 8.99611C44.6157 9.02022 44.6691 9.0318 44.7188 9.03083C44.7714 9.02446 44.8081 9.0182 44.829 9.01206C44.9336 8.98136 45.0143 8.93946 45.0714 8.88637C45.1273 8.82909 45.1768 8.77366 45.2201 8.72007C45.2622 8.6623 45.3013 8.60993 45.3375 8.56298C45.3766 8.51062 45.4275 8.47523 45.4902 8.45681C45.5404 8.44207 45.5963 8.43926 45.658 8.44838C45.7227 8.45209 45.7854 8.47228 45.8461 8.50893C45.911 8.54437 45.9725 8.59898 46.0305 8.67276C46.0873 8.74237 46.1328 8.8357 46.1672 8.95276C46.2163 9.11999 46.2253 9.27404 46.194 9.41493C46.1669 9.55459 46.1134 9.68158 46.0334 9.79589C45.9564 9.9048 45.8572 9.9998 45.7357 10.0809C45.6171 10.1566 45.493 10.2135 45.3634 10.2516C45.1628 10.3105 44.9711 10.3305 44.7884 10.3115C44.6087 10.2871 44.4445 10.2308 44.296 10.1428C44.1476 10.0547 44.0201 9.9377 43.9137 9.79185C43.8073 9.646 43.727 9.4811 43.673 9.29715C43.5883 9.00868 43.5631 8.72995 43.5977 8.46096C43.631 8.18778 43.7092 7.92863 43.8325 7.68351C43.96 7.43717 44.1241 7.20731 44.3248 6.99395C44.5285 6.77517 44.7583 6.57595 45.0144 6.39629C45.2704 6.21662 45.5463 6.05836 45.8422 5.9215C46.1368 5.78045 46.4388 5.66449 46.7482 5.57362C47.091 5.47292 47.3663 5.42838 47.5741 5.44001C47.7848 5.44623 47.9476 5.48243 48.0624 5.54862C48.1814 5.61357 48.264 5.69376 48.3102 5.78919C48.3564 5.88461 48.3893 5.96577 48.4089 6.03266L49.2508 8.89849Z" fill="white"/>
<path d="M57.7477 9.97758C57.7665 10.1157 57.8064 10.2642 57.8676 10.423C57.9325 10.5769 58.0149 10.7306 58.1149 10.8841C58.2149 11.0376 58.3314 11.1823 58.4642 11.3181C58.6007 11.4491 58.7503 11.5629 58.9129 11.6595C59.0799 11.7555 59.2587 11.8258 59.4494 11.8702C59.6402 11.9146 59.8435 11.9222 60.0593 11.8928C60.2105 11.8723 60.3484 11.836 60.4733 11.7838C60.5981 11.7317 60.7125 11.6677 60.8166 11.592C60.9206 11.5163 61.0192 11.4326 61.1122 11.3408C61.2047 11.2447 61.2966 11.1442 61.3879 11.0395L61.5709 11.1729C61.4898 11.3202 61.3824 11.4844 61.2487 11.6652C61.115 11.8461 60.9477 12.0227 60.7468 12.1952C60.5454 12.3632 60.3044 12.5147 60.0237 12.6496C59.7424 12.7802 59.414 12.871 59.0383 12.9221C58.6627 12.9731 58.2866 12.9561 57.9101 12.8709C57.5372 12.7809 57.1942 12.6187 56.8809 12.3842C56.5676 12.1498 56.2992 11.841 56.0756 11.4581C55.8564 11.0745 55.7098 10.6107 55.6359 10.0667C55.5825 9.67383 55.5831 9.30656 55.6378 8.96493C55.6925 8.6233 55.7862 8.30935 55.9188 8.02309C56.0557 7.73625 56.2229 7.47826 56.4204 7.24914C56.6222 7.01943 56.8396 6.82279 57.0724 6.65923C57.3046 6.49134 57.5459 6.35742 57.7961 6.25744C58.0501 6.15257 58.298 6.0837 58.5398 6.05083C58.8593 6.00741 59.1424 6.0041 59.3893 6.0409C59.6362 6.07771 59.8452 6.14384 60.0165 6.23929C60.1921 6.33415 60.3293 6.45401 60.4282 6.59888C60.5264 6.73944 60.587 6.8939 60.6099 7.06229C60.6374 7.26522 60.6041 7.45664 60.5098 7.63655C60.415 7.81214 60.2786 7.97359 60.1007 8.12089L57.7477 9.97758ZM58.8707 8.48595C58.9222 8.44378 58.9631 8.40524 58.9935 8.37032C59.0277 8.3305 59.0526 8.28753 59.0684 8.24142C59.0835 8.19099 59.091 8.13281 59.0908 8.06687C59.0944 7.99603 59.0894 7.91096 59.0759 7.81165C59.0612 7.70371 59.0321 7.58674 58.9886 7.46073C58.9489 7.32982 58.893 7.2099 58.821 7.10095C58.749 6.992 58.6646 6.90454 58.5677 6.83856C58.4708 6.77258 58.3619 6.74781 58.241 6.76424C58.0855 6.78536 57.9581 6.85105 57.8588 6.96129C57.7632 7.06663 57.6886 7.19769 57.6352 7.35446C57.5861 7.51065 57.5528 7.68667 57.5355 7.88251C57.5218 8.07344 57.5172 8.26537 57.5214 8.45827C57.5256 8.65118 57.5376 8.83644 57.5573 9.01405C57.5765 9.18734 57.5943 9.33443 57.6107 9.45532L58.8707 8.48595Z" fill="white"/>
<path d="M64.2179 6.1475C64.1178 6.15111 64.0224 6.16761 63.9319 6.19703C63.8458 6.22629 63.769 6.27265 63.7015 6.33612C63.6339 6.39524 63.5821 6.47122 63.5462 6.56407C63.5101 6.65257 63.4943 6.75778 63.4987 6.87971C63.5048 7.04953 63.5719 7.21716 63.6999 7.3826C63.8321 7.54353 63.993 7.71215 64.1824 7.88846C64.3761 8.06026 64.5831 8.24029 64.8036 8.42857C65.0282 8.61233 65.2358 8.80979 65.4266 9.02093C65.6215 9.22757 65.7843 9.45062 65.915 9.69008C66.05 9.92939 66.1226 10.1884 66.1326 10.4671C66.1436 10.7719 66.1012 11.0481 66.0054 11.2957C65.9139 11.5388 65.7754 11.7487 65.5899 11.9254C65.4086 12.0976 65.1847 12.2365 64.9182 12.342C64.6515 12.4431 64.3528 12.504 64.0222 12.5246L63.9341 12.9856C64.2085 12.9758 64.447 12.9999 64.6496 13.058C64.8566 13.1159 65.0296 13.1969 65.1685 13.3009C65.3074 13.4049 65.4119 13.5233 65.4821 13.6559C65.5568 13.7927 65.5967 13.933 65.6019 14.0767C65.6114 14.3423 65.5649 14.5642 65.4623 14.7423C65.3641 14.9202 65.2318 15.0623 65.0656 15.1686C64.9039 15.279 64.7236 15.3575 64.5247 15.4039C64.326 15.4546 64.1352 15.4833 63.9523 15.4898C63.7737 15.4963 63.6055 15.4871 63.4477 15.4622C63.2898 15.4374 63.1447 15.4033 63.0124 15.3601C62.8844 15.3168 62.7693 15.2686 62.6671 15.2156C62.5649 15.1626 62.4802 15.1111 62.413 15.0612L62.5228 14.8415C62.7048 14.9308 62.8901 14.9918 63.0788 15.0242C63.2719 15.0609 63.4598 15.0715 63.6424 15.0563C63.9249 15.033 64.151 14.9529 64.3204 14.816C64.4943 14.679 64.576 14.4668 64.5657 14.1794C64.5594 14.0052 64.5215 13.8605 64.452 13.7453C64.3826 13.6344 64.2922 13.5461 64.1808 13.4803C64.074 13.4188 63.9525 13.3752 63.8164 13.3496C63.6803 13.3239 63.5447 13.3114 63.4096 13.3119L63.5771 12.5145C63.3278 12.4929 63.0971 12.4424 62.8849 12.3628C62.677 12.2787 62.4903 12.1808 62.325 12.069C62.164 11.9571 62.0225 11.8423 61.9006 11.7246C61.7828 11.6024 61.6895 11.4924 61.6206 11.3946L61.8433 11.223C61.9022 11.2863 61.9767 11.3556 62.0666 11.4308C62.1563 11.5017 62.2546 11.568 62.3615 11.6295C62.4727 11.6909 62.5901 11.7412 62.7136 11.7804C62.8369 11.8152 62.9617 11.8303 63.088 11.8258C63.4015 11.8145 63.6557 11.7312 63.8507 11.576C64.0456 11.4163 64.1376 11.1885 64.127 10.8924C64.121 10.7269 64.0605 10.559 63.9454 10.3888C63.8301 10.2142 63.6863 10.0362 63.5141 9.85492C63.3419 9.67363 63.1564 9.48628 62.9576 9.29286C62.7588 9.09945 62.5729 8.89903 62.3997 8.69162C62.2266 8.4842 62.0815 8.26923 61.9645 8.04672C61.8475 7.8242 61.7846 7.59102 61.7758 7.34717C61.766 7.07284 61.8118 6.83138 61.9133 6.62281C62.0191 6.41408 62.1611 6.23893 62.3391 6.09736C62.5215 5.95564 62.7291 5.84789 62.9619 5.77411C63.1989 5.69583 63.4436 5.65214 63.6962 5.64306C63.9879 5.63256 64.2545 5.64914 64.4959 5.69278C64.7372 5.73641 64.9448 5.80961 65.1185 5.91236C65.2965 6.01061 65.4341 6.13864 65.5313 6.29647C65.6329 6.45414 65.6875 6.63965 65.6952 6.85302C65.7012 7.01849 65.6519 7.16415 65.5474 7.28999C65.4429 7.41583 65.2927 7.48227 65.0968 7.48932C64.9095 7.49606 64.7644 7.46203 64.6615 7.38726C64.5627 7.30797 64.5108 7.19865 64.5058 7.05931C64.5025 6.96787 64.5217 6.89523 64.5633 6.84141C64.6094 6.78744 64.6601 6.74419 64.7156 6.71167C64.771 6.6748 64.8201 6.6447 64.8628 6.62136C64.9098 6.59351 64.9326 6.55999 64.9311 6.5208C64.9268 6.39887 64.858 6.30542 64.7249 6.24045C64.5916 6.17112 64.4226 6.14014 64.2179 6.1475Z" fill="white"/>
<path d="M70.8541 2.81898C70.7322 2.81334 70.6156 2.83411 70.5044 2.88131C70.3932 2.9285 70.2935 3.00895 70.2053 3.12264C70.1218 3.23218 70.0519 3.37507 69.9958 3.55132C69.9396 3.72756 69.9057 3.9419 69.894 4.19435L69.8197 5.80047L71.2495 5.86665L71.2278 6.33673L69.7979 6.27055L69.5598 11.4153C69.5324 12.0073 69.4288 12.5499 69.2489 13.0432C69.0734 13.5367 68.8206 13.9569 68.4905 14.3036C68.1602 14.6547 67.7552 14.9217 67.2757 15.1045C66.7961 15.2873 66.243 15.3642 65.6162 15.3352C65.3942 15.325 65.1818 15.2955 64.9791 15.2469C64.7761 15.2026 64.5978 15.1442 64.4441 15.0716C64.2905 14.9991 64.17 14.915 64.0829 14.8193C63.9911 14.7279 63.9478 14.6277 63.9528 14.5189C63.9565 14.4405 63.9711 14.3605 63.9967 14.2788C64.022 14.2015 64.058 14.1312 64.1046 14.0679C64.1511 14.0046 64.208 13.9527 64.2753 13.9122C64.3381 13.8759 64.4108 13.8596 64.4935 13.8635C64.5414 13.8657 64.5838 13.8916 64.6208 13.9413C64.6534 13.9908 64.6876 14.0513 64.7236 14.1227C64.7595 14.1942 64.8017 14.2725 64.8501 14.3576C64.894 14.4469 64.9535 14.5281 65.0286 14.6014C65.1037 14.6747 65.1989 14.738 65.3142 14.7913C65.4252 14.8444 65.5634 14.8748 65.7288 14.8824C65.9507 14.8927 66.1487 14.8561 66.3227 14.7725C66.4965 14.6933 66.6479 14.5782 66.7771 14.4272C66.9062 14.2761 67.017 14.0958 67.1096 13.8864C67.2022 13.6769 67.2781 13.4515 67.3372 13.2099C67.3964 12.9684 67.4408 12.7153 67.4705 12.4506C67.5046 12.1861 67.5277 11.9211 67.54 11.6556L67.7935 6.17778L66.5922 6.12218L66.614 5.6521L67.8153 5.7077L67.8507 4.94382C67.8684 4.56079 67.9295 4.22992 68.034 3.95124C68.1431 3.66839 68.2784 3.43039 68.44 3.23722C68.606 3.04425 68.7898 2.88919 68.9915 2.77203C69.1932 2.65487 69.3959 2.56392 69.5995 2.4992C69.8075 2.43467 70.0079 2.39378 70.2006 2.37653C70.3933 2.35928 70.5615 2.35398 70.7052 2.36062C71.0142 2.37493 71.2873 2.41156 71.5245 2.47052C71.7619 2.52512 71.9593 2.59533 72.1167 2.68113C72.2743 2.76258 72.3921 2.85527 72.4702 2.95921C72.5483 3.06315 72.5849 3.16735 72.5801 3.27181C72.5764 3.35016 72.5597 3.43008 72.5297 3.51157C72.5043 3.58891 72.4682 3.66139 72.4215 3.72902C72.375 3.79229 72.318 3.84418 72.2507 3.88469C72.188 3.92104 72.1174 3.9374 72.0391 3.93378C71.9912 3.93156 71.9489 3.90343 71.9121 3.84939C71.8754 3.79534 71.837 3.72814 71.7971 3.64778C71.7572 3.56741 71.7133 3.48032 71.6653 3.3865C71.6173 3.29268 71.5559 3.20478 71.4812 3.12281C71.4108 3.04103 71.3246 2.97162 71.2226 2.91455C71.1205 2.85748 70.9977 2.82563 70.8541 2.81898Z" fill="white"/>
<path d="M73.2327 9.83837C73.2137 9.9765 73.2123 10.1303 73.2286 10.2996C73.2498 10.4653 73.2879 10.6355 73.343 10.8102C73.3981 10.9849 73.4714 11.1556 73.5628 11.3221C73.6592 11.4849 73.7727 11.6347 73.9034 11.7714C74.0384 11.9088 74.1919 12.0245 74.3636 12.1185C74.5354 12.2125 74.7292 12.2744 74.9451 12.3041C75.0961 12.3249 75.2388 12.327 75.3731 12.3103C75.5073 12.2936 75.6347 12.2627 75.7553 12.2178C75.8758 12.1728 75.9932 12.1186 76.1075 12.0551C76.2224 11.9874 76.3379 11.9153 76.454 11.8389L76.5945 12.0166C76.4767 12.1368 76.3292 12.266 76.1518 12.4043C75.9744 12.5426 75.7659 12.6679 75.5261 12.78C75.2869 12.8878 75.014 12.969 74.7074 13.0235C74.4014 13.0738 74.0607 13.073 73.6851 13.0213C73.3096 12.9696 72.9519 12.8522 72.612 12.669C72.2771 12.4822 71.9902 12.2337 71.7514 11.9238C71.5126 11.6138 71.337 11.2443 71.2245 10.8154C71.1163 10.387 71.0997 9.90093 71.1746 9.35704C71.2287 8.96424 71.3279 8.61064 71.4724 8.29625C71.6168 7.98187 71.7914 7.70461 71.996 7.46448C72.2049 7.22494 72.4352 7.02135 72.687 6.85369C72.9432 6.68663 73.2053 6.55559 73.4735 6.46057C73.7423 6.36123 74.0106 6.29702 74.2786 6.26793C74.5514 6.23512 74.8086 6.23536 75.0504 6.26864C75.3698 6.31263 75.6435 6.3855 75.8714 6.48725C76.0993 6.589 76.2829 6.70885 76.4222 6.8468C76.5659 6.98534 76.6659 7.13765 76.7222 7.30375C76.7791 7.46553 76.7959 7.63059 76.7728 7.79893C76.7448 8.00181 76.6613 8.17724 76.5222 8.32522C76.3836 8.46889 76.2089 8.58778 75.998 8.68189L73.2327 9.83837ZM74.7152 8.70318C74.776 8.67637 74.8258 8.65024 74.8645 8.62478C74.9081 8.59559 74.9437 8.56091 74.9712 8.52071C74.9993 8.4762 75.0221 8.42217 75.0397 8.35861C75.0622 8.29133 75.0802 8.20805 75.0939 8.10876C75.1087 8.00085 75.1121 7.88036 75.1041 7.7473C75.1009 7.61051 75.0793 7.47999 75.0392 7.35571C74.9992 7.23144 74.9413 7.12451 74.8657 7.03492C74.7901 6.94534 74.6918 6.89223 74.5709 6.87558C74.4155 6.85419 74.2752 6.88324 74.1499 6.96275C74.0295 7.03854 73.9225 7.14477 73.8289 7.28142C73.7396 7.41868 73.6603 7.5793 73.591 7.76328C73.5266 7.94354 73.4706 8.12715 73.4228 8.31411C73.3751 8.50106 73.3369 8.68273 73.3082 8.85912C73.2801 9.03119 73.2577 9.17765 73.2411 9.29852L74.7152 8.70318Z" fill="white"/>
<path d="M81.3718 10.9156C81.3838 10.8692 81.4079 10.7764 81.4439 10.6372C81.4811 10.4938 81.5189 10.3303 81.5574 10.1467C81.5971 9.95895 81.6331 9.75898 81.6655 9.54683C81.698 9.33468 81.7139 9.13402 81.7134 8.94484C81.6461 8.78786 81.5622 8.64237 81.4619 8.50836C81.3669 8.37122 81.2223 8.27753 81.0283 8.22728C80.6993 8.14207 80.401 8.29437 80.1335 8.6842C79.8703 9.07512 79.6217 9.72192 79.3879 10.6246C79.2853 11.0211 79.2082 11.3882 79.1567 11.726C79.1095 12.0648 79.0911 12.3616 79.1016 12.6164C79.1164 12.8723 79.1638 13.0804 79.2438 13.2406C79.328 13.402 79.4503 13.5034 79.6106 13.5449C80.2855 13.7197 80.8726 12.8433 81.3718 10.9156ZM82.0169 8.11198C82.046 7.66941 82.0358 7.24817 81.9864 6.84827C81.938 6.44415 81.847 6.08301 81.7133 5.76483C81.5839 5.44774 81.4102 5.17995 81.1922 4.96146C80.9785 4.74406 80.7239 4.59713 80.4287 4.52066C80.26 4.47696 80.1005 4.45818 79.9504 4.46431C79.8045 4.47153 79.6733 4.49156 79.5568 4.52439C79.4413 4.55301 79.3428 4.586 79.2611 4.62335C79.1847 4.65758 79.1285 4.68353 79.0924 4.70119L78.9852 4.43713C79.1203 4.33259 79.2743 4.24195 79.4472 4.1652C79.6244 4.08955 79.8098 4.03404 80.0035 3.99869C80.1972 3.96334 80.395 3.94704 80.5968 3.9498C80.8028 3.95366 81.0008 3.98016 81.1906 4.02932C81.8149 4.191 82.3277 4.47011 82.7291 4.86664C83.1316 5.25896 83.4266 5.74495 83.6141 6.32462C83.8015 6.90429 83.8842 7.56709 83.862 8.31303C83.8399 9.05897 83.7174 9.86218 83.4945 10.7227C83.3142 11.4187 83.0841 12.0117 82.8042 12.5018C82.5284 12.993 82.2133 13.3841 81.859 13.6749C81.5057 13.9615 81.1178 14.1468 80.6954 14.231C80.2784 14.312 79.8357 14.2919 79.3675 14.1706C79.0427 14.0865 78.7264 13.9438 78.4184 13.7425C78.1158 13.5381 77.8612 13.2696 77.6548 12.9371C77.4525 12.6057 77.3196 12.2066 77.2559 11.74C77.1933 11.2692 77.2417 10.7259 77.4012 10.11C77.5389 9.57857 77.735 9.12526 77.9897 8.75012C78.2486 8.37607 78.5412 8.08052 78.8675 7.86345C79.1949 7.64216 79.5443 7.50086 79.9158 7.43953C80.2883 7.37398 80.6602 7.38927 81.0314 7.48541C81.1748 7.52255 81.3002 7.56852 81.4075 7.62333C81.516 7.67392 81.608 7.72701 81.6836 7.7826C81.7592 7.83819 81.8232 7.89527 81.8756 7.95384C81.929 8.00819 81.9761 8.0609 82.0169 8.11198Z" fill="white"/>
<path d="M85.4814 15.3909C85.4621 15.4442 85.4281 15.506 85.3794 15.5764C85.3362 15.6442 85.2672 15.7003 85.1723 15.7446C85.083 15.7864 84.9667 15.8068 84.8234 15.8057C84.6786 15.8088 84.4976 15.771 84.2805 15.6922C84.0634 15.6135 83.9031 15.5252 83.7995 15.4274C83.6945 15.3336 83.6239 15.2408 83.5877 15.1489C83.5515 15.057 83.5386 14.9712 83.549 14.8915C83.5634 14.8133 83.5788 14.7517 83.5952 14.7066L85.316 9.96338C85.359 9.8446 85.3675 9.73179 85.3414 9.62497C85.3208 9.51554 85.245 9.43705 85.1139 9.3895C85.0443 9.36424 84.9805 9.35498 84.9224 9.36172C84.8643 9.36847 84.7984 9.38397 84.7247 9.40822L84.6514 9.20781C84.7739 9.16416 84.9058 9.12628 85.0473 9.09416C85.1943 9.05942 85.3458 9.0379 85.5018 9.0296C85.6577 9.02129 85.8202 9.02694 85.9893 9.04654C86.1583 9.06614 86.3288 9.10715 86.5008 9.16956C86.7671 9.26615 86.9606 9.37806 87.0813 9.50528C87.2035 9.62841 87.2801 9.75586 87.3111 9.88762C87.3436 10.0153 87.3444 10.1407 87.3136 10.264C87.2869 10.3887 87.2572 10.4961 87.2245 10.5862L85.4814 15.3909ZM86.026 7.41207C86.0676 7.29738 86.1316 7.19775 86.2179 7.11318C86.3097 7.026 86.4149 6.95985 86.5332 6.91471C86.6557 6.87107 86.7844 6.84826 86.9196 6.8463C87.0588 6.84582 87.2001 6.87159 87.3435 6.9236C87.4827 6.97412 87.6036 7.04346 87.706 7.13161C87.8126 7.22124 87.8968 7.32132 87.9586 7.43184C88.0205 7.54236 88.0567 7.65978 88.0672 7.78411C88.0833 7.90583 88.0706 8.02403 88.029 8.13872C87.9859 8.25751 87.9191 8.35844 87.8287 8.44153C87.7424 8.5261 87.6401 8.59095 87.5218 8.63608C87.4049 8.67712 87.2769 8.69787 87.1376 8.69835C87.0025 8.70031 86.8653 8.67603 86.726 8.62551C86.5827 8.5735 86.4577 8.50268 86.3512 8.41304C86.2487 8.32489 86.1638 8.22686 86.0963 8.11896C86.0345 8.00844 85.9955 7.89232 85.9794 7.7706C85.9674 7.65037 85.9829 7.53086 86.026 7.41207Z" fill="white"/>
<path d="M91.4396 15.1593C91.6757 14.6652 91.8404 14.2598 91.9339 13.9432C92.0332 13.6246 92.0821 13.371 92.0806 13.1824C92.0811 12.99 92.0474 12.8487 91.9797 12.7585C91.9139 12.6645 91.8339 12.5949 91.7398 12.55C91.6261 12.4956 91.5091 12.4783 91.3889 12.4979C91.2746 12.5155 91.1653 12.5476 91.0612 12.5942C90.9609 12.6427 90.8686 12.6949 90.784 12.7508C90.7034 12.8086 90.6381 12.8497 90.588 12.8739L88.7106 16.8033C88.6862 16.8543 88.6484 16.9133 88.5971 16.9803C88.5477 17.0434 88.4757 17.0933 88.3811 17.1299C88.2923 17.1646 88.1768 17.1744 88.0346 17.1595C87.8945 17.1503 87.7205 17.0961 87.5127 16.9968C87.3048 16.8975 87.1523 16.7933 87.0551 16.6843C86.9599 16.581 86.8969 16.481 86.866 16.3844C86.8351 16.2878 86.8287 16.2004 86.8467 16.1223C86.8648 16.0442 86.8841 15.9836 86.9047 15.9405L89.0744 11.3993C89.1287 11.2856 89.1481 11.1744 89.1325 11.0659C89.1228 10.9552 89.0552 10.8699 88.9297 10.81C88.863 10.7781 88.8005 10.7627 88.7422 10.7638C88.6839 10.7648 88.617 10.7738 88.5415 10.7907L88.4882 10.5846C88.614 10.5532 88.7487 10.5284 88.8922 10.5103C89.0415 10.4901 89.194 10.4835 89.3497 10.4904C89.5053 10.4974 89.6661 10.5188 89.8319 10.5547C89.9978 10.5906 90.1631 10.6479 90.3278 10.7266C90.5827 10.8484 90.7602 10.9861 90.8601 11.1398C90.9619 11.2896 91.0181 11.4393 91.0285 11.5888C91.039 11.7383 91.0192 11.8806 90.9691 12.0156C90.9249 12.1486 90.8821 12.2582 90.8409 12.3445C91.0853 12.206 91.339 12.0984 91.602 12.0217C91.7102 11.9867 91.8254 11.9575 91.9474 11.9339C92.0734 11.9122 92.1995 11.9002 92.3259 11.8979C92.458 11.8936 92.5884 11.903 92.7171 11.9259C92.8497 11.9508 92.9768 11.9922 93.0984 12.0503C93.3651 12.1777 93.576 12.3411 93.7312 12.5405C93.8903 12.7418 93.9833 12.9957 94.0102 13.3024C94.0371 13.609 93.9932 13.9782 93.8785 14.4099C93.7656 14.8376 93.5696 15.3437 93.2904 15.928C93.0188 16.4966 92.7317 16.9664 92.4293 17.3373C92.1268 17.7082 91.823 18.0013 91.5178 18.2167C91.2125 18.4322 90.912 18.5824 90.6161 18.6674C90.3183 18.7563 90.0382 18.8031 89.7759 18.8078C89.5135 18.8126 89.2749 18.7877 89.0601 18.7332C88.8474 18.6845 88.6694 18.6284 88.5264 18.5649L88.5769 18.2928C88.7077 18.3216 88.8361 18.33 88.9623 18.318C89.0923 18.3079 89.2257 18.2656 89.3624 18.1912C89.4991 18.1169 89.64 18.0084 89.7852 17.8658C89.9323 17.7193 90.0901 17.525 90.2588 17.2829C90.4314 17.0426 90.6127 16.7488 90.8029 16.4013C90.9988 16.0517 91.211 15.6377 91.4396 15.1593Z" fill="white"/>
<path d="M121.349 44.0904C122.011 44.2447 122.601 44.3899 123.12 44.5261C123.641 44.6664 124.099 44.8033 124.495 44.9368C124.894 45.0688 125.238 45.2018 125.526 45.336C125.816 45.4742 126.062 45.6204 126.264 45.7747C126.472 45.9314 126.643 46.1005 126.776 46.2822C126.909 46.4638 127.02 46.6661 127.109 46.889C127.32 47.4198 127.255 47.753 126.915 47.8884C126.87 47.9061 126.816 47.923 126.752 47.9391C126.688 47.9552 126.623 47.9623 126.557 47.9606C126.492 47.9629 126.431 47.9519 126.374 47.9275C126.318 47.9031 126.277 47.8605 126.253 47.7997C126.235 47.7551 126.237 47.6936 126.257 47.615C126.279 47.5406 126.301 47.4544 126.323 47.3564C126.349 47.2569 126.364 47.1476 126.369 47.0285C126.377 46.9079 126.356 46.7847 126.306 46.6591C126.251 46.5213 126.132 46.3859 125.947 46.2527C125.765 46.1236 125.535 45.9944 125.258 45.8651C124.983 45.7399 124.671 45.6174 124.323 45.4977C123.981 45.3805 123.621 45.2656 123.243 45.1532C122.099 46.3124 121.11 47.3253 120.277 48.1919C119.445 49.0626 118.771 49.8214 118.254 50.4683C117.742 51.1177 117.389 51.6689 117.194 52.1221C116.999 52.5752 116.966 52.9659 117.097 53.2942C117.119 53.3509 117.15 53.4044 117.189 53.4547C117.228 53.505 117.266 53.5484 117.304 53.5849C117.345 53.6295 117.393 53.6717 117.446 53.7115L117.26 53.9334C117.192 53.8807 117.105 53.8048 117 53.7058C116.897 53.6109 116.787 53.49 116.673 53.3432C116.556 53.2021 116.439 53.0395 116.324 52.8554C116.208 52.6714 116.105 52.4659 116.015 52.2389C115.891 51.9269 115.824 51.6178 115.815 51.3117C115.806 51.0056 115.86 50.6813 115.977 50.339C116.092 50.0023 116.277 49.6402 116.531 49.2528C116.783 48.871 117.109 48.4456 117.509 47.9766C117.911 47.5117 118.389 46.9975 118.944 46.4341C119.499 45.8706 120.141 45.2422 120.869 44.5487L120.431 44.4555L116.68 45.9476C116.368 46.0717 116.108 46.079 115.9 45.9692C115.694 45.8636 115.524 45.6426 115.39 45.3062C115.255 44.9658 115.226 44.6864 115.303 44.4679C115.381 44.2494 115.575 44.078 115.887 43.9539L123.206 41.0423C123.295 41.0068 123.362 40.9685 123.406 40.9272C123.451 40.886 123.48 40.8415 123.494 40.7938C123.512 40.7444 123.514 40.6918 123.502 40.6359C123.494 40.5824 123.479 40.5253 123.455 40.4645C123.419 40.3753 123.361 40.2696 123.279 40.1471C123.199 40.0287 123.102 39.9079 122.987 39.7846C122.872 39.6613 122.742 39.5416 122.598 39.4255C122.458 39.3118 122.313 39.2172 122.161 39.1416C122.01 39.0701 121.856 39.0236 121.697 39.0023C121.538 38.9809 121.384 39.0001 121.234 39.0597C121.104 39.1113 121.007 39.1686 120.943 39.2317C120.881 39.2988 120.838 39.3627 120.815 39.4234C120.797 39.4825 120.79 39.5367 120.796 39.5861C120.807 39.638 120.817 39.674 120.825 39.6943C120.865 39.7956 120.914 39.8722 120.972 39.9242C121.035 39.9745 121.095 40.0187 121.152 40.0569C121.214 40.0935 121.269 40.1276 121.319 40.1593C121.375 40.1934 121.415 40.2408 121.439 40.3016C121.459 40.3502 121.467 40.4057 121.463 40.4681C121.466 40.5329 121.451 40.5972 121.421 40.6612C121.391 40.7291 121.343 40.7955 121.274 40.8601C121.21 40.9232 121.122 40.9773 121.008 41.0224C120.846 41.0869 120.693 41.1101 120.55 41.092C120.408 41.078 120.277 41.0364 120.155 40.9674C120.04 40.9007 119.936 40.8107 119.844 40.6971C119.757 40.586 119.689 40.4676 119.639 40.342C119.562 40.1475 119.524 39.9583 119.526 39.7745C119.534 39.5931 119.574 39.4243 119.648 39.2682C119.722 39.112 119.827 38.9741 119.963 38.8545C120.098 38.7349 120.255 38.6396 120.433 38.5687C120.713 38.4574 120.988 38.4065 121.26 38.4159C121.535 38.4237 121.8 38.4777 122.056 38.5778C122.313 38.6819 122.558 38.8241 122.789 39.0043C123.026 39.187 123.246 39.3975 123.449 39.636C123.652 39.8745 123.835 40.1348 123.999 40.4169C124.167 40.6974 124.31 40.9876 124.43 41.2875C124.562 41.6198 124.632 41.89 124.64 42.0981C124.653 42.3087 124.632 42.4743 124.577 42.5949C124.523 42.7195 124.451 42.8093 124.36 42.8642C124.269 42.9191 124.191 42.9594 124.126 42.9852L121.349 44.0904Z" fill="white"/>
<path d="M120.994 52.6284C120.858 52.6604 120.715 52.7145 120.563 52.7907C120.417 52.87 120.273 52.9668 120.13 53.0809C119.988 53.1951 119.855 53.3246 119.733 53.4696C119.617 53.6178 119.518 53.7773 119.438 53.948C119.359 54.123 119.307 54.3073 119.282 54.5008C119.256 54.6944 119.268 54.8968 119.318 55.1082C119.353 55.2561 119.403 55.3894 119.467 55.5082C119.531 55.627 119.605 55.7343 119.69 55.8302C119.776 55.926 119.868 56.0157 119.969 56.0991C120.073 56.1815 120.181 56.2629 120.294 56.3433L120.18 56.5378C120.026 56.4717 119.852 56.3811 119.66 56.266C119.467 56.1509 119.276 56.0021 119.085 55.8197C118.899 55.6362 118.725 55.4118 118.564 55.1464C118.407 54.88 118.285 54.563 118.198 54.1953C118.111 53.8276 118.091 53.4528 118.139 53.0709C118.192 52.6923 118.32 52.3361 118.522 52.0025C118.724 51.6689 119.004 51.3725 119.362 51.1135C119.721 50.8587 120.167 50.6681 120.7 50.5418C121.085 50.4506 121.449 50.4156 121.793 50.4366C122.137 50.4577 122.458 50.52 122.755 50.6237C123.053 50.7317 123.325 50.8725 123.572 51.0462C123.819 51.2241 124.035 51.4206 124.22 51.6356C124.409 51.8497 124.566 52.076 124.689 52.3146C124.818 52.5564 124.911 52.7956 124.967 53.0323C125.041 53.3451 125.072 53.6257 125.059 53.8742C125.047 54.1227 125.001 54.3365 124.923 54.5157C124.846 54.6992 124.741 54.847 124.607 54.9591C124.477 55.0703 124.329 55.1454 124.165 55.1845C123.966 55.2316 123.773 55.2171 123.585 55.1411C123.402 55.0641 123.228 54.9445 123.065 54.7823L120.994 52.6284ZM122.583 53.5975C122.63 53.6444 122.672 53.6813 122.71 53.7081C122.752 53.7381 122.797 53.7587 122.845 53.7698C122.896 53.7799 122.955 53.7817 123.02 53.7751C123.091 53.7717 123.175 53.7585 123.272 53.7355C123.378 53.7104 123.491 53.6702 123.612 53.6148C123.738 53.5626 123.851 53.4955 123.952 53.4135C124.053 53.3315 124.132 53.2392 124.188 53.1366C124.244 53.034 124.258 52.9236 124.23 52.8052C124.194 52.6531 124.116 52.5331 123.997 52.4452C123.883 52.3606 123.746 52.2994 123.585 52.2616C123.426 52.2281 123.248 52.2122 123.052 52.2141C122.861 52.2191 122.67 52.2331 122.479 52.2561C122.288 52.279 122.105 52.309 121.931 52.3458C121.761 52.3817 121.617 52.4136 121.499 52.4417L122.583 53.5975Z" fill="white"/>
<path d="M125.42 58.7213C125.407 58.6221 125.382 58.5289 125.344 58.4417C125.307 58.3588 125.253 58.2868 125.184 58.2258C125.119 58.1641 125.038 58.1198 124.943 58.0929C124.851 58.0654 124.745 58.0596 124.624 58.0754C124.456 58.0975 124.296 58.18 124.143 58.3229C123.996 58.4695 123.843 58.6453 123.686 58.8503C123.534 59.059 123.374 59.2818 123.208 59.5186C123.046 59.7592 122.87 59.9843 122.678 60.1938C122.491 60.407 122.284 60.5899 122.059 60.7424C121.833 60.8992 121.583 60.9958 121.307 61.032C121.005 61.0717 120.726 61.0556 120.471 60.9838C120.221 60.9157 119.999 60.7978 119.806 60.6301C119.618 60.4662 119.459 60.2567 119.328 60.0017C119.203 59.7461 119.114 59.455 119.062 59.1283L118.596 59.0842C118.632 59.356 118.63 59.5954 118.591 59.8023C118.553 60.0135 118.489 60.1931 118.399 60.341C118.309 60.4889 118.201 60.6039 118.076 60.6862C117.947 60.7733 117.811 60.8263 117.669 60.845C117.405 60.8795 117.181 60.8542 116.994 60.769C116.808 60.6881 116.654 60.5701 116.533 60.4149C116.408 60.2646 116.313 60.0927 116.248 59.8994C116.179 59.7066 116.132 59.5197 116.108 59.3385C116.085 59.1616 116.078 58.9936 116.088 58.8343C116.098 58.6751 116.118 58.5276 116.149 58.392C116.18 58.2606 116.217 58.1417 116.26 58.0351C116.303 57.9285 116.346 57.8395 116.389 57.768L116.618 57.8564C116.546 58.0457 116.503 58.2357 116.489 58.4263C116.471 58.6217 116.478 58.8095 116.51 58.9895C116.56 59.2682 116.661 59.4854 116.813 59.6409C116.965 59.8008 117.184 59.862 117.469 59.8246C117.641 59.802 117.782 59.7506 117.89 59.6706C117.993 59.5912 118.073 59.493 118.127 59.3761C118.178 59.2641 118.21 59.1393 118.223 59.0016C118.236 58.8639 118.235 58.7279 118.222 58.5936L119.031 58.6849C119.028 58.4351 119.057 58.2009 119.116 57.9826C119.18 57.7679 119.26 57.5731 119.355 57.3982C119.451 57.2277 119.552 57.0762 119.658 56.9439C119.768 56.8153 119.868 56.7121 119.959 56.6344L120.151 56.8396C120.093 56.9042 120.032 56.9847 119.965 57.0812C119.903 57.1771 119.847 57.2811 119.796 57.3931C119.745 57.5094 119.706 57.6308 119.679 57.7573C119.656 57.8831 119.653 58.0086 119.669 58.1337C119.71 58.4443 119.817 58.6892 119.989 58.8684C120.166 59.047 120.401 59.117 120.695 59.0785C120.859 59.057 121.02 58.981 121.178 58.8505C121.341 58.7194 121.504 58.5597 121.668 58.3714C121.832 58.1832 122.001 57.9811 122.174 57.7652C122.348 57.5494 122.53 57.3456 122.72 57.1539C122.909 56.9623 123.109 56.7978 123.32 56.6605C123.53 56.5232 123.756 56.4387 123.997 56.4069C124.269 56.3713 124.513 56.394 124.73 56.4752C124.948 56.5608 125.135 56.6853 125.293 56.849C125.451 57.0169 125.577 57.2131 125.673 57.4375C125.773 57.6657 125.839 57.9049 125.872 58.1551C125.91 58.4441 125.919 58.7107 125.898 58.9547C125.878 59.1988 125.824 59.412 125.739 59.5944C125.658 59.7805 125.543 59.9294 125.396 60.0409C125.249 60.1568 125.069 60.2286 124.858 60.2563C124.694 60.2779 124.545 60.2426 124.41 60.1506C124.275 60.0587 124.195 59.9156 124.169 59.7215C124.145 59.536 124.165 59.3886 124.229 59.2791C124.299 59.1735 124.403 59.1116 124.541 59.0935C124.631 59.0816 124.705 59.0938 124.763 59.1301C124.821 59.1708 124.869 59.2172 124.906 59.2693C124.948 59.3208 124.983 59.3667 125.01 59.4071C125.042 59.4511 125.077 59.4706 125.116 59.4655C125.237 59.4496 125.323 59.3725 125.375 59.234C125.432 59.0949 125.447 58.924 125.42 58.7213Z" fill="white"/>
<path d="M129.357 65.0595C129.352 64.9376 129.321 64.8234 129.264 64.7169C129.207 64.6103 129.118 64.5183 128.996 64.4408C128.88 64.3674 128.731 64.3107 128.551 64.2707C128.37 64.2306 128.154 64.2162 127.901 64.2273L126.295 64.298L126.358 65.728L125.888 65.7487L125.825 64.3187L120.679 64.5451C120.087 64.5712 119.538 64.5169 119.03 64.3822C118.523 64.2519 118.082 64.0379 117.706 63.7404C117.327 63.4431 117.025 63.0639 116.799 62.6027C116.574 62.1416 116.448 61.5976 116.42 60.9708C116.41 60.7488 116.42 60.5346 116.451 60.3283C116.476 60.1222 116.519 59.9393 116.577 59.7797C116.635 59.6201 116.708 59.4926 116.796 59.3972C116.879 59.2976 116.974 59.2454 117.083 59.2406C117.162 59.2372 117.243 59.2445 117.326 59.2626C117.406 59.281 117.479 59.3104 117.546 59.3511C117.613 59.3918 117.67 59.4438 117.716 59.5071C117.758 59.5664 117.781 59.6373 117.785 59.72C117.787 59.7679 117.765 59.8125 117.719 59.8538C117.672 59.8907 117.615 59.9303 117.547 59.9726C117.479 60.0148 117.405 60.0639 117.325 60.1197C117.24 60.1715 117.164 60.238 117.098 60.3194C117.032 60.4009 116.977 60.5014 116.935 60.621C116.892 60.7363 116.874 60.8767 116.881 61.0421C116.891 61.2641 116.945 61.458 117.044 61.6237C117.139 61.7897 117.267 61.9301 117.429 62.0451C117.591 62.1601 117.781 62.2542 117.998 62.3276C118.215 62.4009 118.446 62.4561 118.692 62.4933C118.938 62.5304 119.194 62.5519 119.46 62.5576C119.727 62.5677 119.993 62.5669 120.258 62.5552L125.736 62.3141L125.684 61.1126L126.154 61.0919L126.207 62.2934L126.971 62.2598C127.354 62.2429 127.689 62.274 127.976 62.3529C128.267 62.436 128.516 62.5494 128.723 62.6929C128.93 62.8408 129.101 63.0099 129.236 63.2003C129.371 63.3906 129.48 63.5843 129.563 63.7812C129.646 63.9826 129.705 64.1784 129.739 64.3688C129.774 64.5592 129.794 64.7262 129.8 64.8699C129.814 65.179 129.802 65.4542 129.765 65.6958C129.732 65.9371 129.68 66.14 129.608 66.3045C129.542 66.4689 129.46 66.5946 129.363 66.6817C129.267 66.7688 129.166 66.8147 129.062 66.8193C128.984 66.8227 128.902 66.8132 128.819 66.7907C128.739 66.7724 128.664 66.743 128.592 66.7025C128.525 66.6619 128.468 66.6099 128.422 66.5465C128.38 66.4873 128.357 66.4185 128.354 66.3401C128.352 66.2922 128.376 66.2476 128.427 66.2061C128.477 66.1646 128.54 66.1204 128.617 66.0734C128.693 66.0264 128.776 65.9748 128.865 65.9185C128.954 65.8623 129.036 65.7933 129.111 65.7115C129.186 65.634 129.248 65.5419 129.295 65.4351C129.343 65.3283 129.364 65.2031 129.357 65.0595Z" fill="white"/>
<path d="M124.502 68.2378C124.363 68.2314 124.21 68.2441 124.042 68.2757C123.879 68.3118 123.713 68.3653 123.544 68.4361C123.375 68.5068 123.212 68.5953 123.055 68.7015C122.901 68.8123 122.762 68.939 122.638 69.0816C122.514 69.2286 122.412 69.3919 122.334 69.5715C122.256 69.7511 122.212 69.9497 122.202 70.1674C122.195 70.3197 122.206 70.462 122.235 70.5942C122.264 70.7263 122.306 70.8504 122.362 70.9664C122.418 71.0823 122.483 71.1943 122.556 71.3024C122.634 71.4106 122.716 71.5191 122.803 71.6277L122.639 71.7838C122.508 71.6775 122.366 71.5423 122.212 71.3782C122.059 71.2142 121.915 71.0179 121.781 70.7893C121.652 70.5609 121.547 70.2966 121.464 69.9962C121.387 69.696 121.356 69.3566 121.374 68.9779C121.391 68.5992 121.475 68.2323 121.627 67.8772C121.782 67.5267 122.004 67.2184 122.291 66.9524C122.578 66.6863 122.93 66.4778 123.347 66.3268C123.763 66.1801 124.246 66.1193 124.794 66.1444C125.19 66.1625 125.552 66.2292 125.878 66.3445C126.204 66.4597 126.496 66.6083 126.754 66.7902C127.011 66.9765 127.235 67.1873 127.425 67.4229C127.615 67.6627 127.769 67.9119 127.888 68.1703C128.011 68.4289 128.1 68.6903 128.153 68.9545C128.21 69.2232 128.234 69.4794 128.223 69.7231C128.208 70.0452 128.16 70.3244 128.079 70.5606C127.999 70.7968 127.896 70.9906 127.772 71.1419C127.647 71.2976 127.504 71.411 127.344 71.4822C127.188 71.5536 127.025 71.5854 126.855 71.5776C126.651 71.5682 126.468 71.501 126.308 71.3759C126.153 71.251 126.018 71.0879 125.905 70.8864L124.502 68.2378ZM125.768 69.6108C125.8 69.669 125.83 69.7162 125.859 69.7524C125.892 69.7932 125.93 69.8254 125.973 69.8492C126.019 69.8731 126.075 69.891 126.14 69.9027C126.209 69.9189 126.294 69.9293 126.394 69.9339C126.503 69.9389 126.623 69.9313 126.755 69.9112C126.891 69.8956 127.019 69.8622 127.139 69.811C127.259 69.7598 127.36 69.6924 127.443 69.6089C127.525 69.5255 127.569 69.4228 127.574 69.3009C127.582 69.1442 127.54 69.0071 127.449 68.8895C127.363 68.7765 127.247 68.6797 127.103 68.5989C126.958 68.5225 126.791 68.4581 126.601 68.4058C126.416 68.3581 126.228 68.319 126.037 68.2884C125.847 68.2579 125.663 68.2364 125.484 68.2239C125.31 68.2115 125.162 68.2026 125.041 68.197L125.768 69.6108Z" fill="white"/>
<path d="M122.253 76.2675C122.301 76.2752 122.395 76.2906 122.537 76.3137C122.683 76.3375 122.85 76.3601 123.036 76.3816C123.227 76.4038 123.429 76.4213 123.643 76.434C123.857 76.4468 124.059 76.4443 124.247 76.4263C124.397 76.3448 124.534 76.2479 124.659 76.1357C124.786 76.0285 124.866 75.8759 124.899 75.6781C124.953 75.3426 124.774 75.0597 124.361 74.8292C123.948 74.603 123.281 74.415 122.36 74.2653C121.956 74.1995 121.583 74.1566 121.242 74.1364C120.901 74.1205 120.603 74.1296 120.351 74.1635C120.097 74.2017 119.894 74.2681 119.742 74.3625C119.589 74.4612 119.5 74.5923 119.473 74.7557C119.361 75.4439 120.288 75.9478 122.253 76.2675ZM125.104 76.6519C125.548 76.6401 125.966 76.5912 126.36 76.5052C126.758 76.4198 127.109 76.296 127.414 76.1336C127.717 75.9755 127.968 75.7779 128.166 75.5408C128.362 75.3079 128.485 75.041 128.534 74.7399C128.562 74.5679 128.566 74.4074 128.546 74.2585C128.526 74.1139 128.494 73.9851 128.45 73.872C128.411 73.7597 128.369 73.6646 128.325 73.5867C128.283 73.5138 128.252 73.4602 128.231 73.4259L128.485 73.2949C128.601 73.4198 128.706 73.5648 128.798 73.7299C128.889 73.8993 128.962 74.0789 129.015 74.2685C129.068 74.4581 129.102 74.6535 129.118 74.8548C129.133 75.0603 129.125 75.2598 129.094 75.4534C128.99 76.0899 128.759 76.6262 128.401 77.0624C128.048 77.4993 127.591 77.8378 127.031 78.0778C126.471 78.3178 125.819 78.4611 125.074 78.5077C124.329 78.5543 123.518 78.5062 122.641 78.3635C121.931 78.248 121.319 78.0735 120.806 77.8398C120.291 77.6104 119.873 77.3326 119.55 77.0065C119.233 76.6811 119.012 76.312 118.89 75.8991C118.771 75.4913 118.75 75.0487 118.828 74.5713C118.881 74.2401 118.994 73.912 119.167 73.5868C119.342 73.2666 119.586 72.9884 119.898 72.7523C120.21 72.5204 120.595 72.3513 121.054 72.2449C121.517 72.1393 122.062 72.1375 122.69 72.2397C123.232 72.3278 123.701 72.4814 124.098 72.7005C124.495 72.9239 124.816 73.1881 125.062 73.493C125.312 73.7986 125.485 74.1335 125.581 74.4978C125.68 74.8627 125.699 75.2344 125.638 75.6129C125.614 75.7591 125.579 75.8882 125.535 76.0001C125.494 76.1128 125.45 76.2093 125.402 76.2897C125.353 76.3701 125.302 76.4391 125.249 76.4966C125.2 76.5548 125.151 76.6066 125.104 76.6519Z" fill="white"/>
<path d="M118.209 80.7773C118.154 80.7632 118.089 80.7352 118.014 80.6933C117.943 80.6568 117.88 80.5934 117.827 80.503C117.777 80.418 117.745 80.3039 117.733 80.1609C117.716 80.0168 117.736 79.8328 117.794 79.6088C117.851 79.3848 117.924 79.2165 118.012 79.1038C118.095 78.9901 118.181 78.9108 118.269 78.8659C118.357 78.821 118.442 78.7999 118.522 78.8026C118.601 78.8096 118.664 78.819 118.711 78.831L123.605 80.0924C123.728 80.124 123.841 80.1217 123.945 80.0854C124.052 80.0544 124.123 79.9713 124.158 79.836C124.177 79.7642 124.18 79.6996 124.167 79.6424C124.155 79.5851 124.133 79.5209 124.102 79.4498L124.295 79.3575C124.35 79.4754 124.401 79.6033 124.446 79.7413C124.495 79.8845 124.531 80.0335 124.554 80.1883C124.577 80.343 124.587 80.5055 124.584 80.676C124.58 80.8464 124.556 81.0203 124.51 81.1979C124.439 81.4726 124.346 81.6762 124.231 81.8088C124.12 81.9424 124 82.031 123.872 82.0745C123.748 82.1191 123.623 82.132 123.497 82.1131C123.37 82.0984 123.26 82.0791 123.167 82.0551L118.209 80.7773ZM126.217 80.556C126.335 80.5865 126.441 80.6408 126.534 80.7187C126.629 80.802 126.705 80.9004 126.762 81.0141C126.817 81.132 126.852 81.2583 126.867 81.3928C126.881 81.5316 126.869 81.675 126.83 81.8229C126.793 81.9666 126.736 82.0937 126.658 82.2043C126.579 82.3191 126.487 82.4127 126.383 82.485C126.278 82.5573 126.165 82.6046 126.042 82.627C125.922 82.6547 125.803 82.6533 125.684 82.6228C125.562 82.5912 125.455 82.5343 125.363 82.4522C125.271 82.3742 125.196 82.2784 125.14 82.1647C125.088 82.0521 125.055 81.9264 125.041 81.7877C125.026 81.6531 125.037 81.514 125.074 81.3703C125.112 81.2223 125.171 81.091 125.25 80.9762C125.328 80.8656 125.418 80.7715 125.519 80.6939C125.623 80.6216 125.735 80.5716 125.855 80.5439C125.974 80.5204 126.095 80.5244 126.217 80.556Z" fill="white"/>
<path d="M118.994 86.7036C119.509 86.8935 119.929 87.0205 120.254 87.0845C120.581 87.1541 120.839 87.1794 121.027 87.1605C121.219 87.1432 121.357 87.0965 121.441 87.0206C121.529 86.9461 121.591 86.8598 121.627 86.7617C121.67 86.6432 121.677 86.5248 121.646 86.4067C121.618 86.2941 121.576 86.188 121.52 86.0884C121.462 85.9928 121.401 85.9054 121.338 85.8262C121.273 85.7511 121.226 85.6897 121.197 85.6419L117.1 84.1314C117.047 84.1118 116.985 84.0795 116.913 84.0346C116.846 83.9911 116.789 83.9238 116.744 83.8328C116.701 83.7473 116.68 83.6329 116.682 83.4896C116.678 83.3489 116.716 83.1702 116.796 82.9535C116.876 82.7368 116.966 82.5749 117.066 82.4678C117.16 82.3632 117.254 82.2911 117.348 82.2513C117.441 82.2115 117.528 82.197 117.608 82.2078C117.687 82.2186 117.75 82.2322 117.795 82.2488L122.529 83.9944C122.647 84.0381 122.76 84.0472 122.867 84.0216C122.977 84.0016 123.055 83.9262 123.104 83.7954C123.129 83.7259 123.139 83.6621 123.132 83.604C123.126 83.5459 123.111 83.4799 123.087 83.4061L123.288 83.3339C123.331 83.4565 123.368 83.5887 123.399 83.7303C123.433 83.8775 123.454 84.0291 123.462 84.1851C123.469 84.3411 123.463 84.5036 123.442 84.6725C123.422 84.8414 123.38 85.0117 123.316 85.1834C123.218 85.4492 123.097 85.639 122.953 85.7531C122.813 85.8686 122.669 85.9385 122.52 85.9627C122.372 85.987 122.228 85.9804 122.089 85.9429C121.952 85.9111 121.839 85.8785 121.749 85.8454C121.91 86.0765 122.04 86.3198 122.141 86.5753C122.186 86.6801 122.226 86.7923 122.261 86.912C122.294 87.0357 122.318 87.1606 122.332 87.2864C122.348 87.4179 122.351 87.549 122.34 87.6796C122.328 87.8143 122.298 87.945 122.251 88.0718C122.149 88.3498 122.005 88.5755 121.821 88.7489C121.634 88.9263 121.389 89.0427 121.086 89.0979C120.782 89.1531 120.41 89.1435 119.968 89.0689C119.531 88.9958 119.007 88.847 118.398 88.6224C117.805 88.4038 117.31 88.1607 116.912 87.8931C116.513 87.6256 116.193 87.3494 115.949 87.0646C115.706 86.7799 115.528 86.4937 115.416 86.2062C115.3 85.9172 115.227 85.6419 115.198 85.3804C115.169 85.119 115.172 84.8785 115.206 84.659C115.235 84.4421 115.275 84.2593 115.325 84.1106L115.601 84.1359C115.584 84.2691 115.588 84.3981 115.612 84.5229C115.634 84.6518 115.688 84.7811 115.775 84.9106C115.862 85.0402 115.983 85.1708 116.139 85.3026C116.299 85.4358 116.508 85.5754 116.765 85.7214C117.021 85.8715 117.331 86.0253 117.695 86.1829C118.062 86.3461 118.495 86.5197 118.994 86.7036Z" fill="white"/>
<path d="M87.0656 121.653C86.9009 122.312 86.7464 122.899 86.602 123.416C86.4536 123.933 86.3095 124.389 86.1698 124.782C86.0316 125.179 85.8932 125.521 85.7546 125.806C85.6119 126.094 85.4619 126.337 85.3046 126.536C85.1447 126.741 84.973 126.909 84.7894 127.039C84.6058 127.17 84.402 127.277 84.1779 127.362C83.6443 127.565 83.3125 127.495 83.1827 127.153C83.1656 127.108 83.1496 127.053 83.1346 126.989C83.1195 126.925 83.1134 126.86 83.1162 126.794C83.115 126.729 83.127 126.668 83.1522 126.612C83.1775 126.556 83.2207 126.516 83.2818 126.493C83.3266 126.476 83.3881 126.478 83.4662 126.5C83.5402 126.523 83.626 126.546 83.7235 126.57C83.8226 126.598 83.9315 126.615 84.0504 126.621C84.1707 126.631 84.2941 126.612 84.4204 126.564C84.5589 126.512 84.6961 126.394 84.8321 126.212C84.964 126.032 85.0967 125.804 85.2303 125.53C85.3598 125.257 85.4871 124.948 85.6122 124.602C85.7348 124.262 85.8553 123.904 85.9737 123.528C84.8339 122.367 83.8378 121.363 82.9854 120.517C82.1288 119.672 81.3816 118.986 80.7436 118.459C80.103 117.938 79.558 117.576 79.1084 117.374C78.6588 117.172 78.269 117.133 77.9391 117.258C77.882 117.28 77.8281 117.31 77.7772 117.348C77.7264 117.386 77.6824 117.423 77.6453 117.461C77.6001 117.501 77.5572 117.548 77.5166 117.601L77.2978 117.411C77.3516 117.344 77.4288 117.259 77.5294 117.155C77.6259 117.053 77.7484 116.946 77.8969 116.834C78.0397 116.719 78.204 116.606 78.3897 116.493C78.5754 116.381 78.7823 116.281 79.0105 116.195C79.3242 116.076 79.634 116.014 79.94 116.01C80.2459 116.006 80.569 116.065 80.9091 116.187C81.2436 116.307 81.6024 116.498 81.9854 116.758C82.3627 117.015 82.7825 117.348 83.2446 117.755C83.7026 118.164 84.2087 118.65 84.7627 119.213C85.3167 119.776 85.9343 120.428 86.6154 121.166L86.7155 120.73L85.2847 116.96C85.1657 116.646 85.1627 116.386 85.2756 116.18C85.3844 115.976 85.6079 115.809 85.946 115.681C86.2882 115.551 86.5679 115.527 86.7849 115.607C87.002 115.688 87.17 115.885 87.2891 116.199L90.0809 123.556C90.1149 123.646 90.1522 123.714 90.1926 123.759C90.2331 123.804 90.2771 123.834 90.3246 123.849C90.3736 123.867 90.4261 123.871 90.4822 123.859C90.5357 123.852 90.593 123.838 90.6541 123.814C90.7438 123.78 90.8504 123.724 90.974 123.644C91.0935 123.566 91.2158 123.471 91.3408 123.358C91.4659 123.245 91.5875 123.118 91.7058 122.975C91.8215 122.838 91.9183 122.694 91.9963 122.543C92.0702 122.394 92.119 122.24 92.1429 122.082C92.1668 121.924 92.1501 121.769 92.0929 121.619C92.0434 121.488 91.9877 121.391 91.9257 121.325C91.8597 121.262 91.7966 121.218 91.7363 121.195C91.6776 121.175 91.6235 121.168 91.574 121.172C91.522 121.183 91.4859 121.192 91.4655 121.2C91.3637 121.238 91.2863 121.286 91.2335 121.343C91.1822 121.405 91.1371 121.464 91.098 121.521C91.0605 121.582 91.0256 121.637 90.9931 121.686C90.9581 121.742 90.9101 121.781 90.849 121.804C90.8001 121.823 90.7446 121.83 90.6823 121.825C90.6176 121.827 90.5535 121.811 90.4901 121.779C90.4227 121.749 90.3572 121.699 90.2937 121.63C90.2318 121.565 90.1791 121.476 90.1358 121.362C90.074 121.199 90.0533 121.046 90.0736 120.903C90.0899 120.761 90.1335 120.631 90.2044 120.511C90.2728 120.396 90.3645 120.294 90.4794 120.204C90.5918 120.119 90.7111 120.053 90.8374 120.005C91.0329 119.931 91.2225 119.896 91.4061 119.901C91.5872 119.911 91.7552 119.955 91.91 120.031C92.0648 120.108 92.2009 120.214 92.3182 120.352C92.4355 120.489 92.5282 120.647 92.5962 120.826C92.7029 121.107 92.7493 121.383 92.7356 121.654C92.7234 121.929 92.6653 122.194 92.5612 122.448C92.4531 122.703 92.3072 122.945 92.1234 123.173C91.9372 123.407 91.7233 123.623 91.4819 123.822C91.2404 124.021 90.9774 124.2 90.693 124.359C90.4101 124.522 90.1179 124.661 89.8164 124.775C89.4824 124.902 89.2113 124.968 89.0033 124.972C88.7927 124.982 88.6276 124.958 88.508 124.901C88.3844 124.846 88.2959 124.772 88.2425 124.681C88.1891 124.589 88.15 124.511 88.1253 124.445L87.0656 121.653Z" fill="white"/>
<path d="M78.5194 121.231C78.4901 121.095 78.4388 120.95 78.3656 120.796C78.2891 120.648 78.1951 120.501 78.0836 120.355C77.972 120.21 77.8449 120.075 77.702 119.949C77.5558 119.829 77.3979 119.727 77.2283 119.644C77.0545 119.561 76.8708 119.504 76.6772 119.475C76.4836 119.445 76.2803 119.453 76.0673 119.499C75.9183 119.531 75.7835 119.578 75.663 119.64C75.5426 119.701 75.4334 119.774 75.3355 119.857C75.2376 119.941 75.1458 120.032 75.06 120.131C74.9752 120.233 74.8913 120.341 74.8084 120.452L74.6156 120.333C74.6851 120.18 74.7796 120.008 74.899 119.818C75.0185 119.627 75.1717 119.438 75.3586 119.251C75.5465 119.068 75.7752 118.898 76.0447 118.742C76.3151 118.59 76.6356 118.474 77.0062 118.394C77.3768 118.315 77.7531 118.303 78.1351 118.359C78.5137 118.42 78.8682 118.555 79.1986 118.765C79.529 118.975 79.8204 119.262 80.0727 119.626C80.3208 119.992 80.5026 120.443 80.6181 120.98C80.7016 121.367 80.7292 121.734 80.7009 122.078C80.6726 122.423 80.6034 122.743 80.4932 123.039C80.3788 123.336 80.2319 123.606 80.0526 123.849C79.869 124.094 79.6674 124.307 79.4479 124.488C79.2293 124.673 78.999 124.825 78.7572 124.944C78.512 125.068 78.2702 125.156 78.0316 125.207C77.7164 125.275 77.4343 125.3 77.1854 125.282C76.9364 125.265 76.7229 125.215 76.5448 125.133C76.3624 125.052 76.2164 124.943 76.1067 124.806C75.9979 124.673 75.9257 124.524 75.8899 124.358C75.8468 124.158 75.8653 123.964 75.9455 123.777C76.0266 123.595 76.1501 123.424 76.3161 123.263L78.5194 121.231ZM77.5144 122.805C77.4664 122.851 77.4285 122.892 77.4009 122.929C77.3699 122.972 77.3483 123.016 77.3362 123.064C77.325 123.115 77.322 123.174 77.3272 123.239C77.3291 123.31 77.3406 123.395 77.3617 123.493C77.3846 123.599 77.4226 123.714 77.4757 123.836C77.5254 123.963 77.5903 124.079 77.6705 124.182C77.7506 124.285 77.8415 124.365 77.9432 124.424C78.0449 124.482 78.1554 124.498 78.2747 124.473C78.428 124.44 78.55 124.364 78.6406 124.247C78.7278 124.135 78.7921 123.998 78.8333 123.838C78.8703 123.678 78.8899 123.5 78.8921 123.304C78.891 123.112 78.8809 122.92 78.8619 122.728C78.8428 122.536 78.8166 122.353 78.7833 122.177C78.7509 122.006 78.7218 121.86 78.6961 121.741L77.5144 122.805Z" fill="white"/>
<path d="M72.3485 125.546C72.4481 125.535 72.5419 125.511 72.6299 125.475C72.7136 125.439 72.7867 125.387 72.8491 125.319C72.9121 125.255 72.958 125.175 72.9867 125.08C73.016 124.989 73.0238 124.883 73.0101 124.761C72.9912 124.593 72.9116 124.431 72.7714 124.275C72.6273 124.125 72.4541 123.969 72.2518 123.807C72.0457 123.651 71.8256 123.487 71.5915 123.316C71.3536 123.15 71.1316 122.969 70.9254 122.773C70.7154 122.581 70.5361 122.371 70.3876 122.142C70.2348 121.914 70.1429 121.661 70.1117 121.384C70.0777 121.081 70.099 120.802 70.1757 120.548C70.2485 120.299 70.3707 120.079 70.5422 119.889C70.7099 119.703 70.9227 119.548 71.1804 119.423C71.4387 119.301 71.7319 119.218 72.06 119.173L72.1128 118.706C71.84 118.737 71.6004 118.731 71.3939 118.688C71.1831 118.646 71.0045 118.579 70.8581 118.485C70.7117 118.392 70.5985 118.282 70.5185 118.155C70.4336 118.024 70.3832 117.888 70.3671 117.745C70.3375 117.481 70.367 117.256 70.4558 117.07C70.5403 116.886 70.6613 116.734 70.819 116.615C70.9719 116.493 71.1457 116.401 71.3405 116.34C71.5348 116.274 71.7229 116.231 71.9048 116.211C72.0823 116.191 72.2507 116.187 72.41 116.2C72.5693 116.213 72.7166 116.236 72.8518 116.269C72.9828 116.302 73.1012 116.341 73.2071 116.387C73.313 116.432 73.4014 116.476 73.4721 116.521L73.3793 116.749C73.1911 116.673 73.0017 116.627 72.8111 116.609C72.6157 116.587 72.4276 116.59 72.2467 116.619C71.9667 116.664 71.7474 116.761 71.5888 116.91C71.4259 117.06 71.3604 117.278 71.3925 117.564C71.412 117.737 71.4608 117.878 71.5389 117.988C71.6165 118.093 71.7133 118.174 71.8293 118.232C71.9405 118.285 72.065 118.319 72.2026 118.334C72.3402 118.35 72.4764 118.352 72.6111 118.341L72.5046 119.149C72.7548 119.151 72.9887 119.184 73.2062 119.248C73.42 119.316 73.6135 119.399 73.7869 119.498C73.9559 119.597 74.1056 119.701 74.2362 119.809C74.3629 119.922 74.4643 120.025 74.5404 120.117L74.3313 120.305C74.2677 120.246 74.1883 120.183 74.0929 120.115C73.998 120.051 73.895 119.992 73.7838 119.939C73.6682 119.886 73.5474 119.845 73.4213 119.815C73.2957 119.79 73.1701 119.784 73.0445 119.799C72.7328 119.834 72.4855 119.936 72.3029 120.105C72.1208 120.279 72.0462 120.514 72.0793 120.808C72.0978 120.973 72.1709 121.135 72.2986 121.296C72.4268 121.462 72.5836 121.628 72.7691 121.796C72.9545 121.964 73.1537 122.136 73.3666 122.314C73.5795 122.492 73.7801 122.678 73.9685 122.871C74.1569 123.065 74.3179 123.268 74.4514 123.481C74.585 123.694 74.6653 123.922 74.6926 124.165C74.7232 124.437 74.6959 124.682 74.6105 124.897C74.5208 125.114 74.3925 125.299 74.2257 125.454C74.0546 125.609 73.8558 125.732 73.6293 125.823C73.3989 125.919 73.1581 125.981 72.907 126.01C72.6169 126.042 72.3498 126.046 72.1059 126.021C71.8619 125.995 71.6494 125.938 71.4683 125.849C71.2834 125.764 71.1365 125.647 71.0276 125.497C70.9143 125.348 70.8458 125.167 70.822 124.955C70.8035 124.79 70.8416 124.641 70.9362 124.508C71.0308 124.374 71.1756 124.297 71.3704 124.275C71.5566 124.254 71.7039 124.277 71.8122 124.344C71.9167 124.415 71.9768 124.52 71.9923 124.659C72.0025 124.75 71.9889 124.824 71.9514 124.88C71.9097 124.938 71.8623 124.985 71.8094 125.021C71.757 125.062 71.7104 125.096 71.6695 125.123C71.6248 125.154 71.6047 125.189 71.609 125.228C71.6226 125.349 71.6983 125.437 71.836 125.492C71.9742 125.551 72.145 125.569 72.3485 125.546Z" fill="white"/>
<path d="M65.9884 129.363C66.1104 129.359 66.2251 129.33 66.3324 129.274C66.4398 129.219 66.5331 129.131 66.6125 129.011C66.6875 128.895 66.7464 128.748 66.7891 128.568C66.8319 128.388 66.8495 128.172 66.8422 127.919L66.7953 126.312L65.3645 126.353L65.3508 125.883L66.7816 125.841L66.6315 120.693C66.6142 120.101 66.6767 119.552 66.8189 119.047C66.9567 118.541 67.1772 118.103 67.4802 117.733C67.7831 117.358 68.1668 117.061 68.6312 116.842C69.0956 116.624 69.6414 116.506 70.2686 116.487C70.4907 116.481 70.7047 116.494 70.9106 116.528C71.1163 116.556 71.2985 116.601 71.4572 116.662C71.6159 116.723 71.7423 116.798 71.8365 116.886C71.9348 116.971 71.9856 117.067 71.9888 117.176C71.991 117.255 71.9825 117.335 71.9631 117.419C71.9437 117.498 71.9131 117.571 71.8714 117.637C71.8298 117.704 71.7769 117.76 71.7129 117.805C71.653 117.846 71.5817 117.868 71.499 117.87C71.4511 117.872 71.4068 117.849 71.3662 117.802C71.33 117.756 71.2913 117.698 71.25 117.629C71.2088 117.561 71.1608 117.486 71.1062 117.405C71.0557 117.319 70.9903 117.242 70.9098 117.175C70.8294 117.108 70.7297 117.052 70.6107 117.007C70.4961 116.962 70.356 116.943 70.1905 116.947C69.9684 116.954 69.7737 117.005 69.6065 117.102C69.4392 117.194 69.2968 117.32 69.1795 117.48C69.0621 117.641 68.9651 117.829 68.8886 118.045C68.8121 118.26 68.7534 118.491 68.7126 118.736C68.6718 118.982 68.6466 119.237 68.6369 119.504C68.6228 119.77 68.6197 120.036 68.6275 120.302L68.7873 125.783L69.9894 125.748L70.0031 126.218L68.801 126.253L68.8233 127.018C68.8344 127.401 68.7984 127.735 68.7152 128.021C68.6278 128.311 68.5107 128.559 68.3642 128.764C68.2132 128.969 68.0416 129.137 67.8493 129.269C67.6569 129.401 67.4617 129.507 67.2635 129.587C67.061 129.667 66.8642 129.723 66.6734 129.755C66.4825 129.786 66.3152 129.804 66.1715 129.809C65.8622 129.818 65.5871 129.802 65.3462 129.761C65.1054 129.724 64.9032 129.669 64.7398 129.595C64.5765 129.526 64.452 129.442 64.3663 129.345C64.2807 129.247 64.2363 129.146 64.2332 129.041C64.231 128.963 64.2417 128.882 64.2654 128.798C64.2849 128.719 64.3154 128.644 64.3569 128.573C64.3986 128.507 64.4514 128.451 64.5155 128.405C64.5753 128.364 64.6444 128.343 64.7228 128.34C64.7707 128.339 64.8151 128.364 64.8558 128.415C64.8965 128.466 64.9398 128.53 64.9856 128.607C65.0315 128.684 65.0818 128.768 65.1368 128.858C65.1917 128.948 65.2595 129.031 65.3402 129.107C65.4165 129.183 65.5077 129.246 65.6138 129.295C65.7198 129.344 65.8447 129.367 65.9884 129.363Z" fill="white"/>
<path d="M63.0782 122.545C63.0867 122.405 63.0764 122.252 63.0473 122.084C63.0136 121.921 62.9626 121.754 62.8944 121.584C62.8261 121.414 62.7401 121.249 62.6363 121.09C62.5279 120.935 62.4033 120.795 62.2625 120.668C62.1175 120.541 61.9557 120.438 61.7773 120.357C61.5988 120.276 61.4009 120.229 61.1834 120.216C61.0312 120.207 60.8888 120.216 60.7562 120.243C60.6236 120.269 60.4989 120.31 60.3821 120.364C60.2653 120.418 60.1524 120.481 60.0432 120.553C59.9338 120.629 59.8242 120.71 59.7142 120.795L59.5606 120.628C59.6689 120.5 59.8062 120.359 59.9725 120.208C60.1389 120.057 60.3373 119.916 60.5679 119.786C60.7982 119.66 61.0641 119.558 61.3656 119.481C61.6669 119.407 62.0068 119.382 62.3852 119.405C62.7636 119.428 63.1291 119.518 63.4819 119.675C63.8301 119.836 64.135 120.062 64.3967 120.353C64.6584 120.644 64.8616 120.999 65.0064 121.418C65.1468 121.837 65.2003 122.32 65.167 122.868C65.143 123.264 65.0709 123.624 64.9507 123.948C64.8306 124.273 64.6776 124.563 64.4919 124.818C64.3018 125.072 64.0876 125.293 63.8492 125.479C63.6066 125.665 63.3551 125.816 63.0949 125.931C62.8345 126.05 62.5718 126.135 62.3069 126.184C62.0373 126.238 61.7808 126.257 61.5372 126.242C61.2154 126.223 60.937 126.171 60.702 126.087C60.467 126.003 60.2748 125.897 60.1254 125.77C59.9716 125.643 59.8603 125.499 59.7916 125.337C59.7225 125.18 59.6932 125.017 59.7035 124.847C59.7159 124.643 59.7859 124.462 59.9134 124.303C60.0406 124.15 60.2058 124.018 60.4089 123.908L63.0782 122.545ZM61.6864 123.789C61.6278 123.821 61.5801 123.85 61.5435 123.879C61.5022 123.911 61.4694 123.948 61.445 123.991C61.4203 124.037 61.4017 124.093 61.389 124.157C61.3717 124.226 61.36 124.311 61.354 124.411C61.3473 124.519 61.3531 124.64 61.3713 124.772C61.3848 124.908 61.4163 125.037 61.4657 125.157C61.5151 125.278 61.5809 125.381 61.6631 125.464C61.7454 125.548 61.8474 125.593 61.9691 125.601C62.1257 125.61 62.2634 125.57 62.3823 125.482C62.4966 125.397 62.5952 125.283 62.6782 125.14C62.7567 124.996 62.8236 124.83 62.8787 124.641C62.9292 124.456 62.9712 124.269 63.0046 124.079C63.038 123.889 63.0623 123.705 63.0774 123.527C63.0924 123.353 63.1035 123.205 63.1109 123.084L61.6864 123.789Z" fill="white"/>
<path d="M54.8961 122.011C54.8875 122.058 54.8702 122.152 54.8443 122.293C54.8177 122.438 54.7917 122.603 54.7666 122.789C54.7406 122.978 54.7191 123.179 54.702 123.393C54.6849 123.606 54.6834 123.806 54.6974 123.994C54.7756 124.145 54.8693 124.284 54.9786 124.41C55.0828 124.54 55.2331 124.622 55.4296 124.658C55.7626 124.72 56.0482 124.547 56.2862 124.14C56.5199 123.733 56.7207 123.072 56.8885 122.159C56.9622 121.757 57.0126 121.387 57.0396 121.048C57.0624 120.707 57.0594 120.411 57.0307 120.159C56.9978 119.905 56.9358 119.702 56.8449 119.549C56.7496 119.394 56.6208 119.302 56.4586 119.272C55.7754 119.147 55.2545 120.06 54.8961 122.011ZM54.4553 124.844C54.458 125.286 54.4982 125.703 54.576 126.097C54.6529 126.496 54.7692 126.848 54.9247 127.155C55.076 127.46 55.2678 127.714 55.5 127.916C55.728 128.117 55.9914 128.244 56.2903 128.299C56.4612 128.331 56.6209 128.338 56.7697 128.321C56.9142 128.304 57.0432 128.274 57.1566 128.233C57.2693 128.197 57.3649 128.157 57.4434 128.114C57.5169 128.074 57.5709 128.045 57.6055 128.024L57.7309 128.279C57.6041 128.393 57.4575 128.494 57.2911 128.582C57.1205 128.67 56.9402 128.739 56.7502 128.788C56.5602 128.837 56.3649 128.867 56.1641 128.879C55.959 128.89 55.7604 128.877 55.5683 128.842C54.9363 128.726 54.4067 128.485 53.9794 128.12C53.5513 127.759 53.2234 127.297 52.9957 126.734C52.768 126.171 52.6385 125.519 52.6072 124.776C52.5759 124.033 52.6403 123.226 52.8003 122.355C52.9297 121.65 53.116 121.044 53.3592 120.537C53.5982 120.029 53.8834 119.618 54.2148 119.304C54.5454 118.994 54.9176 118.782 55.3314 118.668C55.7401 118.558 56.1815 118.546 56.6554 118.633C56.9842 118.693 57.3089 118.813 57.6293 118.991C57.9447 119.172 58.2168 119.421 58.4458 119.737C58.6704 120.052 58.8311 120.439 58.9277 120.898C59.0236 121.361 59.0143 121.905 58.8997 122.528C58.8009 123.066 58.6384 123.531 58.412 123.922C58.1814 124.312 57.9118 124.627 57.603 124.866C57.2935 125.109 56.9563 125.274 56.5915 125.362C56.2259 125.454 55.8553 125.465 55.4795 125.396C55.3343 125.369 55.2064 125.333 55.0958 125.286C54.9845 125.243 54.8892 125.197 54.8101 125.147C54.731 125.097 54.6633 125.045 54.6071 124.991C54.5501 124.941 54.4995 124.891 54.4553 124.844Z" fill="white"/>
<path d="M50.4365 117.948C50.4517 117.894 50.4808 117.83 50.524 117.756C50.5618 117.685 50.6263 117.624 50.7175 117.572C50.8033 117.524 50.9177 117.494 51.0607 117.484C51.2048 117.47 51.3882 117.494 51.6107 117.556C51.8332 117.617 51.9998 117.693 52.1106 117.783C52.2225 117.868 52.3001 117.955 52.3432 118.044C52.3864 118.133 52.4058 118.218 52.4016 118.298C52.3932 118.377 52.3826 118.439 52.3698 118.486L51.0188 123.347C50.985 123.469 50.9852 123.582 51.0195 123.687C51.0484 123.794 51.13 123.866 51.2644 123.904C51.3357 123.924 51.4001 123.928 51.4575 123.917C51.5149 123.906 51.5793 123.885 51.651 123.855L51.7394 124.049C51.6207 124.102 51.4921 124.15 51.3535 124.193C51.2096 124.239 51.0602 124.272 50.9054 124.292C50.7505 124.313 50.588 124.32 50.418 124.313C50.248 124.307 50.0748 124.279 49.8985 124.23C49.6256 124.154 49.4241 124.057 49.2939 123.94C49.1626 123.826 49.0765 123.705 49.0354 123.576C48.9932 123.451 48.9827 123.326 49.004 123.201C49.021 123.075 49.0424 122.965 49.068 122.873L50.4365 117.948ZM50.507 125.946C50.4744 126.063 50.4183 126.167 50.3387 126.258C50.2538 126.352 50.1541 126.426 50.0396 126.48C49.9209 126.533 49.7942 126.566 49.6596 126.578C49.5208 126.59 49.378 126.575 49.231 126.534C49.0883 126.494 48.9625 126.434 48.8536 126.354C48.7405 126.273 48.6488 126.18 48.5786 126.074C48.5084 125.969 48.4633 125.855 48.4432 125.732C48.4178 125.611 48.4215 125.493 48.4541 125.375C48.488 125.253 48.5467 125.148 48.6305 125.058C48.71 124.967 48.8071 124.894 48.9216 124.84C49.035 124.79 49.161 124.76 49.2998 124.749C49.4344 124.736 49.573 124.75 49.7158 124.79C49.8627 124.83 49.9927 124.891 50.1059 124.973C50.2148 125.053 50.307 125.144 50.3826 125.246C50.4528 125.352 50.5006 125.464 50.526 125.584C50.5472 125.703 50.5409 125.824 50.507 125.946Z" fill="white"/>
<path d="M44.489 118.673C44.2912 119.185 44.1578 119.603 44.0888 119.927C44.0142 120.253 43.9849 120.51 44.0009 120.698C44.0153 120.891 44.0598 121.029 44.1345 121.114C44.2075 121.203 44.2929 121.267 44.3904 121.304C44.5083 121.35 44.6265 121.358 44.7451 121.329C44.8581 121.303 44.9648 121.262 45.0653 121.208C45.1618 121.151 45.2501 121.092 45.3302 121.03C45.4064 120.966 45.4685 120.92 45.5167 120.891L47.0899 116.819C47.1103 116.766 47.1436 116.704 47.1896 116.633C47.2342 116.566 47.3023 116.511 47.394 116.467C47.4801 116.425 47.5948 116.407 47.7381 116.411C47.8788 116.409 48.0569 116.45 48.2724 116.533C48.4878 116.616 48.6483 116.708 48.7539 116.81C48.857 116.906 48.9277 117.001 48.966 117.095C49.0044 117.189 49.0176 117.276 49.0056 117.356C48.9935 117.435 48.9789 117.497 48.9616 117.542L47.1436 122.249C47.098 122.366 47.0872 122.479 47.1112 122.586C47.1295 122.696 47.2036 122.776 47.3337 122.826C47.4028 122.853 47.4665 122.864 47.5246 122.858C47.5828 122.853 47.649 122.839 47.7232 122.816L47.7924 123.018C47.669 123.059 47.5364 123.094 47.3943 123.123C47.2466 123.155 47.0947 123.173 46.9386 123.178C46.7824 123.183 46.6201 123.174 46.4515 123.151C46.2829 123.128 46.1133 123.084 45.9426 123.018C45.6784 122.916 45.4904 122.792 45.3786 122.646C45.2652 122.504 45.1976 122.359 45.1756 122.21C45.1536 122.061 45.1624 121.918 45.202 121.779C45.236 121.643 45.2702 121.53 45.3048 121.44C45.0712 121.598 44.8259 121.725 44.5689 121.822C44.4634 121.865 44.3506 121.903 44.2304 121.936C44.1062 121.967 43.981 121.989 43.8549 122.001C43.7232 122.016 43.5921 122.016 43.4617 122.003C43.3272 121.989 43.1969 121.957 43.0709 121.909C42.7945 121.802 42.5711 121.655 42.4005 121.467C42.2259 121.279 42.1134 121.032 42.0628 120.727C42.0123 120.423 42.0276 120.051 42.109 119.61C42.1888 119.174 42.3456 118.653 42.5796 118.047C42.8072 117.458 43.0579 116.966 43.3315 116.572C43.6052 116.178 43.8863 115.862 44.1747 115.623C44.4632 115.384 44.7521 115.21 45.0413 115.103C45.3321 114.991 45.6084 114.922 45.8703 114.897C46.1321 114.872 46.3725 114.879 46.5915 114.917C46.8079 114.949 46.9901 114.991 47.138 115.044L47.1085 115.32C46.9756 115.301 46.8465 115.302 46.7213 115.324C46.5921 115.344 46.4621 115.397 46.3312 115.482C46.2003 115.567 46.0678 115.686 45.9337 115.84C45.798 115.997 45.6552 116.204 45.5053 116.459C45.3513 116.712 45.1927 117.02 45.0295 117.382C44.8607 117.747 44.6805 118.177 44.489 118.673Z" fill="white"/>
<path d="M8.97768 83.1982C8.3298 82.9877 7.75268 82.7923 7.24632 82.612C6.73869 82.4276 6.29303 82.2518 5.90933 82.0847C5.52144 81.9188 5.18944 81.7567 4.91332 81.5981C4.63594 81.4354 4.40291 81.2685 4.21424 81.0972C4.02012 80.9231 3.86429 80.7396 3.74673 80.5469C3.62917 80.3542 3.53564 80.1428 3.46614 79.9127C3.30061 79.3648 3.39353 79.0377 3.7449 78.9316C3.79091 78.9177 3.84655 78.9054 3.91182 78.8948C3.9771 78.8842 4.0428 78.8826 4.10895 78.8901C4.17383 78.8933 4.2335 78.9095 4.28797 78.9387C4.34243 78.9679 4.37914 79.0138 4.3981 79.0766C4.412 79.1226 4.40542 79.1839 4.37836 79.2606C4.35003 79.333 4.32069 79.4172 4.29032 79.5131C4.25576 79.6103 4.23128 79.7181 4.21685 79.8366C4.19825 79.9563 4.20853 80.081 4.2477 80.2107C4.29067 80.3529 4.39851 80.4984 4.57123 80.647C4.74269 80.7915 4.96103 80.9401 5.22626 81.0928C5.49023 81.2413 5.79081 81.3901 6.12802 81.5393C6.45978 81.6856 6.80954 81.831 7.1773 81.9755C8.41834 80.9159 9.4918 79.9891 10.3977 79.1951C11.3023 78.3969 12.0403 77.6969 12.6117 77.0952C13.1777 76.4906 13.5774 75.9704 13.811 75.5347C14.0445 75.099 14.1101 74.7117 14.0078 74.3729C13.9901 74.3143 13.964 74.2583 13.9296 74.2048C13.8952 74.1513 13.8606 74.1047 13.8258 74.065C13.7884 74.0169 13.7448 73.9708 13.6949 73.9265L13.8998 73.7208C13.9631 73.7793 14.043 73.8624 14.1395 73.9702C14.2347 74.0738 14.3333 74.2038 14.4353 74.3601C14.5402 74.511 14.6425 74.6833 14.742 74.8769C14.8416 75.0705 14.9268 75.2844 14.9975 75.5186C15.0948 75.8407 15.135 76.155 15.118 76.4614C15.101 76.7678 15.0194 77.0869 14.8731 77.4186C14.7297 77.7449 14.5146 78.0906 14.2278 78.4557C13.9439 78.8154 13.5822 79.2122 13.1427 79.6463C12.702 80.0761 12.1805 80.5486 11.5784 81.0637C10.9763 81.5788 10.2819 82.1515 9.49546 82.7816L9.92513 82.912L13.7965 81.7425C14.1186 81.6452 14.3787 81.6602 14.5769 81.7875C14.7739 81.9106 14.9248 82.1457 15.0297 82.4929C15.1358 82.8443 15.141 83.1257 15.0451 83.3373C14.9492 83.5488 14.7403 83.7033 14.4182 83.8006L6.8637 86.0826C6.77168 86.1104 6.70163 86.143 6.65357 86.1803C6.60551 86.2177 6.57253 86.2596 6.55462 86.3061C6.53253 86.3539 6.52551 86.4062 6.53357 86.4631C6.53619 86.5171 6.54697 86.5754 6.56593 86.6382C6.59373 86.7302 6.64312 86.8408 6.7141 86.97C6.78381 87.095 6.8707 87.224 6.97475 87.3569C7.0788 87.4898 7.19812 87.6203 7.33272 87.7486C7.46187 87.8739 7.59915 87.9808 7.74455 88.0692C7.88869 88.1535 8.03906 88.2131 8.19566 88.2479C8.35226 88.2828 8.50794 88.2768 8.66271 88.2301C8.79657 88.1896 8.89818 88.1407 8.96755 88.0832C9.03565 88.0216 9.08367 87.9614 9.1116 87.9028C9.13535 87.8454 9.14655 87.7918 9.1452 87.742C9.1384 87.6893 9.13184 87.6524 9.12552 87.6315C9.09393 87.5269 9.0513 87.4462 8.99761 87.3894C8.93975 87.3339 8.88378 87.2846 8.82971 87.2416C8.77145 87.1998 8.71864 87.161 8.67128 87.1251C8.61847 87.0863 8.58258 87.0355 8.56363 86.9728C8.54847 86.9226 8.54522 86.8665 8.55389 86.8045C8.55712 86.7396 8.57688 86.6766 8.61317 86.6154C8.6482 86.5501 8.7025 86.488 8.77605 86.4293C8.84542 86.3718 8.93866 86.3254 9.05578 86.29C9.2231 86.2395 9.37753 86.2293 9.51905 86.2596C9.65931 86.2857 9.78707 86.3384 9.90232 86.4177C10.0121 86.4941 10.1082 86.5929 10.1904 86.7141C10.2672 86.8324 10.3252 86.9564 10.3644 87.0861C10.4251 87.2869 10.4466 87.4789 10.4289 87.6623C10.4058 87.8427 10.3507 88.0077 10.2635 88.1573C10.1763 88.3069 10.06 88.4356 9.91454 88.5435C9.76909 88.6513 9.60434 88.733 9.42029 88.7886C9.13167 88.8758 8.85234 88.9031 8.58232 88.8706C8.30812 88.8393 8.04764 88.7628 7.80089 88.6411C7.55287 88.5151 7.32111 88.3523 7.1056 88.1527C6.88464 87.9501 6.68309 87.7211 6.50096 87.4658C6.31883 87.2104 6.158 86.9349 6.01848 86.6392C5.87478 86.3449 5.75617 86.0429 5.66266 85.7334C5.55905 85.3904 5.51227 85.1146 5.52234 84.9062C5.52696 84.6948 5.56201 84.5313 5.6275 84.4156C5.69173 84.2958 5.77151 84.2124 5.86685 84.1653C5.96218 84.1183 6.04332 84.0846 6.11024 84.0644L8.97768 83.1982Z" fill="white"/>
<path d="M10.0441 74.7052C10.1821 74.6853 10.3303 74.6442 10.4885 74.5817C10.6419 74.5156 10.7949 74.4319 10.9476 74.3307C11.1003 74.2294 11.2441 74.1119 11.3789 73.978C11.5087 73.8404 11.6213 73.6899 11.7166 73.5265C11.8113 73.3588 11.8801 73.1794 11.923 72.9883C11.9659 72.7972 11.9718 72.5939 11.9407 72.3782C11.919 72.2273 11.8815 72.0896 11.8284 71.9652C11.7752 71.8408 11.7104 71.7269 11.6339 71.6234C11.5573 71.52 11.4728 71.4221 11.3802 71.3298C11.2834 71.2381 11.1822 71.147 11.0767 71.0566L11.2087 70.8725C11.3567 70.9524 11.5216 71.0585 11.7036 71.1908C11.8855 71.323 12.0635 71.4889 12.2375 71.6883C12.4072 71.8884 12.5606 72.1282 12.6978 72.4078C12.8306 72.688 12.9241 73.0157 12.9781 73.3909C13.0322 73.7661 13.0182 74.1424 12.9361 74.5196C12.849 74.8931 12.6895 75.2375 12.4576 75.5526C12.2257 75.8678 11.9191 76.1387 11.538 76.3653C11.1562 76.5876 10.6936 76.7379 10.1502 76.8162C9.75774 76.8728 9.39048 76.8751 9.04842 76.8231C8.70635 76.7712 8.39167 76.68 8.10435 76.5497C7.81642 76.4151 7.5571 76.25 7.3264 76.0543C7.09507 75.8543 6.8967 75.6386 6.73127 75.4071C6.56153 75.1762 6.42567 74.9361 6.32369 74.6866C6.21678 74.4335 6.14592 74.1862 6.11112 73.9447C6.06513 73.6255 6.05954 73.3424 6.09437 73.0952C6.12919 72.8481 6.19363 72.6385 6.28771 72.4665C6.38115 72.2901 6.49992 72.1519 6.64399 72.0519C6.78375 71.9526 6.93772 71.8907 7.10592 71.8665C7.30862 71.8373 7.5003 71.8691 7.68096 71.9619C7.85731 72.0554 8.01985 72.1904 8.16857 72.3671L10.0441 74.7052ZM8.5435 73.5942C8.50091 73.5431 8.46204 73.5024 8.42688 73.4723C8.38679 73.4384 8.34362 73.4138 8.29739 73.3985C8.24684 73.3838 8.1886 73.3768 8.12267 73.3775C8.0518 73.3745 7.96677 73.3801 7.86757 73.3944C7.75976 73.4099 7.64302 73.44 7.51737 73.4845C7.38678 73.5253 7.2673 73.5822 7.15894 73.655C7.05058 73.7278 6.96379 73.813 6.89859 73.9104C6.83339 74.0079 6.80949 74.117 6.8269 74.2377C6.84927 74.393 6.91597 74.5198 7.02701 74.6183C7.13312 74.7131 7.26477 74.7865 7.42197 74.8387C7.57854 74.8866 7.75482 74.9184 7.95079 74.9342C8.14183 74.9463 8.33379 74.9495 8.52666 74.9437C8.71952 74.9379 8.90468 74.9244 9.08212 74.9033C9.25525 74.8827 9.4022 74.8637 9.52295 74.8463L8.5435 73.5942Z" fill="white"/>
<path d="M6.16271 68.2662C6.16712 68.3663 6.18439 68.4615 6.21454 68.5518C6.24449 68.6377 6.29146 68.7141 6.35547 68.7811C6.41513 68.8482 6.49152 68.8994 6.58466 68.9346C6.67345 68.9699 6.77878 68.9849 6.90067 68.9795C7.07044 68.9721 7.23753 68.9036 7.40193 68.7743C7.56179 68.6408 7.72911 68.4786 7.9039 68.2877C8.07413 68.0927 8.2525 67.8842 8.439 67.6623C8.62096 67.4362 8.81674 67.2269 9.02635 67.0345C9.23141 66.8379 9.45314 66.6734 9.69155 66.5407C9.92977 66.4038 10.1882 66.3292 10.4668 66.3169C10.7715 66.3035 11.048 66.3437 11.2964 66.4374C11.5402 66.527 11.7512 66.6638 11.9294 66.8479C12.1031 67.0278 12.2437 67.2506 12.3514 67.5162C12.4547 67.7821 12.518 68.0803 12.5412 68.4107L13.0029 68.4951C12.9908 68.2208 13.013 67.9821 13.0695 67.779C13.1258 67.5716 13.2054 67.398 13.3083 67.2582C13.4112 67.1185 13.5286 67.013 13.6607 66.9418C13.797 66.866 13.9369 66.8249 14.0805 66.8186C14.3461 66.8069 14.5683 66.8517 14.7472 66.9528C14.9259 67.0496 15.0691 67.1807 15.1767 67.3461C15.2884 67.5069 15.3683 67.6866 15.4163 67.8851C15.4686 68.0834 15.4988 68.274 15.5069 68.4568C15.5147 68.6353 15.5069 68.8036 15.4833 68.9616C15.4597 69.1197 15.4269 69.265 15.3847 69.3977C15.3424 69.5261 15.2952 69.6416 15.243 69.7442C15.1908 69.8468 15.14 69.9319 15.0907 69.9995L14.87 69.8914C14.9579 69.7088 15.0173 69.523 15.0483 69.334C15.0834 69.1406 15.0926 68.9526 15.0758 68.7702C15.0503 68.4878 14.9684 68.2625 14.8302 68.0941C14.6917 67.9214 14.4788 67.8413 14.1915 67.854C14.0174 67.8616 13.873 67.9007 13.7584 67.9712C13.6481 68.0414 13.5605 68.1325 13.4956 68.2444C13.4349 68.3518 13.3923 68.4736 13.3678 68.6099C13.3432 68.7461 13.3318 68.8819 13.3333 69.017L12.5346 68.8559C12.5151 69.1053 12.4664 69.3365 12.3885 69.5492C12.3061 69.7579 12.2097 69.9453 12.0992 70.1115C11.9886 70.2734 11.8749 70.4158 11.7582 70.5387C11.637 70.6574 11.5277 70.7516 11.4305 70.8213L11.2572 70.6C11.32 70.5405 11.3886 70.4655 11.4632 70.375C11.5333 70.2847 11.5988 70.1859 11.6595 70.0785C11.72 69.9668 11.7693 69.8491 11.8075 69.7253C11.8413 69.6017 11.8554 69.4767 11.8498 69.3505C11.8361 69.0371 11.7508 68.7835 11.5939 68.5898C11.4328 68.3963 11.2042 68.306 10.9082 68.319C10.7427 68.3263 10.5754 68.3882 10.406 68.5047C10.2324 68.6214 10.0556 68.7665 9.87566 68.9402C9.69576 69.1138 9.5099 69.3008 9.31809 69.5012C9.12628 69.7015 8.92736 69.8891 8.72134 70.0639C8.51532 70.2387 8.30153 70.3855 8.07996 70.5043C7.85839 70.6231 7.62572 70.6879 7.38195 70.6986C7.1077 70.7107 6.86589 70.6668 6.65651 70.567C6.44693 70.4628 6.27065 70.3222 6.12766 70.1454C5.98447 69.9641 5.87506 69.7574 5.79942 69.5252C5.71923 69.2888 5.67358 69.0444 5.66247 68.792C5.64964 68.5003 5.66407 68.2336 5.70577 67.9919C5.74747 67.7502 5.819 67.542 5.92035 67.3675C6.01716 67.1888 6.14409 67.0501 6.30113 66.9516C6.45798 66.8488 6.64305 66.7927 6.85635 66.7833C7.02177 66.776 7.16781 66.8241 7.29449 66.9276C7.42116 67.031 7.48881 67.1807 7.49743 67.3766C7.50567 67.5638 7.47282 67.7091 7.39887 67.8127C7.32037 67.9121 7.21148 67.9649 7.07218 67.971C6.98076 67.975 6.90798 67.9564 6.85383 67.9152C6.79948 67.8696 6.75583 67.8192 6.72287 67.764C6.68555 67.7089 6.65506 67.6601 6.63137 67.6175C6.60315 67.5708 6.56945 67.5483 6.53027 67.55C6.40838 67.5554 6.31549 67.6249 6.25159 67.7585C6.18333 67.8924 6.15371 68.0616 6.16271 68.2662Z" fill="white"/>
<path d="M2.78395 61.6504C2.77926 61.7723 2.80096 61.8887 2.84902 61.9995C2.89709 62.1104 2.97831 62.2094 3.0927 62.2967C3.20289 62.3794 3.34633 62.4481 3.523 62.5029C3.69968 62.5576 3.91429 62.5899 4.16682 62.5996L5.77347 62.6613L5.82842 61.231L6.29866 61.2491L6.24371 62.6794L11.3902 62.8771C11.9824 62.8998 12.5258 62.9992 13.0205 63.1752C13.5154 63.3468 13.9375 63.5963 14.2868 63.9237C14.6405 64.2512 14.9106 64.654 15.0972 65.1321C15.2838 65.6102 15.365 66.1628 15.341 66.7898C15.3324 67.0118 15.3046 67.2244 15.2576 67.4276C15.2149 67.6309 15.1579 67.8096 15.0865 67.9639C15.0152 68.1181 14.9321 68.2392 14.8371 68.3271C14.7464 68.4196 14.6466 68.4637 14.5377 68.4595C14.4593 68.4565 14.3792 68.4425 14.2973 68.4176C14.2198 68.3928 14.1492 68.3574 14.0855 68.3113C14.0219 68.2653 13.9696 68.2088 13.9285 68.1418C13.8917 68.0793 13.8749 68.0067 13.878 67.924C13.8799 67.8761 13.9055 67.8335 13.9549 67.7961C14.0041 67.7631 14.0643 67.7284 14.1355 67.6919C14.2067 67.6554 14.2846 67.6126 14.3694 67.5635C14.4583 67.5189 14.5391 67.4588 14.6118 67.3831C14.6844 67.3074 14.747 67.2117 14.7994 67.096C14.8516 66.9846 14.8809 66.8462 14.8873 66.6808C14.8958 66.4587 14.8576 66.261 14.7727 66.0877C14.6922 65.9146 14.5758 65.764 14.4238 65.6361C14.2717 65.5081 14.0906 65.3987 13.8804 65.3078C13.6703 65.2169 13.4442 65.1428 13.2022 65.0855C12.9602 65.0282 12.7067 64.9858 12.4418 64.9582C12.1771 64.9262 11.9119 64.9051 11.6463 64.8949L6.16669 64.6844L6.12052 65.8861L5.65028 65.8681L5.69645 64.6663L4.93231 64.637C4.54915 64.6223 4.21782 64.5638 3.93832 64.4615C3.65463 64.3546 3.41557 64.2212 3.22114 64.0611C3.02687 63.8966 2.87037 63.714 2.75163 63.5132C2.63289 63.3125 2.54035 63.1105 2.47403 62.9074C2.40787 62.6999 2.36541 62.4999 2.34665 62.3073C2.32788 62.1147 2.32126 61.9466 2.32678 61.8029C2.33865 61.4937 2.37314 61.2203 2.43023 60.9827C2.48297 60.7449 2.55162 60.547 2.63619 60.3889C2.71639 60.2306 2.80816 60.112 2.91148 60.0332C3.0148 59.9543 3.11871 59.9169 3.22321 59.9209C3.30158 59.9239 3.38163 59.94 3.46336 59.9693C3.54089 59.9941 3.61366 60.0296 3.68165 60.0758C3.74529 60.1219 3.79762 60.1784 3.83865 60.2454C3.8755 60.3078 3.89242 60.3783 3.88941 60.4566C3.88757 60.5045 3.85977 60.5471 3.80601 60.5843C3.75226 60.6214 3.68536 60.6603 3.60531 60.7008C3.52527 60.7413 3.43852 60.786 3.34508 60.8347C3.25164 60.8835 3.16423 60.9455 3.08284 61.0209C3.00162 61.0919 2.93288 61.1786 2.87662 61.2811C2.82036 61.3836 2.78947 61.5067 2.78395 61.6504Z" fill="white"/>
<path d="M9.81058 59.2099C9.94862 59.2281 10.1021 59.2285 10.2712 59.2112C10.4364 59.189 10.6061 59.1499 10.7803 59.0937C10.9544 59.0376 11.1243 58.9634 11.29 58.8711C11.4519 58.7738 11.6008 58.6595 11.7365 58.5282C11.8728 58.3925 11.9874 58.2386 12.0802 58.0665C12.173 57.8944 12.2336 57.7005 12.2619 57.4848C12.2817 57.3338 12.2829 57.1913 12.2653 57.0574C12.2478 56.9235 12.2162 56.7964 12.1706 56.6764C12.1249 56.5563 12.07 56.4394 12.006 56.3256C11.9376 56.2113 11.865 56.0965 11.788 55.9811L11.9645 55.8397C12.0852 55.9565 12.2151 56.103 12.3544 56.2792C12.4936 56.4555 12.6199 56.663 12.7334 56.9016C12.8425 57.1398 12.9253 57.4117 12.9817 57.7175C13.0337 58.0228 13.0351 58.363 12.9859 58.7383C12.9366 59.1136 12.8216 59.4715 12.6408 59.812C12.4563 60.1476 12.2101 60.4356 11.9021 60.6759C11.5941 60.9163 11.2263 61.094 10.7987 61.209C10.3717 61.3197 9.8864 61.3393 9.34287 61.268C8.95032 61.2164 8.59664 61.1195 8.28183 60.9773C7.96702 60.835 7.68909 60.6625 7.44804 60.4597C7.20757 60.2526 7.00284 60.0238 6.83386 59.7735C6.66545 59.5188 6.53297 59.2578 6.43641 58.9907C6.33554 58.7229 6.26975 58.4554 6.23903 58.188C6.20456 57.9158 6.20319 57.659 6.23491 57.4174C6.27683 57.0982 6.34787 56.8245 6.44805 56.5963C6.54822 56.3681 6.66674 56.184 6.8036 56.044C6.94103 55.8997 7.09249 55.7989 7.25798 55.7417C7.41916 55.6838 7.58386 55.666 7.75209 55.6881C7.95484 55.7147 8.13052 55.797 8.27915 55.935C8.42346 56.0724 8.54327 56.2461 8.63856 56.4561L9.81058 59.2099ZM8.66784 57.7369C8.6407 57.6763 8.61429 57.6267 8.58863 57.5882C8.55921 57.5449 8.52436 57.5096 8.48405 57.4824C8.43943 57.4546 8.38534 57.4321 8.32177 57.415C8.25445 57.393 8.17118 57.3755 8.07196 57.3624C7.96412 57.3483 7.84379 57.3456 7.71098 57.3545C7.57443 57.3585 7.44423 57.3809 7.3204 57.4217C7.19656 57.4625 7.09016 57.5209 7.00118 57.597C6.91221 57.6731 6.85979 57.7715 6.84393 57.8923C6.82354 58.0476 6.85343 58.1875 6.9336 58.3122C7.01003 58.4319 7.11676 58.5381 7.2538 58.6307C7.3914 58.7189 7.55227 58.7971 7.73641 58.8652C7.9168 58.9284 8.10048 58.9832 8.28745 59.0297C8.47442 59.0762 8.65606 59.1132 8.83235 59.1407C9.00433 59.1677 9.15072 59.1891 9.2715 59.205L8.66784 57.7369Z" fill="white"/>
<path d="M10.7904 51.0869C10.7439 51.0754 10.6509 51.0524 10.5114 51.0179C10.3677 50.9824 10.204 50.9463 10.0201 50.9098C9.83206 50.8723 9.63187 50.8384 9.41954 50.8083C9.20721 50.7782 9.00653 50.7644 8.81751 50.767C8.66139 50.836 8.51693 50.9214 8.38412 51.0231C8.24813 51.1195 8.15608 51.2649 8.10798 51.4594C8.02641 51.789 8.18183 52.0854 8.57425 52.3484C8.96771 52.6073 9.61668 52.8486 10.5212 53.0723C10.9185 53.1706 11.2861 53.2437 11.6242 53.2914C11.9633 53.335 12.26 53.3501 12.5145 53.3368C12.77 53.3193 12.9774 53.2697 13.1366 53.188C13.2969 53.102 13.397 52.9788 13.4367 52.8182C13.604 52.1419 12.7219 51.5648 10.7904 51.0869ZM7.98203 50.4728C7.5395 50.4485 7.11872 50.4633 6.71968 50.5171C6.31642 50.5698 5.95655 50.6646 5.64008 50.8016C5.32466 50.9344 5.05897 51.1109 4.84302 51.3311C4.62812 51.547 4.48407 51.8029 4.41087 52.0988C4.36904 52.2678 4.352 52.4273 4.35976 52.5773C4.36856 52.723 4.39 52.8539 4.42407 52.9699C4.45392 53.085 4.48795 53.1831 4.52616 53.2643C4.5612 53.3403 4.58773 53.3962 4.60577 53.432L4.34309 53.542C4.23717 53.4081 4.14492 53.2552 4.06636 53.0833C3.98885 52.9071 3.93137 52.7224 3.89394 52.5293C3.85651 52.3361 3.83808 52.1387 3.83865 51.937C3.84026 51.7311 3.8646 51.533 3.91166 51.3428C4.06643 50.7173 4.33974 50.2018 4.73159 49.7964C5.11921 49.39 5.6016 49.0899 6.17877 48.8964C6.75593 48.7028 7.4173 48.613 8.16288 48.627C8.90845 48.641 9.71235 48.7547 10.5746 48.9681C11.2719 49.1406 11.867 49.3641 12.3598 49.6385C12.8536 49.9087 13.2477 50.2193 13.5421 50.5702C13.8323 50.9201 14.0218 51.3056 14.1104 51.7267C14.1959 52.1426 14.1806 52.5851 14.0645 53.0542C13.984 53.3797 13.8449 53.6974 13.6471 54.0072C13.4461 54.3119 13.1807 54.5691 12.8506 54.779C12.5217 54.9847 12.1244 55.1219 11.6589 55.1906C11.1891 55.2582 10.6457 55.2157 10.0286 55.0631C9.49607 54.9313 9.041 54.7402 8.6634 54.4898C8.28684 54.2352 7.98835 53.946 7.76791 53.6223C7.54325 53.2976 7.39826 52.95 7.33295 52.5795C7.2634 52.208 7.27465 51.8363 7.36667 51.4643C7.40223 51.3206 7.4468 51.1948 7.5004 51.087C7.54976 50.9781 7.60181 50.8856 7.65654 50.8094C7.71127 50.7333 7.76761 50.6687 7.82556 50.6158C7.87928 50.5618 7.93144 50.5141 7.98203 50.4728Z" fill="white"/>
<path d="M15.2341 46.9248C15.2875 46.9437 15.3496 46.9772 15.4204 47.0254C15.4885 47.0679 15.5452 47.1365 15.5903 47.231C15.6328 47.32 15.6541 47.4362 15.6542 47.5795C15.6585 47.7243 15.6221 47.9055 15.5451 48.1232C15.4681 48.341 15.3811 48.502 15.2841 48.6063C15.1912 48.7121 15.0989 48.7835 15.0073 48.8204C14.9157 48.8573 14.83 48.8709 14.7502 48.8612C14.6719 48.8474 14.6102 48.8325 14.565 48.8165L9.80809 47.1338C9.68896 47.0917 9.57609 47.0841 9.46949 47.1111C9.36022 47.1326 9.28234 47.209 9.23584 47.3405C9.21114 47.4103 9.2024 47.4742 9.20961 47.5322C9.21682 47.5902 9.23285 47.656 9.25769 47.7295L9.05787 47.8044C9.01324 47.6823 8.9743 47.5507 8.94105 47.4095C8.90513 47.2628 8.8824 47.1114 8.87284 46.9555C8.86328 46.7996 8.86762 46.6371 8.88587 46.4679C8.90412 46.2987 8.94375 46.1279 9.00478 45.9554C9.09923 45.6883 9.20958 45.494 9.33583 45.3722C9.45797 45.2491 9.5848 45.1715 9.71631 45.1394C9.8437 45.1059 9.96915 45.104 10.0926 45.1339C10.2176 45.1596 10.3252 45.1884 10.4156 45.2204L15.2341 46.9248ZM7.25116 46.4443C7.13614 46.4036 7.036 46.3405 6.95074 46.2548C6.86282 46.1637 6.79583 46.0591 6.74974 45.9411C6.70512 45.819 6.68128 45.6904 6.67823 45.5553C6.67663 45.4161 6.70127 45.2746 6.75212 45.1308C6.80153 44.9911 6.86989 44.8697 6.95722 44.7666C7.04599 44.6593 7.14539 44.5743 7.25541 44.5116C7.36542 44.4488 7.48255 44.4117 7.60679 44.4001C7.72838 44.3831 7.84668 44.3949 7.9617 44.4356C8.08083 44.4777 8.1823 44.5436 8.26611 44.6334C8.35137 44.719 8.41704 44.8208 8.46312 44.9388C8.50509 45.0553 8.52688 45.1832 8.52847 45.3224C8.53152 45.4575 8.50834 45.5949 8.45894 45.7345C8.40808 45.8783 8.33826 46.0038 8.24949 46.1111C8.16216 46.2142 8.06482 46.3 7.95746 46.3683C7.84744 46.4311 7.73164 46.471 7.61005 46.4881C7.48992 46.501 7.37029 46.4864 7.25116 46.4443Z" fill="white"/>
<path d="M14.924 40.9356C14.4267 40.703 14.019 40.5411 13.7008 40.45C13.3805 40.3531 13.1259 40.3062 12.9369 40.3091C12.7439 40.3103 12.6026 40.3452 12.5127 40.4138C12.419 40.4805 12.3499 40.5613 12.3056 40.656C12.2521 40.7705 12.2356 40.8879 12.2563 41.0082C12.2749 41.1227 12.308 41.232 12.3555 41.336C12.4049 41.4361 12.458 41.5283 12.5148 41.6125C12.5734 41.6929 12.6151 41.7581 12.6398 41.8081L16.5944 43.6581C16.6457 43.6821 16.7052 43.7195 16.7728 43.7704C16.8365 43.8194 16.8871 43.8912 16.9246 43.9857C16.9601 44.0745 16.9709 44.1902 16.9571 44.3328C16.949 44.4734 16.8961 44.6483 16.7983 44.8574C16.7004 45.0666 16.5972 45.2204 16.4887 45.3187C16.3859 45.415 16.2862 45.479 16.1896 45.5107C16.0929 45.5425 16.0054 45.5497 15.927 45.5322C15.8486 45.5148 15.7876 45.4959 15.7442 45.4756L11.1738 43.3376C11.0594 43.284 10.9478 43.2655 10.8391 43.282C10.7282 43.2927 10.6433 43.3612 10.5842 43.4875C10.5528 43.5546 10.5379 43.6173 10.5394 43.6758C10.5409 43.7342 10.5505 43.8012 10.568 43.8768L10.3619 43.9319C10.3294 43.806 10.3034 43.6712 10.2841 43.5275C10.2626 43.3779 10.2547 43.2251 10.2604 43.069C10.2661 42.9129 10.2862 42.7516 10.3209 42.585C10.3555 42.4184 10.4116 42.2522 10.4892 42.0865C10.6092 41.8299 10.7458 41.6509 10.8991 41.5494C11.0485 41.4461 11.198 41.3886 11.3478 41.3769C11.4976 41.3652 11.6404 41.3839 11.7762 41.433C11.9099 41.4763 12.0201 41.5182 12.1069 41.5589C11.9661 41.315 11.8562 41.0615 11.7772 40.7985C11.7412 40.6902 11.7109 40.5751 11.6863 40.4529C11.6635 40.3268 11.6504 40.2004 11.6471 40.0738C11.6417 39.9414 11.65 39.8106 11.672 39.6813C11.6958 39.5482 11.7363 39.4204 11.7936 39.2981C11.9191 39.0297 12.0812 38.8169 12.2798 38.6596C12.4803 38.4985 12.7341 38.4031 13.0413 38.3737C13.3486 38.3442 13.719 38.3852 14.1527 38.4967C14.5825 38.6064 15.0914 38.7987 15.6795 39.0738C16.2518 39.3415 16.7251 39.6255 17.0994 39.9256C17.4737 40.2258 17.77 40.528 17.9885 40.8323C18.207 41.1365 18.36 41.4366 18.4477 41.7325C18.5393 42.0303 18.5885 42.3107 18.5954 42.5737C18.6022 42.8367 18.5792 43.0761 18.5264 43.2919C18.4793 43.5056 18.4245 43.6844 18.362 43.8283L18.0888 43.7799C18.1166 43.6486 18.1239 43.5197 18.1109 43.3934C18.0997 43.2631 18.0563 43.1297 17.9806 42.9933C17.9049 42.8568 17.795 42.7164 17.6509 42.572C17.5028 42.4258 17.3067 42.2691 17.0626 42.102C16.8203 41.931 16.5242 41.7516 16.1743 41.5638C15.8223 41.3703 15.4055 41.1609 14.924 40.9356Z" fill="white"/>
</g>
<defs>
<clipPath id="clip0_2316_150">
<rect width="132" height="132" fill="white"/>
</clipPath>
</defs>
</svg>
