<svg width="13" height="17" viewBox="0 0 13 17" fill="none" xmlns="http://www.w3.org/2000/svg">
<path d="M9.42188 6.61133L4.88867 8.19043V14.6357C6.64323 14.6357 7.97168 14.1094 8.87402 13.0566C9.78353 12.0039 10.2383 10.4176 10.2383 8.29785H12.1289C12.1289 9.99512 11.8353 11.4453 11.248 12.6484C10.668 13.8516 9.8444 14.7467 8.77734 15.334C7.71745 15.9212 6.44987 16.2148 4.97461 16.2148C4.14388 16.2148 3.48503 16.1432 2.99805 16V8.82422L0.645508 9.64062V8.21191L2.99805 7.41699V5.67676L0.645508 6.47168V5.04297L2.99805 4.24805V0.294922H4.88867V3.59277L9.42188 2.03516V3.46387L4.88867 5.02148V6.76172L9.42188 5.19336V6.61133Z" fill="white"/>
</svg>
