<svg width="20" height="20" viewBox="0 0 20 20" fill="none" xmlns="http://www.w3.org/2000/svg">
<path d="M9.58203 4.16925H4.07379C3.65639 4.16925 3.25609 4.33506 2.96095 4.6302C2.66581 4.92534 2.5 5.32564 2.5 5.74304V16.7595C2.5 17.1769 2.66581 17.5772 2.96095 17.8724C3.25609 18.1675 3.65639 18.3333 4.07379 18.3333H15.0903C15.5077 18.3333 15.908 18.1675 16.2031 17.8724C16.4983 17.5772 16.6641 17.1769 16.6641 16.7595V11.2513M15.4837 2.98891C15.7968 2.67587 16.2214 2.5 16.6641 2.5C17.1068 2.5 17.5314 2.67587 17.8444 2.98891C18.1575 3.30196 18.3333 3.72654 18.3333 4.16925C18.3333 4.61196 18.1575 5.03654 17.8444 5.34959L10.3689 12.8251L7.22136 13.612L8.00825 10.4644L15.4837 2.98891Z" stroke="#667085" stroke-width="1.5" stroke-linecap="round" stroke-linejoin="round"/>
</svg>
