<svg width="37" height="36" viewBox="0 0 37 36" fill="none" xmlns="http://www.w3.org/2000/svg">
<g clip-path="url(#clip0_2075_4846)">
<path d="M26.8411 9.05475H10.3479C9.89603 9.05475 9.55713 9.39365 9.55713 9.84552V26.4517C9.55713 26.7906 9.89603 27.1295 10.3479 27.1295H26.954C27.4059 27.1295 27.7448 26.7906 27.7448 26.3387V9.84552C27.6318 9.39365 27.2929 9.05475 26.8411 9.05475ZM14.8666 24.4182H12.2683V15.8328H14.9795V24.4182H14.8666ZM13.6239 14.7031C12.7202 14.7031 12.0424 13.9123 12.0424 13.1216C12.0424 12.2178 12.7202 11.54 13.6239 11.54C14.5277 11.54 15.2055 12.2178 15.2055 13.1216C15.0925 13.9123 14.4147 14.7031 13.6239 14.7031ZM24.9206 24.4182H22.2094V20.2385C22.2094 19.2218 22.2094 17.9791 20.8538 17.9791C19.4982 17.9791 19.2723 19.1088 19.2723 20.2385V24.5312H16.5611V15.8328H19.1593V16.9624C19.4982 16.2846 20.402 15.6068 21.6446 15.6068C24.3558 15.6068 24.8077 17.4143 24.8077 19.6736V24.4182H24.9206Z" fill="#646464"/>
</g>
<defs>
<clipPath id="clip0_2075_4846">
<rect width="18.0747" height="18.0747" fill="white" transform="translate(9.5564 9.05554)"/>
</clipPath>
</defs>
</svg>
