<svg width="37" height="36" viewBox="0 0 37 36" fill="none" xmlns="http://www.w3.org/2000/svg">
<path fill-rule="evenodd" clip-rule="evenodd" d="M27.0275 9.65809C29.1362 9.95934 30.04 11.3149 30.3412 13.273C30.6425 15.2311 30.6425 18.093 30.6425 18.093C30.6425 18.093 30.6425 20.9548 30.3412 22.9129C30.04 24.871 29.1362 26.076 27.0275 26.5278C23.7138 27.1303 18.5927 27.1303 18.5927 27.1303C18.5927 27.1303 13.4715 27.1303 10.1578 26.5278C8.04907 26.2266 7.14534 24.871 6.84409 22.9129C6.54285 20.9548 6.54285 18.093 6.54285 18.093C6.54285 18.093 6.54285 15.2311 6.84409 13.273C6.99471 11.3149 8.04907 9.95934 10.1578 9.65809C13.4715 9.0556 18.5927 9.0556 18.5927 9.0556C18.5927 9.0556 23.7138 9.0556 27.0275 9.65809ZM23.1113 18.0925L15.5802 13.5739V22.6112L23.1113 18.0925Z" fill="#646464"/>
</svg>
