<svg width="68" height="68" viewBox="0 0 68 68" fill="none" xmlns="http://www.w3.org/2000/svg">
<rect x="0.5" y="0.5" width="67" height="67" rx="33.5" fill="#0D824B"/>
<path d="M47.3329 40.56V44.56C47.3344 44.9313 47.2584 45.2989 47.1096 45.6391C46.9608 45.9794 46.7427 46.2848 46.469 46.5358C46.1954 46.7869 45.8724 46.978 45.5206 47.0969C45.1688 47.2159 44.7961 47.2601 44.4263 47.2267C40.3234 46.7809 36.3823 45.3789 32.9196 43.1333C29.698 41.0862 26.9667 38.3549 24.9196 35.1333C22.6662 31.6549 21.2639 27.6947 20.8263 23.5733C20.7929 23.2046 20.8368 22.833 20.9549 22.4822C21.0731 22.1313 21.263 21.8089 21.5126 21.5355C21.7622 21.2621 22.066 21.0436 22.4046 20.894C22.7433 20.7444 23.1094 20.667 23.4796 20.6667H27.4796C28.1267 20.6603 28.754 20.8894 29.2446 21.3114C29.7352 21.7333 30.0557 22.3193 30.1463 22.96C30.3151 24.2401 30.6282 25.497 31.0796 26.7067C31.259 27.1839 31.2978 27.7026 31.1915 28.2012C31.0851 28.6998 30.8381 29.1575 30.4796 29.52L28.7863 31.2133C30.6843 34.5514 33.4482 37.3153 36.7863 39.2133L38.4796 37.52C38.8421 37.1615 39.2998 36.9145 39.7984 36.8081C40.297 36.7018 40.8157 36.7406 41.2929 36.92C42.5026 37.3714 43.7595 37.6845 45.0396 37.8533C45.6873 37.9447 46.2788 38.2709 46.7016 38.77C47.1245 39.269 47.3491 39.9061 47.3329 40.56Z" stroke="white" stroke-width="2" stroke-linecap="round" stroke-linejoin="round"/>
<rect x="0.5" y="0.5" width="67" height="67" rx="33.5" stroke="#EEEEEE"/>
</svg>
