<svg width="68" height="68" viewBox="0 0 68 68" fill="none" xmlns="http://www.w3.org/2000/svg">
<rect x="0.5" y="0.5" width="67" height="67" rx="33.5" fill="#0D824B"/>
<path d="M46 31.3333C46 40.6667 34 48.6667 34 48.6667C34 48.6667 22 40.6667 22 31.3333C22 28.1507 23.2643 25.0985 25.5147 22.8481C27.7652 20.5976 30.8174 19.3333 34 19.3333C37.1826 19.3333 40.2348 20.5976 42.4853 22.8481C44.7357 25.0985 46 28.1507 46 31.3333Z" stroke="white" stroke-width="2" stroke-linecap="round" stroke-linejoin="round"/>
<path d="M34 35.3333C36.2091 35.3333 38 33.5425 38 31.3333C38 29.1242 36.2091 27.3333 34 27.3333C31.7909 27.3333 30 29.1242 30 31.3333C30 33.5425 31.7909 35.3333 34 35.3333Z" stroke="white" stroke-width="2" stroke-linecap="round" stroke-linejoin="round"/>
<rect x="0.5" y="0.5" width="67" height="67" rx="33.5" stroke="#EEEEEE"/>
</svg>
