<svg width="20" height="20" viewBox="0 0 20 20" fill="none" xmlns="http://www.w3.org/2000/svg">
<path d="M1.66675 5.9622V5.2622H0.966748V5.9622H1.66675ZM18.3334 5.9622H19.0334V5.2622H18.3334V5.9622ZM13.088 8.23493V8.93493H14.488V8.23493H13.088ZM5.5122 8.23493V8.93493H6.9122V8.23493H5.5122ZM15.3031 17.3834H4.69705V18.7834H15.3031V17.3834ZM4.69705 17.3834C3.41698 17.3834 2.36675 16.3332 2.36675 15.0531H0.966748C0.966748 17.1064 2.64379 18.7834 4.69705 18.7834V17.3834ZM2.36675 15.0531V5.9622H0.966748V15.0531H2.36675ZM1.66675 6.6622H18.3334V5.2622H1.66675V6.6622ZM17.6334 5.9622V15.0531H19.0334V5.9622H17.6334ZM17.6334 15.0531C17.6334 16.3332 16.5832 17.3834 15.3031 17.3834V18.7834C17.3564 18.7834 19.0334 17.1064 19.0334 15.0531H17.6334ZM14.488 8.23493V5.20463H13.088V8.23493H14.488ZM14.488 5.20463C14.488 2.73469 12.47 0.716748 10.0001 0.716748V2.11675C11.6968 2.11675 13.088 3.50789 13.088 5.20463H14.488ZM10.0001 0.716748C7.53015 0.716748 5.5122 2.73469 5.5122 5.20463H6.9122C6.9122 3.50789 8.30335 2.11675 10.0001 2.11675V0.716748ZM5.5122 5.20463V8.23493H6.9122V5.20463H5.5122Z" fill="white"/>
</svg>
