<svg width="16" height="16" viewBox="0 0 16 16" fill="none" xmlns="http://www.w3.org/2000/svg">
<g clip-path="url(#clip0_1979_4563)">
<path d="M0.299928 15.7C0.499928 15.9 0.699928 16 0.999928 16C1.29993 16 1.49993 15.9 1.69993 15.7L3.49993 13.9C4.39993 14.3 5.69993 14.7 7.09993 14.7C8.69993 14.7 10.3999 14.2 11.9999 12.7C15.3999 9.3 15.9999 1.4 15.9999 1.1C15.9999 0.8 15.8999 0.5 15.6999 0.3C15.4999 0.1 15.1999 0 14.8999 0C14.5999 0 6.49993 0.8 3.29993 4C1.29993 6 0.999928 8.4 1.39993 10.4L7.39993 7.1L0.199928 14.3C-0.100072 14.7 -0.100072 15.3 0.299928 15.7Z" fill="#008523"/>
</g>
<defs>
<clipPath id="clip0_1979_4563">
<rect width="16" height="16" fill="white"/>
</clipPath>
</defs>
</svg>
