<svg width="33" height="33" viewBox="0 0 33 33" fill="none" xmlns="http://www.w3.org/2000/svg">
<path fill-rule="evenodd" clip-rule="evenodd" d="M25.0275 8.15815C27.1362 8.4594 28.04 9.815 28.3412 11.7731C28.6425 13.7312 28.6425 16.593 28.6425 16.593C28.6425 16.593 28.6425 19.4548 28.3412 21.4129C28.04 23.371 27.1362 24.576 25.0275 25.0279C21.7138 25.6304 16.5927 25.6304 16.5927 25.6304C16.5927 25.6304 11.4715 25.6304 8.15779 25.0279C6.04907 24.7266 5.14534 23.371 4.84409 21.4129C4.54285 19.4548 4.54285 16.593 4.54285 16.593C4.54285 16.593 4.54285 13.7312 4.84409 11.7731C4.99471 9.815 6.04907 8.4594 8.15779 8.15815C11.4715 7.55566 16.5927 7.55566 16.5927 7.55566C16.5927 7.55566 21.7138 7.55566 25.0275 8.15815ZM21.1113 16.5926L13.5802 12.0739V21.1113L21.1113 16.5926Z" fill="white"/>
</svg>
