<svg width="33" height="33" viewBox="0 0 33 33" fill="none" xmlns="http://www.w3.org/2000/svg">
<path fill-rule="evenodd" clip-rule="evenodd" d="M12.9444 7.66529C13.9124 7.62143 14.2217 7.61084 16.6862 7.61084C19.1507 7.61084 19.46 7.62143 20.428 7.66529C21.9026 7.73259 23.198 8.09406 24.2378 9.13387C25.2776 10.1737 25.6391 11.4691 25.7064 12.9437C25.7503 13.9117 25.7609 14.221 25.7609 16.6855C25.7609 19.15 25.7503 19.4593 25.7064 20.4273C25.6391 21.9019 25.2776 23.1973 24.2378 24.2371C23.198 25.2769 21.9026 25.6384 20.428 25.7057C19.46 25.7496 19.1507 25.7601 16.6862 25.7601C14.2217 25.7601 13.9124 25.7496 12.9444 25.7057C11.4698 25.6384 10.1744 25.2769 9.1346 24.2371C8.0948 23.1973 7.73332 21.9019 7.66602 20.4273C7.62216 19.4593 7.61157 19.15 7.61157 16.6855C7.61157 14.221 7.62216 13.9117 7.66602 12.9437C7.73332 11.4691 8.0948 10.1737 9.1346 9.13387C10.1744 8.09406 11.4698 7.73259 12.9444 7.66529ZM20.353 9.2984C19.3963 9.25454 19.109 9.24547 16.686 9.24547C14.2631 9.24547 13.9757 9.25454 13.0191 9.2984C11.9861 9.34529 11.028 9.55249 10.2907 10.2898C9.55336 11.0271 9.34616 11.9853 9.29927 13.0183C9.25541 13.9749 9.24634 14.2622 9.24634 16.6852C9.24634 19.1081 9.25541 19.3955 9.29927 20.3521C9.34616 21.3851 9.55336 22.3432 10.2907 23.0805C11.028 23.8178 11.9861 24.0251 13.0191 24.0719C13.9757 24.1158 14.2631 24.1249 16.686 24.1249C19.109 24.1249 19.3963 24.1158 20.353 24.0719C21.386 24.0251 22.3441 23.8178 23.0814 23.0805C23.8187 22.3432 24.0259 21.3851 24.0728 20.3521C24.1167 19.3955 24.1257 19.1081 24.1257 16.6852C24.1257 14.2622 24.1167 13.9749 24.0728 13.0183C24.0259 11.9853 23.8187 11.0271 23.0814 10.2898C22.3441 9.55249 21.386 9.34529 20.353 9.2984Z" fill="white"/>
<path fill-rule="evenodd" clip-rule="evenodd" d="M11.8 16.6862C11.8 13.9876 13.9879 11.7998 16.6864 11.7998C19.3849 11.7998 21.5727 13.9876 21.5727 16.6862C21.5727 19.3847 19.3849 21.5725 16.6864 21.5725C13.9879 21.5725 11.8 19.3847 11.8 16.6862ZM13.5139 16.6866C13.5139 18.4383 14.9341 19.8585 16.6858 19.8585C18.4375 19.8585 19.8578 18.4383 19.8578 16.6866C19.8578 14.9349 18.4375 13.5146 16.6858 13.5146C14.9341 13.5146 13.5139 14.9349 13.5139 16.6866Z" fill="white"/>
<path d="M21.573 13.196C22.344 13.196 22.9691 12.571 22.9691 11.7999C22.9691 11.0289 22.344 10.4038 21.573 10.4038C20.8019 10.4038 20.1769 11.0289 20.1769 11.7999C20.1769 12.571 20.8019 13.196 21.573 13.196Z" fill="white"/>
</svg>
