<svg width="20" height="20" viewBox="0 0 20 20" fill="none" xmlns="http://www.w3.org/2000/svg">
<path d="M10 2.5V6.66667" stroke="#667085" stroke-width="1.5" stroke-linecap="round" stroke-linejoin="round"/>
<path d="M5.83301 14.1665H7.49967" stroke="#667085" stroke-width="1.5" stroke-linecap="round" stroke-linejoin="round"/>
<path d="M17.5 8.33317C17.5 7.89114 17.3244 7.46722 17.0118 7.15466C16.6993 6.8421 16.2754 6.6665 15.8333 6.6665H4.16667C3.72464 6.6665 3.30072 6.8421 2.98816 7.15466C2.67559 7.46722 2.5 7.89114 2.5 8.33317" stroke="#667085" stroke-width="1.5" stroke-linecap="round" stroke-linejoin="round"/>
<path d="M15.8333 17.5H4.375C3.87772 17.5 3.40081 17.3025 3.04917 16.9508C2.69754 16.5992 2.5 16.1223 2.5 15.625V7.08333C2.5 6.63333 2.59167 6.1875 2.76833 5.775L3.68 3.63833C3.82422 3.30051 4.06452 3.01251 4.37106 2.81013C4.6776 2.60775 5.03685 2.4999 5.40417 2.5H14.595C15.3458 2.5 16.0242 2.9475 16.3192 3.63833L17.2358 5.77417C17.4108 6.18833 17.5017 6.63333 17.5 7.08333V15.8333C17.5 16.2754 17.3244 16.6993 17.0118 17.0118C16.6993 17.3244 16.2754 17.5 15.8333 17.5Z" stroke="#667085" stroke-width="1.5" stroke-linecap="round" stroke-linejoin="round"/>
</svg>
