<svg width="20" height="20" viewBox="0 0 20 20" fill="none" xmlns="http://www.w3.org/2000/svg">
<g clip-path="url(#clip0_2129_7132)">
<path d="M14.8439 1.59375L7.59067 8.81019C6.50844 8.52017 5.36076 8.59536 4.32562 9.0241C3.29048 9.45284 2.42574 10.2112 1.86552 11.1815C1.3053 12.1518 1.0809 13.2798 1.22714 14.3906C1.37337 15.5015 1.88207 16.533 2.67432 17.3253C3.46657 18.1175 4.49811 18.6262 5.60893 18.7724C6.71976 18.9187 7.84781 18.6943 8.81811 18.1341C9.7884 17.5738 10.5467 16.7091 10.9755 15.674C11.4042 14.6388 11.4794 13.4911 11.1894 12.4089L12.4689 11.0938V8.71875H14.8439V6.34375H16.6252L18.4064 4.5625V1.59375H14.8439Z" stroke="#667085" stroke-width="1.58333" stroke-linecap="round" stroke-linejoin="round"/>
<path d="M5.9375 15.8438C6.92126 15.8438 7.71875 15.0463 7.71875 14.0625C7.71875 13.0787 6.92126 12.2812 5.9375 12.2812C4.95374 12.2812 4.15625 13.0787 4.15625 14.0625C4.15625 15.0463 4.95374 15.8438 5.9375 15.8438Z" stroke="#667085" stroke-width="1.58333" stroke-linecap="round" stroke-linejoin="round"/>
</g>
<defs>
<clipPath id="clip0_2129_7132">
<rect width="19" height="19" fill="white" transform="translate(0 1)"/>
</clipPath>
</defs>
</svg>
