<svg width="33" height="33" viewBox="0 0 33 33" fill="none" xmlns="http://www.w3.org/2000/svg">
<g clip-path="url(#clip0_2201_5809)">
<path d="M24.8411 7.55469H8.3479C7.89603 7.55469 7.55713 7.89359 7.55713 8.34546V24.9516C7.55713 25.2905 7.89603 25.6294 8.3479 25.6294H24.954C25.4059 25.6294 25.7448 25.2905 25.7448 24.8386V8.34546C25.6318 7.89359 25.2929 7.55469 24.8411 7.55469ZM12.8666 22.9182H10.2683V14.3327H12.9795V22.9182H12.8666ZM11.6239 13.203C10.7202 13.203 10.0424 12.4123 10.0424 11.6215C10.0424 10.7178 10.7202 10.04 11.6239 10.04C12.5277 10.04 13.2055 10.7178 13.2055 11.6215C13.0925 12.4123 12.4147 13.203 11.6239 13.203ZM22.9206 22.9182H20.2094V18.7384C20.2094 17.7217 20.2094 16.4791 18.8538 16.4791C17.4982 16.4791 17.2723 17.6087 17.2723 18.7384V23.0312H14.5611V14.3327H17.1593V15.4624C17.4982 14.7846 18.402 14.1068 19.6446 14.1068C22.3558 14.1068 22.8077 15.9142 22.8077 18.1736V22.9182H22.9206Z" fill="white"/>
</g>
<defs>
<clipPath id="clip0_2201_5809">
<rect width="18.0747" height="18.0747" fill="white" transform="translate(7.5564 7.55566)"/>
</clipPath>
</defs>
</svg>
