<svg width="37" height="36" viewBox="0 0 37 36" fill="none" xmlns="http://www.w3.org/2000/svg">
<path fill-rule="evenodd" clip-rule="evenodd" d="M14.9444 9.16524C15.9124 9.12138 16.2217 9.11079 18.6862 9.11079C21.1507 9.11079 21.46 9.12138 22.428 9.16524C23.9026 9.23255 25.198 9.59402 26.2378 10.6338C27.2776 11.6736 27.6391 12.969 27.7064 14.4437C27.7503 15.4116 27.7609 15.7209 27.7609 18.1854C27.7609 20.65 27.7503 20.9593 27.7064 21.9272C27.6391 23.4019 27.2776 24.6973 26.2378 25.7371C25.198 26.7769 23.9026 27.1383 22.428 27.2057C21.46 27.2495 21.1507 27.2601 18.6862 27.2601C16.2217 27.2601 15.9124 27.2495 14.9444 27.2057C13.4698 27.1383 12.1744 26.7769 11.1346 25.7371C10.0948 24.6973 9.73332 23.4019 9.66602 21.9272C9.62216 20.9593 9.61157 20.65 9.61157 18.1854C9.61157 15.7209 9.62216 15.4116 9.66602 14.4437C9.73332 12.969 10.0948 11.6736 11.1346 10.6338C12.1744 9.59402 13.4698 9.23255 14.9444 9.16524ZM22.353 10.7984C21.3963 10.7545 21.109 10.7454 18.686 10.7454C16.2631 10.7454 15.9757 10.7545 15.0191 10.7984C13.9861 10.8452 13.028 11.0524 12.2907 11.7898C11.5534 12.5271 11.3462 13.4852 11.2993 14.5182C11.2554 15.4748 11.2463 15.7622 11.2463 18.1851C11.2463 20.6081 11.2554 20.8954 11.2993 21.852C11.3462 22.885 11.5534 23.8432 12.2907 24.5805C13.028 25.3178 13.9861 25.525 15.0191 25.5719C15.9757 25.6158 16.2631 25.6248 18.686 25.6248C21.109 25.6248 21.3963 25.6158 22.353 25.5719C23.386 25.525 24.3441 25.3178 25.0814 24.5805C25.8187 23.8432 26.0259 22.885 26.0728 21.852C26.1167 20.8954 26.1257 20.6081 26.1257 18.1851C26.1257 15.7622 26.1167 15.4748 26.0728 14.5182C26.0259 13.4852 25.8187 12.5271 25.0814 11.7898C24.3441 11.0524 23.386 10.8452 22.353 10.7984Z" fill="#646464"/>
<path fill-rule="evenodd" clip-rule="evenodd" d="M13.8 18.1859C13.8 15.4874 15.9879 13.2996 18.6864 13.2996C21.3849 13.2996 23.5727 15.4874 23.5727 18.1859C23.5727 20.8844 21.3849 23.0723 18.6864 23.0723C15.9879 23.0723 13.8 20.8844 13.8 18.1859ZM15.5139 18.1863C15.5139 19.938 16.9341 21.3583 18.6858 21.3583C20.4375 21.3583 21.8578 19.938 21.8578 18.1863C21.8578 16.4346 20.4375 15.0144 18.6858 15.0144C16.9341 15.0144 15.5139 16.4346 15.5139 18.1863Z" fill="#646464"/>
<path d="M23.573 14.696C24.344 14.696 24.9691 14.071 24.9691 13.2999C24.9691 12.5289 24.344 11.9038 23.573 11.9038C22.8019 11.9038 22.1769 12.5289 22.1769 13.2999C22.1769 14.071 22.8019 14.696 23.573 14.696Z" fill="#646464"/>
</svg>
