<svg width="20" height="20" viewBox="0 0 20 20" fill="none" xmlns="http://www.w3.org/2000/svg">
<path d="M10.0551 6.00001C9.84573 6.00085 9.64135 6.06368 9.4677 6.18059C9.29406 6.29749 9.15895 6.46322 9.07942 6.65686C8.9999 6.85049 8.97952 7.06334 9.02087 7.26855C9.06222 7.47375 9.16345 7.6621 9.31176 7.80983C9.46007 7.95755 9.64883 8.05802 9.85419 8.09855C10.0596 8.13908 10.2723 8.11786 10.4656 8.03756C10.659 7.95726 10.8242 7.82149 10.9404 7.64738C11.0566 7.47327 11.1186 7.26863 11.1186 7.05931C11.1186 6.91984 11.0911 6.78175 11.0376 6.65295C10.9841 6.52415 10.9056 6.40719 10.8068 6.30877C10.708 6.21035 10.5907 6.13241 10.4617 6.07942C10.3327 6.02644 10.1945 5.99945 10.0551 6.00001Z" fill="#667085"/>
<path d="M10 17.5C8.01088 17.5 6.10322 16.7098 4.6967 15.3033C3.29018 13.8968 2.5 11.9891 2.5 10C2.5 8.01088 3.29018 6.10322 4.6967 4.6967C6.10322 3.29018 8.01088 2.5 10 2.5C11.9891 2.5 13.8968 3.29018 15.3033 4.6967C16.7098 6.10322 17.5 8.01088 17.5 10C17.5 11.9891 16.7098 13.8968 15.3033 15.3033C13.8968 16.7098 11.9891 17.5 10 17.5V17.5Z" stroke="#667085" stroke-width="1.25" stroke-linecap="round" stroke-linejoin="round"/>
<path d="M10 10V14.1667" stroke="#667085" stroke-width="2" stroke-linecap="round" stroke-linejoin="round"/>
</svg>
