<svg width="20" height="20" viewBox="0 0 20 20" fill="none" xmlns="http://www.w3.org/2000/svg">
<path d="M14.0106 6.66679V3.33346C14.0106 3.11244 13.9228 2.90048 13.7666 2.7442C13.6103 2.58792 13.3983 2.50012 13.1773 2.50012H6.82064C6.59962 2.50012 6.38766 2.58792 6.23138 2.7442C6.0751 2.90048 5.9873 3.11244 5.9873 3.33346V6.66679" stroke="#344054" stroke-width="1.2" stroke-linecap="round" stroke-linejoin="round"/>
<path d="M14.166 9.16675H14.9993" stroke="#344054" stroke-width="1.2" stroke-linecap="round" stroke-linejoin="round"/>
<path d="M5.83236 14.1667H3.33236C3.11134 14.1667 2.89938 14.079 2.7431 13.9227C2.58682 13.7664 2.49902 13.5544 2.49902 13.3334V7.50008C2.49902 7.27907 2.58682 7.06711 2.7431 6.91083C2.89938 6.75455 3.11134 6.66675 3.33236 6.66675H16.6657C16.8867 6.66675 17.0987 6.75455 17.2549 6.91083C17.4112 7.06711 17.499 7.27907 17.499 7.50008V13.3334C17.499 13.5544 17.4112 13.7664 17.2549 13.9227C17.0987 14.079 16.8867 14.1667 16.6657 14.1667H14.1657" stroke="#344054" stroke-width="1.2" stroke-linecap="round" stroke-linejoin="round"/>
<path d="M13.332 17.5002H6.66536C6.44435 17.5002 6.23239 17.4124 6.07611 17.2561C5.91983 17.0998 5.83203 16.8879 5.83203 16.6669V11.6669H14.1654V16.6669C14.1654 16.8879 14.0776 17.0998 13.9213 17.2561C13.765 17.4124 13.553 17.5002 13.332 17.5002Z" stroke="#344054" stroke-width="1.2" stroke-linecap="round" stroke-linejoin="round"/>
</svg>
